G75*
%MOIN*%
%OFA0B0*%
%FSLAX25Y25*%
%IPPOS*%
%LPD*%
%AMOC8*
5,1,8,0,0,1.08239X$1,22.5*
%
%ADD10R,0.05906X0.05118*%
%ADD11R,0.05118X0.05906*%
%ADD12C,0.06000*%
%ADD13R,0.07874X0.04331*%
%ADD14R,0.04331X0.07874*%
%ADD15C,0.07200*%
%ADD16C,0.01600*%
%ADD17C,0.01200*%
%ADD18C,0.02000*%
%ADD19C,0.04750*%
D10*
X0113300Y0161060D03*
X0113300Y0168540D03*
X0170800Y0157540D03*
X0170800Y0150060D03*
X0213300Y0196560D03*
X0213300Y0204040D03*
X0218800Y0161040D03*
X0218800Y0153560D03*
X0277800Y0156040D03*
X0277800Y0148560D03*
X0329800Y0147060D03*
X0329800Y0154540D03*
X0355800Y0192560D03*
X0355800Y0200040D03*
X0284800Y0314560D03*
X0284800Y0322040D03*
X0217800Y0365060D03*
X0217800Y0372540D03*
X0221800Y0413060D03*
X0221800Y0420540D03*
X0250300Y0498060D03*
X0250300Y0505540D03*
X0182300Y0314040D03*
X0182300Y0306560D03*
D11*
X0185560Y0283300D03*
X0193040Y0283300D03*
X0178540Y0246300D03*
X0171060Y0246300D03*
X0168060Y0196800D03*
X0175540Y0196800D03*
X0150540Y0186800D03*
X0143060Y0186800D03*
X0219560Y0244300D03*
X0227040Y0244300D03*
X0301560Y0280800D03*
X0309040Y0280800D03*
X0250540Y0331800D03*
X0243060Y0331800D03*
X0293060Y0366800D03*
X0300540Y0366800D03*
X0286540Y0414300D03*
X0279060Y0414300D03*
X0255540Y0411800D03*
X0248060Y0411800D03*
X0230540Y0451800D03*
X0223060Y0451800D03*
X0190540Y0366800D03*
X0183060Y0366800D03*
X0302060Y0189300D03*
X0309540Y0189300D03*
D12*
X0256800Y0109800D02*
X0256800Y0103800D01*
X0246800Y0103800D02*
X0246800Y0109800D01*
X0247300Y0283300D02*
X0247300Y0289300D01*
X0257300Y0289300D02*
X0257300Y0283300D01*
X0267300Y0283300D02*
X0267300Y0289300D01*
X0237300Y0289300D02*
X0237300Y0283300D01*
D13*
X0239926Y0306107D03*
X0239926Y0319493D03*
X0255674Y0319493D03*
X0255674Y0306107D03*
X0214674Y0305107D03*
X0214674Y0318493D03*
X0198926Y0318493D03*
X0198926Y0305107D03*
X0193926Y0340107D03*
X0193926Y0353493D03*
X0209674Y0353493D03*
X0209674Y0340107D03*
X0233926Y0350107D03*
X0233926Y0363493D03*
X0249674Y0363493D03*
X0249674Y0350107D03*
X0249926Y0380607D03*
X0249926Y0393993D03*
X0265674Y0393993D03*
X0265674Y0380607D03*
X0277926Y0387607D03*
X0277926Y0400993D03*
X0293674Y0400993D03*
X0293674Y0387607D03*
X0298926Y0353493D03*
X0314674Y0353493D03*
X0314674Y0340107D03*
X0298926Y0340107D03*
X0298926Y0313493D03*
X0298926Y0300107D03*
X0314674Y0300107D03*
X0314674Y0313493D03*
X0308926Y0268493D03*
X0308926Y0255107D03*
X0324674Y0255107D03*
X0324674Y0268493D03*
X0294674Y0218493D03*
X0294674Y0205107D03*
X0278926Y0205107D03*
X0278926Y0218493D03*
X0263674Y0238607D03*
X0263674Y0251993D03*
X0247926Y0251993D03*
X0247926Y0238607D03*
X0208674Y0255607D03*
X0208674Y0268993D03*
X0192926Y0268993D03*
X0192926Y0255607D03*
X0166674Y0259607D03*
X0166674Y0272993D03*
X0150926Y0272993D03*
X0150926Y0259607D03*
X0178926Y0223493D03*
X0194674Y0223493D03*
X0194674Y0210107D03*
X0178926Y0210107D03*
X0144674Y0168493D03*
X0144674Y0155107D03*
X0128926Y0155107D03*
X0128926Y0168493D03*
X0323926Y0200107D03*
X0323926Y0213493D03*
X0339674Y0213493D03*
X0339674Y0200107D03*
X0225674Y0385107D03*
X0225674Y0398493D03*
X0209926Y0398493D03*
X0209926Y0385107D03*
X0243926Y0430107D03*
X0243926Y0443493D03*
X0259674Y0443493D03*
X0259674Y0430107D03*
X0259174Y0470607D03*
X0259174Y0483993D03*
X0243426Y0483993D03*
X0243426Y0470607D03*
D14*
X0243493Y0219674D03*
X0230107Y0219674D03*
X0230107Y0203926D03*
X0243493Y0203926D03*
X0243493Y0182174D03*
X0230107Y0182174D03*
X0230107Y0166426D03*
X0243493Y0166426D03*
X0196493Y0173674D03*
X0183107Y0173674D03*
X0183107Y0157926D03*
X0196493Y0157926D03*
X0298607Y0156926D03*
X0311993Y0156926D03*
X0311993Y0172674D03*
X0298607Y0172674D03*
X0340607Y0170674D03*
X0353993Y0170674D03*
X0353993Y0154926D03*
X0340607Y0154926D03*
D15*
X0286800Y0173200D02*
X0286800Y0180400D01*
X0276800Y0180400D02*
X0276800Y0173200D01*
X0266800Y0173200D02*
X0266800Y0180400D01*
X0266800Y0263200D02*
X0266800Y0270400D01*
X0256800Y0270400D02*
X0256800Y0263200D01*
X0246800Y0263200D02*
X0246800Y0270400D01*
X0236800Y0270400D02*
X0236800Y0263200D01*
X0276800Y0263200D02*
X0276800Y0270400D01*
X0286800Y0270400D02*
X0286800Y0263200D01*
D16*
X0056713Y0066466D02*
X0569590Y0066466D01*
X0571133Y0068064D02*
X0054610Y0068064D01*
X0052507Y0069663D02*
X0570290Y0069663D01*
X0569448Y0071261D02*
X0050403Y0071261D01*
X0048300Y0072860D02*
X0568605Y0072860D01*
X0567762Y0074459D02*
X0046197Y0074459D01*
X0044093Y0076057D02*
X0566919Y0076057D01*
X0566076Y0077656D02*
X0041990Y0077656D01*
X0039887Y0079254D02*
X0565233Y0079254D01*
X0564390Y0080853D02*
X0037783Y0080853D01*
X0035680Y0082451D02*
X0563548Y0082451D01*
X0562705Y0084050D02*
X0033577Y0084050D01*
X0031474Y0085648D02*
X0561862Y0085648D01*
X0561019Y0087247D02*
X0029370Y0087247D01*
X0027267Y0088845D02*
X0560176Y0088845D01*
X0559333Y0090444D02*
X0025164Y0090444D01*
X0023060Y0092042D02*
X0558491Y0092042D01*
X0557648Y0093641D02*
X0020957Y0093641D01*
X0018854Y0095239D02*
X0556805Y0095239D01*
X0555962Y0096838D02*
X0016800Y0096838D01*
X0016800Y0096800D02*
X0016800Y0101800D01*
X0146800Y0466800D01*
X0281800Y0616800D01*
X0571800Y0066800D01*
X0141800Y0001800D01*
X0016800Y0096800D01*
X0016800Y0098436D02*
X0255704Y0098436D01*
X0255731Y0098425D02*
X0257869Y0098425D01*
X0259845Y0099243D01*
X0261357Y0100755D01*
X0262175Y0102731D01*
X0262175Y0110869D01*
X0261357Y0112845D01*
X0259975Y0114226D01*
X0259975Y0152865D01*
X0272472Y0152865D01*
X0272472Y0152497D01*
X0273167Y0151803D01*
X0273047Y0151356D01*
X0273047Y0149039D01*
X0277320Y0149039D01*
X0277320Y0148080D01*
X0273047Y0148080D01*
X0273047Y0145764D01*
X0273170Y0145306D01*
X0273407Y0144896D01*
X0273742Y0144560D01*
X0274152Y0144323D01*
X0274610Y0144201D01*
X0277320Y0144201D01*
X0277320Y0148080D01*
X0278280Y0148080D01*
X0278280Y0149039D01*
X0282553Y0149039D01*
X0282553Y0151356D01*
X0282433Y0151803D01*
X0283128Y0152497D01*
X0283128Y0153751D01*
X0294067Y0153751D01*
X0294067Y0152005D01*
X0295232Y0150840D01*
X0295232Y0150322D01*
X0295746Y0149081D01*
X0299939Y0144888D01*
X0300888Y0143939D01*
X0302129Y0143425D01*
X0317971Y0143425D01*
X0319212Y0143939D01*
X0320161Y0144888D01*
X0320161Y0144888D01*
X0325047Y0149775D01*
X0325047Y0147539D01*
X0329320Y0147539D01*
X0329320Y0146580D01*
X0325047Y0146580D01*
X0325047Y0144264D01*
X0325170Y0143806D01*
X0325407Y0143396D01*
X0325742Y0143060D01*
X0326152Y0142823D01*
X0326610Y0142701D01*
X0329320Y0142701D01*
X0329320Y0146580D01*
X0330280Y0146580D01*
X0330280Y0147539D01*
X0334553Y0147539D01*
X0334553Y0149856D01*
X0334433Y0150303D01*
X0335128Y0150997D01*
X0335128Y0151365D01*
X0336067Y0151365D01*
X0336067Y0150005D01*
X0337458Y0148614D01*
X0337996Y0148614D01*
X0343609Y0143002D01*
X0344502Y0142109D01*
X0345668Y0141625D01*
X0365932Y0141625D01*
X0367098Y0142109D01*
X0367991Y0143002D01*
X0390598Y0165609D01*
X0391491Y0166502D01*
X0391975Y0167668D01*
X0391975Y0168932D01*
X0391491Y0170098D01*
X0373475Y0188115D01*
X0373475Y0193932D01*
X0372991Y0195098D01*
X0366251Y0201839D01*
X0365358Y0202732D01*
X0364191Y0203215D01*
X0361128Y0203215D01*
X0361128Y0203583D01*
X0359736Y0204974D01*
X0351864Y0204974D01*
X0350472Y0203583D01*
X0350472Y0203282D01*
X0345960Y0203282D01*
X0344595Y0204647D01*
X0338124Y0204647D01*
X0334173Y0208598D01*
X0333279Y0209491D01*
X0332113Y0209975D01*
X0329056Y0209975D01*
X0329303Y0210222D01*
X0329540Y0210633D01*
X0329663Y0211091D01*
X0329663Y0213210D01*
X0324209Y0213210D01*
X0324209Y0213776D01*
X0323643Y0213776D01*
X0323643Y0217458D01*
X0319752Y0217458D01*
X0319294Y0217336D01*
X0318884Y0217099D01*
X0318549Y0216763D01*
X0318312Y0216353D01*
X0318189Y0215895D01*
X0318189Y0213776D01*
X0323643Y0213776D01*
X0323643Y0213210D01*
X0318189Y0213210D01*
X0318189Y0211091D01*
X0318312Y0210633D01*
X0318549Y0210222D01*
X0318796Y0209975D01*
X0316615Y0209975D01*
X0312991Y0213598D01*
X0312098Y0214491D01*
X0310932Y0214975D01*
X0300617Y0214975D01*
X0300986Y0215344D01*
X0300986Y0215675D01*
X0301291Y0215801D01*
X0302184Y0216695D01*
X0308115Y0222625D01*
X0326661Y0222625D01*
X0333362Y0215924D01*
X0333362Y0210344D01*
X0334753Y0208953D01*
X0344595Y0208953D01*
X0345986Y0210344D01*
X0345986Y0216642D01*
X0344595Y0218033D01*
X0340233Y0218033D01*
X0330668Y0227598D01*
X0329775Y0228491D01*
X0328608Y0228975D01*
X0306168Y0228975D01*
X0305002Y0228491D01*
X0299543Y0223033D01*
X0289753Y0223033D01*
X0288362Y0221642D01*
X0288362Y0216047D01*
X0285238Y0219171D01*
X0285238Y0221642D01*
X0283847Y0223033D01*
X0274005Y0223033D01*
X0272614Y0221642D01*
X0272614Y0215344D01*
X0274005Y0213953D01*
X0281476Y0213953D01*
X0285427Y0210002D01*
X0286321Y0209109D01*
X0287487Y0208625D01*
X0289544Y0208625D01*
X0289297Y0208378D01*
X0289060Y0207967D01*
X0288937Y0207509D01*
X0288937Y0205390D01*
X0294391Y0205390D01*
X0294391Y0204824D01*
X0294957Y0204824D01*
X0294957Y0205390D01*
X0300411Y0205390D01*
X0300411Y0207509D01*
X0300288Y0207967D01*
X0300051Y0208378D01*
X0299804Y0208625D01*
X0308985Y0208625D01*
X0311060Y0206550D01*
X0300485Y0195975D01*
X0235615Y0195975D01*
X0233616Y0197974D01*
X0234647Y0199005D01*
X0234647Y0208282D01*
X0238953Y0203976D01*
X0238953Y0199005D01*
X0240344Y0197614D01*
X0246642Y0197614D01*
X0248033Y0199005D01*
X0248033Y0208847D01*
X0246642Y0210238D01*
X0241671Y0210238D01*
X0237417Y0214491D01*
X0236250Y0214975D01*
X0234647Y0214975D01*
X0234647Y0222657D01*
X0236615Y0224625D01*
X0239835Y0224625D01*
X0239650Y0224306D01*
X0239528Y0223848D01*
X0239528Y0219957D01*
X0243210Y0219957D01*
X0243210Y0219391D01*
X0243776Y0219391D01*
X0243776Y0219957D01*
X0247458Y0219957D01*
X0247458Y0223848D01*
X0247336Y0224306D01*
X0247151Y0224625D01*
X0247485Y0224625D01*
X0269695Y0202416D01*
X0270861Y0201932D01*
X0272640Y0201932D01*
X0274005Y0200567D01*
X0283847Y0200567D01*
X0285238Y0201958D01*
X0285238Y0208256D01*
X0283847Y0209647D01*
X0274005Y0209647D01*
X0272724Y0208366D01*
X0251491Y0229598D01*
X0250598Y0230491D01*
X0249432Y0230975D01*
X0234668Y0230975D01*
X0233502Y0230491D01*
X0228996Y0225986D01*
X0226958Y0225986D01*
X0225567Y0224595D01*
X0225567Y0214975D01*
X0217615Y0214975D01*
X0207299Y0225291D01*
X0207299Y0225291D01*
X0206405Y0226184D01*
X0205239Y0226668D01*
X0200960Y0226668D01*
X0199595Y0228033D01*
X0189753Y0228033D01*
X0188362Y0226642D01*
X0188362Y0220344D01*
X0189753Y0218953D01*
X0199595Y0218953D01*
X0200960Y0220318D01*
X0203292Y0220318D01*
X0214502Y0209109D01*
X0214826Y0208974D01*
X0209364Y0208974D01*
X0207972Y0207583D01*
X0207972Y0205511D01*
X0207156Y0205173D01*
X0204458Y0202475D01*
X0186641Y0202475D01*
X0188598Y0204432D01*
X0189491Y0205325D01*
X0189912Y0206340D01*
X0190042Y0206264D01*
X0190500Y0206142D01*
X0194391Y0206142D01*
X0194391Y0209824D01*
X0194957Y0209824D01*
X0194957Y0210390D01*
X0200411Y0210390D01*
X0200411Y0212509D01*
X0200288Y0212967D01*
X0200051Y0213378D01*
X0199716Y0213713D01*
X0199306Y0213950D01*
X0198848Y0214072D01*
X0194957Y0214072D01*
X0194957Y0210390D01*
X0194391Y0210390D01*
X0194391Y0214072D01*
X0190500Y0214072D01*
X0190042Y0213950D01*
X0189975Y0213911D01*
X0189975Y0215432D01*
X0189491Y0216598D01*
X0185238Y0220852D01*
X0185238Y0226642D01*
X0183847Y0228033D01*
X0178876Y0228033D01*
X0174235Y0232674D01*
X0174235Y0240972D01*
X0174603Y0240972D01*
X0175297Y0241667D01*
X0175744Y0241547D01*
X0178061Y0241547D01*
X0178061Y0245820D01*
X0179020Y0245820D01*
X0179020Y0241547D01*
X0181336Y0241547D01*
X0181794Y0241670D01*
X0182204Y0241907D01*
X0182540Y0242242D01*
X0182777Y0242652D01*
X0182899Y0243110D01*
X0182899Y0245820D01*
X0179020Y0245820D01*
X0179020Y0246780D01*
X0178061Y0246780D01*
X0178061Y0251053D01*
X0175744Y0251053D01*
X0175297Y0250933D01*
X0174603Y0251628D01*
X0170222Y0251628D01*
X0169849Y0252001D01*
X0169849Y0255067D01*
X0171595Y0255067D01*
X0172986Y0256458D01*
X0172986Y0262191D01*
X0173175Y0262002D01*
X0174069Y0261109D01*
X0175235Y0260625D01*
X0199613Y0260625D01*
X0200779Y0261109D01*
X0201673Y0262002D01*
X0204124Y0264453D01*
X0213595Y0264453D01*
X0214986Y0265844D01*
X0214986Y0272142D01*
X0213595Y0273533D01*
X0203753Y0273533D01*
X0202362Y0272142D01*
X0202362Y0271671D01*
X0199238Y0268547D01*
X0199238Y0272142D01*
X0197847Y0273533D01*
X0196101Y0273533D01*
X0196101Y0277972D01*
X0196583Y0277972D01*
X0197974Y0279364D01*
X0197974Y0283744D01*
X0206670Y0292440D01*
X0215625Y0283485D01*
X0215625Y0253668D01*
X0216109Y0252502D01*
X0217002Y0251609D01*
X0218502Y0250109D01*
X0219668Y0249625D01*
X0223495Y0249625D01*
X0222803Y0248933D01*
X0222356Y0249053D01*
X0220039Y0249053D01*
X0220039Y0244780D01*
X0219080Y0244780D01*
X0219080Y0249053D01*
X0216764Y0249053D01*
X0216306Y0248930D01*
X0215896Y0248693D01*
X0215560Y0248358D01*
X0215323Y0247948D01*
X0215201Y0247490D01*
X0215201Y0244780D01*
X0219080Y0244780D01*
X0219080Y0243820D01*
X0220039Y0243820D01*
X0220039Y0239547D01*
X0222356Y0239547D01*
X0222803Y0239667D01*
X0223497Y0238972D01*
X0230583Y0238972D01*
X0231974Y0240364D01*
X0231974Y0244744D01*
X0234968Y0247738D01*
X0234968Y0247738D01*
X0235862Y0248632D01*
X0236048Y0248818D01*
X0241640Y0248818D01*
X0241684Y0248774D01*
X0241002Y0248491D01*
X0240109Y0247598D01*
X0230217Y0237707D01*
X0215316Y0237707D01*
X0199238Y0253785D01*
X0199238Y0258756D01*
X0197847Y0260147D01*
X0188005Y0260147D01*
X0186614Y0258756D01*
X0186614Y0252458D01*
X0188005Y0251067D01*
X0192976Y0251067D01*
X0212202Y0231841D01*
X0213369Y0231357D01*
X0232164Y0231357D01*
X0233331Y0231841D01*
X0234224Y0232734D01*
X0241614Y0240124D01*
X0241614Y0235458D01*
X0243005Y0234067D01*
X0247976Y0234067D01*
X0252542Y0229502D01*
X0253435Y0228609D01*
X0254602Y0228125D01*
X0271932Y0228125D01*
X0273098Y0228609D01*
X0273991Y0229502D01*
X0301615Y0257125D01*
X0302614Y0257125D01*
X0302614Y0251958D01*
X0304005Y0250567D01*
X0308976Y0250567D01*
X0314542Y0245002D01*
X0315435Y0244109D01*
X0316602Y0243625D01*
X0337432Y0243625D01*
X0338598Y0244109D01*
X0348598Y0254109D01*
X0349491Y0255002D01*
X0349975Y0256168D01*
X0349975Y0289932D01*
X0349491Y0291098D01*
X0348598Y0291991D01*
X0325491Y0315098D01*
X0324598Y0315991D01*
X0323432Y0316475D01*
X0320986Y0316475D01*
X0320986Y0316642D01*
X0319595Y0318033D01*
X0309753Y0318033D01*
X0308362Y0316642D01*
X0308362Y0310344D01*
X0309753Y0308953D01*
X0319595Y0308953D01*
X0320767Y0310125D01*
X0321485Y0310125D01*
X0343625Y0287985D01*
X0343625Y0258115D01*
X0335485Y0249975D01*
X0318548Y0249975D01*
X0315238Y0253285D01*
X0315238Y0257125D01*
X0318432Y0257125D01*
X0318937Y0257335D01*
X0318937Y0255390D01*
X0324391Y0255390D01*
X0324391Y0254824D01*
X0324957Y0254824D01*
X0324957Y0255390D01*
X0330411Y0255390D01*
X0330411Y0257509D01*
X0330288Y0257967D01*
X0330051Y0258378D01*
X0329716Y0258713D01*
X0329306Y0258950D01*
X0328848Y0259072D01*
X0324957Y0259072D01*
X0324957Y0255390D01*
X0324391Y0255390D01*
X0324391Y0259072D01*
X0321062Y0259072D01*
X0325943Y0263953D01*
X0329595Y0263953D01*
X0330986Y0265344D01*
X0330986Y0271642D01*
X0329595Y0273033D01*
X0319753Y0273033D01*
X0318362Y0271642D01*
X0318362Y0265352D01*
X0316485Y0263475D01*
X0299668Y0263475D01*
X0298502Y0262991D01*
X0297609Y0262098D01*
X0269985Y0234475D01*
X0256548Y0234475D01*
X0254238Y0236785D01*
X0254238Y0241756D01*
X0253369Y0242625D01*
X0258113Y0242625D01*
X0259279Y0243109D01*
X0263624Y0247453D01*
X0268595Y0247453D01*
X0269986Y0248844D01*
X0269986Y0255142D01*
X0268595Y0256533D01*
X0258753Y0256533D01*
X0257362Y0255142D01*
X0257362Y0250171D01*
X0256166Y0248975D01*
X0254238Y0248975D01*
X0254238Y0255142D01*
X0252847Y0256533D01*
X0243005Y0256533D01*
X0241640Y0255168D01*
X0234102Y0255168D01*
X0233268Y0254822D01*
X0232598Y0255491D01*
X0231432Y0255975D01*
X0221975Y0255975D01*
X0221975Y0285432D01*
X0221491Y0286598D01*
X0213465Y0294625D01*
X0236111Y0294625D01*
X0234255Y0293857D01*
X0232743Y0292345D01*
X0231925Y0290369D01*
X0231925Y0282231D01*
X0232743Y0280255D01*
X0233425Y0279574D01*
X0233425Y0275469D01*
X0233416Y0275465D01*
X0231735Y0273784D01*
X0230825Y0271588D01*
X0230825Y0262012D01*
X0231735Y0259816D01*
X0233416Y0258135D01*
X0235612Y0257225D01*
X0237988Y0257225D01*
X0240184Y0258135D01*
X0241800Y0259750D01*
X0243416Y0258135D01*
X0245612Y0257225D01*
X0247988Y0257225D01*
X0250184Y0258135D01*
X0251800Y0259750D01*
X0253416Y0258135D01*
X0255612Y0257225D01*
X0257988Y0257225D01*
X0260184Y0258135D01*
X0261800Y0259750D01*
X0263416Y0258135D01*
X0265612Y0257225D01*
X0267988Y0257225D01*
X0270184Y0258135D01*
X0271865Y0259816D01*
X0272134Y0260464D01*
X0272182Y0260370D01*
X0272681Y0259682D01*
X0273282Y0259081D01*
X0273970Y0258582D01*
X0274727Y0258196D01*
X0275535Y0257933D01*
X0276375Y0257800D01*
X0276600Y0257800D01*
X0276600Y0266600D01*
X0277000Y0266600D01*
X0277000Y0257800D01*
X0277225Y0257800D01*
X0278065Y0257933D01*
X0278873Y0258196D01*
X0279630Y0258582D01*
X0280318Y0259081D01*
X0280919Y0259682D01*
X0281418Y0260370D01*
X0281466Y0260464D01*
X0281735Y0259816D01*
X0283416Y0258135D01*
X0285612Y0257225D01*
X0287988Y0257225D01*
X0290184Y0258135D01*
X0291865Y0259816D01*
X0292775Y0262012D01*
X0292775Y0265318D01*
X0302640Y0265318D01*
X0304005Y0263953D01*
X0313847Y0263953D01*
X0315238Y0265344D01*
X0315238Y0271642D01*
X0313847Y0273033D01*
X0312101Y0273033D01*
X0312101Y0275472D01*
X0312583Y0275472D01*
X0313974Y0276864D01*
X0313974Y0284736D01*
X0312583Y0286128D01*
X0312215Y0286128D01*
X0312215Y0295515D01*
X0311955Y0296142D01*
X0314391Y0296142D01*
X0314391Y0299824D01*
X0314957Y0299824D01*
X0314957Y0300390D01*
X0320411Y0300390D01*
X0320411Y0302509D01*
X0320288Y0302967D01*
X0320051Y0303378D01*
X0319716Y0303713D01*
X0319306Y0303950D01*
X0318848Y0304072D01*
X0314957Y0304072D01*
X0314957Y0300390D01*
X0314391Y0300390D01*
X0314391Y0304072D01*
X0310550Y0304072D01*
X0310550Y0306857D01*
X0310066Y0308024D01*
X0305238Y0312852D01*
X0305238Y0316642D01*
X0303847Y0318033D01*
X0294005Y0318033D01*
X0292640Y0316668D01*
X0290128Y0316668D01*
X0290128Y0318103D01*
X0289433Y0318797D01*
X0289553Y0319244D01*
X0289553Y0321561D01*
X0285280Y0321561D01*
X0285280Y0322520D01*
X0289553Y0322520D01*
X0289553Y0324836D01*
X0289430Y0325294D01*
X0289193Y0325704D01*
X0288858Y0326040D01*
X0288448Y0326277D01*
X0287990Y0326399D01*
X0285280Y0326399D01*
X0285280Y0322520D01*
X0284320Y0322520D01*
X0284320Y0321561D01*
X0280047Y0321561D01*
X0280047Y0319244D01*
X0280167Y0318797D01*
X0279472Y0318103D01*
X0279472Y0317735D01*
X0278855Y0317735D01*
X0262098Y0334491D01*
X0260932Y0334975D01*
X0255474Y0334975D01*
X0255474Y0335736D01*
X0254083Y0337128D01*
X0246997Y0337128D01*
X0246303Y0336433D01*
X0245856Y0336553D01*
X0243539Y0336553D01*
X0243539Y0332280D01*
X0242580Y0332280D01*
X0242580Y0336553D01*
X0240264Y0336553D01*
X0239806Y0336430D01*
X0239396Y0336193D01*
X0239060Y0335858D01*
X0238823Y0335448D01*
X0238701Y0334990D01*
X0238701Y0332280D01*
X0242580Y0332280D01*
X0242580Y0331320D01*
X0243539Y0331320D01*
X0243539Y0327535D01*
X0243435Y0327491D01*
X0242542Y0326598D01*
X0239976Y0324033D01*
X0235005Y0324033D01*
X0233614Y0322642D01*
X0233614Y0316344D01*
X0235005Y0314953D01*
X0244847Y0314953D01*
X0246238Y0316344D01*
X0246238Y0321315D01*
X0246548Y0321625D01*
X0248932Y0321625D01*
X0249362Y0321804D01*
X0249362Y0316344D01*
X0250753Y0314953D01*
X0260595Y0314953D01*
X0260767Y0315125D01*
X0262485Y0315125D01*
X0280195Y0297416D01*
X0281361Y0296932D01*
X0292640Y0296932D01*
X0294005Y0295567D01*
X0303847Y0295567D01*
X0304200Y0295920D01*
X0304200Y0295918D01*
X0304683Y0294751D01*
X0305576Y0293858D01*
X0305865Y0293569D01*
X0305865Y0286128D01*
X0305497Y0286128D01*
X0304803Y0285433D01*
X0304356Y0285553D01*
X0302039Y0285553D01*
X0302039Y0281280D01*
X0301080Y0281280D01*
X0301080Y0285553D01*
X0298764Y0285553D01*
X0298306Y0285430D01*
X0297896Y0285193D01*
X0297560Y0284858D01*
X0297323Y0284448D01*
X0297201Y0283990D01*
X0297201Y0281280D01*
X0301080Y0281280D01*
X0301080Y0280320D01*
X0302039Y0280320D01*
X0302039Y0276047D01*
X0304356Y0276047D01*
X0304803Y0276167D01*
X0305497Y0275472D01*
X0305751Y0275472D01*
X0305751Y0273033D01*
X0304005Y0273033D01*
X0302640Y0271668D01*
X0292742Y0271668D01*
X0291865Y0273784D01*
X0290184Y0275465D01*
X0289975Y0275552D01*
X0289975Y0286432D01*
X0289491Y0287598D01*
X0276598Y0300491D01*
X0275432Y0300975D01*
X0206909Y0300975D01*
X0205742Y0300491D01*
X0204872Y0299621D01*
X0203979Y0298728D01*
X0193878Y0288628D01*
X0189497Y0288628D01*
X0188803Y0287933D01*
X0188356Y0288053D01*
X0186039Y0288053D01*
X0186039Y0283780D01*
X0185080Y0283780D01*
X0185080Y0288053D01*
X0182764Y0288053D01*
X0182306Y0287930D01*
X0181896Y0287693D01*
X0181560Y0287358D01*
X0181323Y0286948D01*
X0181201Y0286490D01*
X0181201Y0283780D01*
X0185080Y0283780D01*
X0185080Y0282820D01*
X0186039Y0282820D01*
X0186039Y0278547D01*
X0188356Y0278547D01*
X0188803Y0278667D01*
X0189497Y0277972D01*
X0189751Y0277972D01*
X0189751Y0273533D01*
X0188005Y0273533D01*
X0186640Y0272168D01*
X0186422Y0272168D01*
X0177475Y0281115D01*
X0177475Y0307511D01*
X0177547Y0307584D01*
X0177547Y0307039D01*
X0181820Y0307039D01*
X0181820Y0306080D01*
X0177547Y0306080D01*
X0177547Y0303764D01*
X0177670Y0303306D01*
X0177907Y0302896D01*
X0178242Y0302560D01*
X0178652Y0302323D01*
X0179110Y0302201D01*
X0181820Y0302201D01*
X0181820Y0306080D01*
X0182780Y0306080D01*
X0182780Y0307039D01*
X0187053Y0307039D01*
X0187053Y0309356D01*
X0186933Y0309803D01*
X0187628Y0310497D01*
X0187628Y0314878D01*
X0188068Y0315318D01*
X0192640Y0315318D01*
X0194005Y0313953D01*
X0203050Y0313953D01*
X0203050Y0313721D01*
X0198976Y0309647D01*
X0194005Y0309647D01*
X0192614Y0308256D01*
X0192614Y0301958D01*
X0194005Y0300567D01*
X0203847Y0300567D01*
X0205238Y0301958D01*
X0205238Y0306929D01*
X0208917Y0310608D01*
X0209400Y0311775D01*
X0209400Y0314306D01*
X0209753Y0313953D01*
X0219595Y0313953D01*
X0220960Y0315318D01*
X0221792Y0315318D01*
X0232801Y0304309D01*
X0233614Y0303496D01*
X0233614Y0302958D01*
X0235005Y0301567D01*
X0244847Y0301567D01*
X0246238Y0302958D01*
X0246238Y0309256D01*
X0244847Y0310647D01*
X0235443Y0310647D01*
X0225799Y0320291D01*
X0225799Y0320291D01*
X0224905Y0321184D01*
X0223739Y0321668D01*
X0220960Y0321668D01*
X0219595Y0323033D01*
X0209753Y0323033D01*
X0209400Y0322680D01*
X0209400Y0322682D01*
X0208917Y0323849D01*
X0205668Y0327098D01*
X0204775Y0327991D01*
X0203608Y0328475D01*
X0195615Y0328475D01*
X0186975Y0337115D01*
X0186975Y0343023D01*
X0188911Y0344960D01*
X0204266Y0344960D01*
X0205433Y0345443D01*
X0206326Y0346336D01*
X0208943Y0348953D01*
X0214595Y0348953D01*
X0215986Y0350344D01*
X0215986Y0356642D01*
X0214595Y0358033D01*
X0204753Y0358033D01*
X0203362Y0356642D01*
X0203362Y0352352D01*
X0202320Y0351309D01*
X0200238Y0351309D01*
X0200238Y0356642D01*
X0198847Y0358033D01*
X0191523Y0358033D01*
X0193232Y0359742D01*
X0193715Y0360909D01*
X0193715Y0361472D01*
X0194083Y0361472D01*
X0195474Y0362864D01*
X0195474Y0363625D01*
X0205985Y0363625D01*
X0206609Y0363002D01*
X0207502Y0362109D01*
X0208668Y0361625D01*
X0212472Y0361625D01*
X0212472Y0361517D01*
X0213864Y0360126D01*
X0221736Y0360126D01*
X0223128Y0361517D01*
X0223128Y0361885D01*
X0225225Y0361885D01*
X0225609Y0361502D01*
X0225609Y0361502D01*
X0226502Y0360609D01*
X0227668Y0360125D01*
X0227833Y0360125D01*
X0229005Y0358953D01*
X0238847Y0358953D01*
X0240238Y0360344D01*
X0240238Y0365748D01*
X0242615Y0368125D01*
X0269485Y0368125D01*
X0286809Y0350801D01*
X0287976Y0350318D01*
X0292640Y0350318D01*
X0294005Y0348953D01*
X0303282Y0348953D01*
X0298976Y0344647D01*
X0294005Y0344647D01*
X0292614Y0343256D01*
X0292614Y0336958D01*
X0294005Y0335567D01*
X0303847Y0335567D01*
X0305238Y0336958D01*
X0305238Y0341929D01*
X0309173Y0345864D01*
X0310066Y0346758D01*
X0310550Y0347924D01*
X0310550Y0348953D01*
X0319595Y0348953D01*
X0320876Y0350234D01*
X0323125Y0347985D01*
X0323125Y0338115D01*
X0316985Y0331975D01*
X0293615Y0331975D01*
X0281098Y0344491D01*
X0279932Y0344975D01*
X0243548Y0344975D01*
X0240238Y0348285D01*
X0240238Y0352125D01*
X0243613Y0352125D01*
X0243937Y0352260D01*
X0243937Y0350390D01*
X0249391Y0350390D01*
X0249391Y0349824D01*
X0249957Y0349824D01*
X0249957Y0350390D01*
X0255411Y0350390D01*
X0255411Y0352509D01*
X0255288Y0352967D01*
X0255051Y0353378D01*
X0254716Y0353713D01*
X0254306Y0353950D01*
X0253848Y0354072D01*
X0249957Y0354072D01*
X0249957Y0350390D01*
X0249391Y0350390D01*
X0249391Y0354072D01*
X0246243Y0354072D01*
X0251124Y0358953D01*
X0254595Y0358953D01*
X0255986Y0360344D01*
X0255986Y0366642D01*
X0254595Y0368033D01*
X0244753Y0368033D01*
X0243362Y0366642D01*
X0243362Y0360344D01*
X0243449Y0360257D01*
X0241666Y0358475D01*
X0222668Y0358475D01*
X0221502Y0357991D01*
X0220609Y0357098D01*
X0219109Y0355598D01*
X0218625Y0354432D01*
X0218625Y0339115D01*
X0214985Y0335475D01*
X0203460Y0335475D01*
X0200238Y0338697D01*
X0200238Y0343256D01*
X0198847Y0344647D01*
X0189005Y0344647D01*
X0187614Y0343256D01*
X0187614Y0336958D01*
X0189005Y0335567D01*
X0194388Y0335567D01*
X0199454Y0330502D01*
X0200347Y0329609D01*
X0201514Y0329125D01*
X0216932Y0329125D01*
X0218098Y0329609D01*
X0223598Y0335109D01*
X0224491Y0336002D01*
X0224975Y0337168D01*
X0224975Y0352125D01*
X0227614Y0352125D01*
X0227614Y0346958D01*
X0229005Y0345567D01*
X0233976Y0345567D01*
X0239542Y0340002D01*
X0240435Y0339109D01*
X0241602Y0338625D01*
X0277985Y0338625D01*
X0289609Y0327002D01*
X0290502Y0326109D01*
X0291668Y0325625D01*
X0318932Y0325625D01*
X0320098Y0326109D01*
X0328098Y0334109D01*
X0328991Y0335002D01*
X0329475Y0336168D01*
X0329475Y0349932D01*
X0328991Y0351098D01*
X0324491Y0355598D01*
X0323598Y0356491D01*
X0322432Y0356975D01*
X0320653Y0356975D01*
X0319595Y0358033D01*
X0312847Y0358033D01*
X0312991Y0358178D01*
X0313475Y0359345D01*
X0313475Y0383932D01*
X0312991Y0385098D01*
X0299986Y0398104D01*
X0299986Y0404142D01*
X0298595Y0405533D01*
X0288753Y0405533D01*
X0287362Y0404142D01*
X0287362Y0397844D01*
X0288753Y0396453D01*
X0292657Y0396453D01*
X0297538Y0391572D01*
X0293957Y0391572D01*
X0293957Y0387890D01*
X0299411Y0387890D01*
X0299411Y0389699D01*
X0307125Y0381985D01*
X0307125Y0361291D01*
X0304683Y0358849D01*
X0304200Y0357682D01*
X0304200Y0357680D01*
X0303847Y0358033D01*
X0302101Y0358033D01*
X0302101Y0358611D01*
X0302598Y0359109D01*
X0303491Y0360002D01*
X0303975Y0361168D01*
X0303975Y0361472D01*
X0304083Y0361472D01*
X0305474Y0362864D01*
X0305474Y0370736D01*
X0304083Y0372128D01*
X0296997Y0372128D01*
X0296303Y0371433D01*
X0295856Y0371553D01*
X0293539Y0371553D01*
X0293539Y0367280D01*
X0292580Y0367280D01*
X0292580Y0371553D01*
X0290264Y0371553D01*
X0289806Y0371430D01*
X0289396Y0371193D01*
X0289060Y0370858D01*
X0288823Y0370448D01*
X0288701Y0369990D01*
X0288701Y0367280D01*
X0292580Y0367280D01*
X0292580Y0366320D01*
X0293539Y0366320D01*
X0293539Y0362047D01*
X0295856Y0362047D01*
X0296303Y0362167D01*
X0296490Y0361980D01*
X0296235Y0361724D01*
X0295751Y0360557D01*
X0295751Y0358033D01*
X0294005Y0358033D01*
X0292640Y0356668D01*
X0289922Y0356668D01*
X0272598Y0373991D01*
X0271432Y0374475D01*
X0262457Y0374475D01*
X0262275Y0374914D01*
X0262275Y0376642D01*
X0265391Y0376642D01*
X0265391Y0380324D01*
X0265957Y0380324D01*
X0265957Y0380890D01*
X0271411Y0380890D01*
X0271411Y0383009D01*
X0271288Y0383467D01*
X0271051Y0383878D01*
X0270716Y0384213D01*
X0270306Y0384450D01*
X0269848Y0384572D01*
X0265957Y0384572D01*
X0265957Y0380890D01*
X0265391Y0380890D01*
X0265391Y0384572D01*
X0262275Y0384572D01*
X0262275Y0384686D01*
X0262475Y0385168D01*
X0262475Y0386432D01*
X0261991Y0387598D01*
X0256238Y0393352D01*
X0256238Y0397142D01*
X0254847Y0398533D01*
X0253101Y0398533D01*
X0253101Y0402084D01*
X0256673Y0405656D01*
X0257011Y0406472D01*
X0259083Y0406472D01*
X0260474Y0407864D01*
X0260474Y0408625D01*
X0274751Y0408625D01*
X0274751Y0405533D01*
X0273005Y0405533D01*
X0271614Y0404142D01*
X0271614Y0397844D01*
X0273005Y0396453D01*
X0282847Y0396453D01*
X0284238Y0397844D01*
X0284238Y0404142D01*
X0282847Y0405533D01*
X0281101Y0405533D01*
X0281101Y0408972D01*
X0282603Y0408972D01*
X0283297Y0409667D01*
X0283744Y0409547D01*
X0286061Y0409547D01*
X0286061Y0413820D01*
X0287020Y0413820D01*
X0287020Y0409547D01*
X0289336Y0409547D01*
X0289794Y0409670D01*
X0290204Y0409907D01*
X0290540Y0410242D01*
X0290777Y0410652D01*
X0290899Y0411110D01*
X0290899Y0413820D01*
X0287020Y0413820D01*
X0287020Y0414780D01*
X0286061Y0414780D01*
X0286061Y0419053D01*
X0283744Y0419053D01*
X0283297Y0418933D01*
X0282603Y0419628D01*
X0275517Y0419628D01*
X0274126Y0418236D01*
X0274126Y0414975D01*
X0260474Y0414975D01*
X0260474Y0415736D01*
X0259083Y0417128D01*
X0251997Y0417128D01*
X0251303Y0416433D01*
X0250856Y0416553D01*
X0248539Y0416553D01*
X0248539Y0412280D01*
X0247580Y0412280D01*
X0247580Y0416553D01*
X0245264Y0416553D01*
X0244806Y0416430D01*
X0244396Y0416193D01*
X0244060Y0415858D01*
X0243823Y0415448D01*
X0243701Y0414990D01*
X0243701Y0412280D01*
X0247580Y0412280D01*
X0247580Y0411320D01*
X0248539Y0411320D01*
X0248539Y0407047D01*
X0249084Y0407047D01*
X0247235Y0405198D01*
X0246751Y0404031D01*
X0246751Y0398533D01*
X0245005Y0398533D01*
X0243614Y0397142D01*
X0243614Y0390844D01*
X0245005Y0389453D01*
X0251157Y0389453D01*
X0256325Y0384285D01*
X0256325Y0375315D01*
X0255485Y0374475D01*
X0240668Y0374475D01*
X0239502Y0373991D01*
X0238609Y0373098D01*
X0233543Y0368033D01*
X0229005Y0368033D01*
X0228531Y0367559D01*
X0228339Y0367751D01*
X0227172Y0368235D01*
X0223128Y0368235D01*
X0223128Y0368603D01*
X0222433Y0369297D01*
X0222553Y0369744D01*
X0222553Y0372061D01*
X0218280Y0372061D01*
X0218280Y0373020D01*
X0222553Y0373020D01*
X0222553Y0375336D01*
X0222430Y0375794D01*
X0222193Y0376204D01*
X0221858Y0376540D01*
X0221448Y0376777D01*
X0220990Y0376899D01*
X0218280Y0376899D01*
X0218280Y0373020D01*
X0217320Y0373020D01*
X0217320Y0372061D01*
X0213047Y0372061D01*
X0213047Y0369744D01*
X0213167Y0369297D01*
X0212472Y0368603D01*
X0212472Y0367975D01*
X0210615Y0367975D01*
X0209098Y0369491D01*
X0207932Y0369975D01*
X0198205Y0369975D01*
X0200098Y0371868D01*
X0200991Y0372761D01*
X0201475Y0373928D01*
X0201475Y0387985D01*
X0207443Y0393953D01*
X0214282Y0393953D01*
X0209976Y0389647D01*
X0205005Y0389647D01*
X0203614Y0388256D01*
X0203614Y0381958D01*
X0205005Y0380567D01*
X0214847Y0380567D01*
X0216238Y0381958D01*
X0216238Y0386929D01*
X0220173Y0390864D01*
X0221066Y0391758D01*
X0221550Y0392924D01*
X0221550Y0393953D01*
X0225724Y0393953D01*
X0228376Y0391301D01*
X0229542Y0390818D01*
X0234225Y0390818D01*
X0243614Y0381429D01*
X0243614Y0377458D01*
X0245005Y0376067D01*
X0254847Y0376067D01*
X0256238Y0377458D01*
X0256238Y0383756D01*
X0254847Y0385147D01*
X0248876Y0385147D01*
X0237991Y0396031D01*
X0237991Y0396031D01*
X0237098Y0396925D01*
X0235932Y0397408D01*
X0234668Y0397408D01*
X0234089Y0397168D01*
X0231986Y0397168D01*
X0231986Y0401642D01*
X0231782Y0401846D01*
X0235152Y0401846D01*
X0236319Y0402329D01*
X0237212Y0403222D01*
X0239491Y0405502D01*
X0239975Y0406668D01*
X0239975Y0415485D01*
X0242615Y0418125D01*
X0250432Y0418125D01*
X0251598Y0418609D01*
X0253598Y0420609D01*
X0254491Y0421502D01*
X0254975Y0422668D01*
X0254975Y0426303D01*
X0255042Y0426264D01*
X0255500Y0426142D01*
X0259391Y0426142D01*
X0259391Y0429824D01*
X0259957Y0429824D01*
X0259957Y0430390D01*
X0265411Y0430390D01*
X0265411Y0432509D01*
X0265288Y0432967D01*
X0265051Y0433378D01*
X0264716Y0433713D01*
X0264306Y0433950D01*
X0263848Y0434072D01*
X0259957Y0434072D01*
X0259957Y0430390D01*
X0259391Y0430390D01*
X0259391Y0434072D01*
X0257062Y0434072D01*
X0261943Y0438953D01*
X0264595Y0438953D01*
X0265986Y0440344D01*
X0265986Y0446642D01*
X0264595Y0448033D01*
X0254975Y0448033D01*
X0254975Y0466648D01*
X0255000Y0466642D01*
X0258891Y0466642D01*
X0258891Y0470324D01*
X0259457Y0470324D01*
X0259457Y0470890D01*
X0264911Y0470890D01*
X0264911Y0473009D01*
X0264788Y0473467D01*
X0264551Y0473878D01*
X0264216Y0474213D01*
X0263806Y0474450D01*
X0263348Y0474572D01*
X0259457Y0474572D01*
X0259457Y0470890D01*
X0258891Y0470890D01*
X0258891Y0474572D01*
X0255000Y0474572D01*
X0254975Y0474566D01*
X0254975Y0475485D01*
X0258943Y0479453D01*
X0264095Y0479453D01*
X0265486Y0480844D01*
X0265486Y0487142D01*
X0264095Y0488533D01*
X0254253Y0488533D01*
X0252862Y0487142D01*
X0252862Y0482352D01*
X0249109Y0478598D01*
X0248625Y0477432D01*
X0248625Y0474869D01*
X0248347Y0475147D01*
X0238505Y0475147D01*
X0237114Y0473756D01*
X0237114Y0467458D01*
X0238505Y0466067D01*
X0248347Y0466067D01*
X0248625Y0466345D01*
X0248625Y0448033D01*
X0239005Y0448033D01*
X0238901Y0447929D01*
X0235474Y0451356D01*
X0235474Y0455736D01*
X0234083Y0457128D01*
X0233715Y0457128D01*
X0233715Y0477725D01*
X0236808Y0480818D01*
X0237140Y0480818D01*
X0238505Y0479453D01*
X0248347Y0479453D01*
X0249738Y0480844D01*
X0249738Y0487142D01*
X0248347Y0488533D01*
X0246601Y0488533D01*
X0246601Y0493126D01*
X0254236Y0493126D01*
X0255628Y0494517D01*
X0255628Y0501603D01*
X0254933Y0502297D01*
X0255053Y0502744D01*
X0255053Y0505061D01*
X0250780Y0505061D01*
X0250780Y0506020D01*
X0255053Y0506020D01*
X0255053Y0508336D01*
X0254930Y0508794D01*
X0254693Y0509204D01*
X0254358Y0509540D01*
X0253948Y0509777D01*
X0253490Y0509899D01*
X0250780Y0509899D01*
X0250780Y0506020D01*
X0249820Y0506020D01*
X0249820Y0505061D01*
X0245547Y0505061D01*
X0245547Y0502744D01*
X0245667Y0502297D01*
X0244972Y0501603D01*
X0244972Y0501046D01*
X0244261Y0500751D01*
X0240735Y0497224D01*
X0240251Y0496057D01*
X0240251Y0488533D01*
X0238505Y0488533D01*
X0237140Y0487168D01*
X0234861Y0487168D01*
X0233695Y0486684D01*
X0227849Y0480839D01*
X0227365Y0479672D01*
X0227365Y0457128D01*
X0226997Y0457128D01*
X0226303Y0456433D01*
X0225856Y0456553D01*
X0223539Y0456553D01*
X0223539Y0452280D01*
X0222580Y0452280D01*
X0222580Y0456553D01*
X0220264Y0456553D01*
X0219806Y0456430D01*
X0219396Y0456193D01*
X0219060Y0455858D01*
X0218823Y0455448D01*
X0218701Y0454990D01*
X0218701Y0452280D01*
X0222580Y0452280D01*
X0222580Y0451320D01*
X0223539Y0451320D01*
X0223539Y0447047D01*
X0225856Y0447047D01*
X0226303Y0447167D01*
X0226997Y0446472D01*
X0231378Y0446472D01*
X0234357Y0443493D01*
X0229002Y0438137D01*
X0228109Y0437244D01*
X0227625Y0436077D01*
X0227625Y0418615D01*
X0226479Y0417469D01*
X0226553Y0417744D01*
X0226553Y0420061D01*
X0222280Y0420061D01*
X0222280Y0421020D01*
X0226553Y0421020D01*
X0226553Y0423336D01*
X0226430Y0423794D01*
X0226193Y0424204D01*
X0225858Y0424540D01*
X0225448Y0424777D01*
X0224990Y0424899D01*
X0222280Y0424899D01*
X0222280Y0421020D01*
X0221320Y0421020D01*
X0221320Y0420061D01*
X0217047Y0420061D01*
X0217047Y0417744D01*
X0217167Y0417297D01*
X0216472Y0416603D01*
X0216472Y0412836D01*
X0208128Y0404491D01*
X0207235Y0403598D01*
X0207000Y0403033D01*
X0205005Y0403033D01*
X0203614Y0401642D01*
X0203614Y0399104D01*
X0196502Y0391991D01*
X0195609Y0391098D01*
X0195125Y0389932D01*
X0195125Y0375875D01*
X0191378Y0372128D01*
X0186997Y0372128D01*
X0186303Y0371433D01*
X0185856Y0371553D01*
X0183539Y0371553D01*
X0183539Y0367280D01*
X0182580Y0367280D01*
X0182580Y0371553D01*
X0180264Y0371553D01*
X0179806Y0371430D01*
X0179396Y0371193D01*
X0179060Y0370858D01*
X0178823Y0370448D01*
X0178701Y0369990D01*
X0178701Y0367280D01*
X0182580Y0367280D01*
X0182580Y0366320D01*
X0183539Y0366320D01*
X0183539Y0362047D01*
X0185856Y0362047D01*
X0186303Y0362167D01*
X0186490Y0361980D01*
X0180695Y0356184D01*
X0179801Y0355291D01*
X0175479Y0350968D01*
X0174995Y0349802D01*
X0174995Y0317539D01*
X0175479Y0316372D01*
X0176372Y0315479D01*
X0176525Y0315325D01*
X0176156Y0315173D01*
X0172502Y0311518D01*
X0171609Y0310625D01*
X0171125Y0309458D01*
X0171125Y0282975D01*
X0158168Y0282975D01*
X0157002Y0282491D01*
X0156109Y0281598D01*
X0155625Y0280432D01*
X0155625Y0276797D01*
X0155558Y0276836D01*
X0155100Y0276958D01*
X0151209Y0276958D01*
X0151209Y0273276D01*
X0150643Y0273276D01*
X0150643Y0276958D01*
X0146752Y0276958D01*
X0146294Y0276836D01*
X0145884Y0276599D01*
X0145549Y0276263D01*
X0145312Y0275853D01*
X0145189Y0275395D01*
X0145189Y0273276D01*
X0150643Y0273276D01*
X0150643Y0272710D01*
X0145189Y0272710D01*
X0145189Y0270591D01*
X0145312Y0270133D01*
X0145549Y0269722D01*
X0145884Y0269387D01*
X0146294Y0269150D01*
X0146752Y0269028D01*
X0150643Y0269028D01*
X0150643Y0272710D01*
X0151209Y0272710D01*
X0151209Y0269028D01*
X0155100Y0269028D01*
X0155558Y0269150D01*
X0155625Y0269189D01*
X0155625Y0266850D01*
X0156109Y0265683D01*
X0157002Y0264790D01*
X0160362Y0261429D01*
X0160362Y0256458D01*
X0161753Y0255067D01*
X0163499Y0255067D01*
X0163499Y0250054D01*
X0163983Y0248887D01*
X0164876Y0247994D01*
X0166126Y0246744D01*
X0166126Y0242364D01*
X0167517Y0240972D01*
X0167885Y0240972D01*
X0167885Y0230728D01*
X0168368Y0229561D01*
X0169261Y0228668D01*
X0172614Y0225315D01*
X0172614Y0220344D01*
X0174005Y0218953D01*
X0178157Y0218953D01*
X0182463Y0214647D01*
X0174005Y0214647D01*
X0172724Y0213366D01*
X0165475Y0220615D01*
X0165475Y0241432D01*
X0164991Y0242598D01*
X0154101Y0253489D01*
X0154101Y0255067D01*
X0155847Y0255067D01*
X0157238Y0256458D01*
X0157238Y0262756D01*
X0155847Y0264147D01*
X0146005Y0264147D01*
X0144614Y0262756D01*
X0144614Y0256458D01*
X0146005Y0255067D01*
X0147751Y0255067D01*
X0147751Y0253236D01*
X0147625Y0252932D01*
X0147625Y0251668D01*
X0148109Y0250502D01*
X0149002Y0249609D01*
X0159125Y0239485D01*
X0159125Y0218668D01*
X0159609Y0217502D01*
X0169695Y0207416D01*
X0170861Y0206932D01*
X0172640Y0206932D01*
X0174005Y0205567D01*
X0180753Y0205567D01*
X0177661Y0202475D01*
X0177409Y0202475D01*
X0176570Y0202128D01*
X0171997Y0202128D01*
X0171303Y0201433D01*
X0170856Y0201553D01*
X0168539Y0201553D01*
X0168539Y0197280D01*
X0167580Y0197280D01*
X0167580Y0201553D01*
X0165264Y0201553D01*
X0164806Y0201430D01*
X0164396Y0201193D01*
X0164060Y0200858D01*
X0163823Y0200448D01*
X0163701Y0199990D01*
X0163701Y0197280D01*
X0167580Y0197280D01*
X0167580Y0196320D01*
X0168539Y0196320D01*
X0168539Y0192047D01*
X0170856Y0192047D01*
X0171303Y0192167D01*
X0171997Y0191472D01*
X0179083Y0191472D01*
X0180474Y0192864D01*
X0180474Y0196125D01*
X0206405Y0196125D01*
X0207572Y0196609D01*
X0208465Y0197502D01*
X0208547Y0197584D01*
X0208547Y0197039D01*
X0212820Y0197039D01*
X0212820Y0196080D01*
X0208547Y0196080D01*
X0208547Y0193764D01*
X0208670Y0193306D01*
X0208907Y0192896D01*
X0209242Y0192560D01*
X0209652Y0192323D01*
X0210110Y0192201D01*
X0212820Y0192201D01*
X0212820Y0196080D01*
X0213780Y0196080D01*
X0213780Y0197039D01*
X0218053Y0197039D01*
X0218053Y0199356D01*
X0217933Y0199803D01*
X0218628Y0200497D01*
X0218628Y0200865D01*
X0225567Y0200865D01*
X0225567Y0199005D01*
X0226932Y0197640D01*
X0226932Y0196361D01*
X0227416Y0195195D01*
X0232502Y0190109D01*
X0233668Y0189625D01*
X0297126Y0189625D01*
X0297126Y0185364D01*
X0298517Y0183972D01*
X0305603Y0183972D01*
X0306297Y0184667D01*
X0306744Y0184547D01*
X0309061Y0184547D01*
X0309061Y0188820D01*
X0310020Y0188820D01*
X0310020Y0184547D01*
X0312336Y0184547D01*
X0312794Y0184670D01*
X0313204Y0184907D01*
X0313540Y0185242D01*
X0313777Y0185652D01*
X0313899Y0186110D01*
X0313899Y0188820D01*
X0310020Y0188820D01*
X0310020Y0189780D01*
X0309061Y0189780D01*
X0309061Y0194053D01*
X0307543Y0194053D01*
X0317115Y0203625D01*
X0317983Y0203625D01*
X0317614Y0203256D01*
X0317614Y0196958D01*
X0319005Y0195567D01*
X0320751Y0195567D01*
X0320751Y0184042D01*
X0321235Y0182876D01*
X0322128Y0181983D01*
X0325002Y0179109D01*
X0326168Y0178625D01*
X0357485Y0178625D01*
X0360625Y0175485D01*
X0360625Y0159975D01*
X0358405Y0159975D01*
X0357142Y0161238D01*
X0350844Y0161238D01*
X0349453Y0159847D01*
X0349453Y0150005D01*
X0350844Y0148614D01*
X0357142Y0148614D01*
X0358533Y0150005D01*
X0358533Y0153625D01*
X0364432Y0153625D01*
X0365598Y0154109D01*
X0366491Y0155002D01*
X0366975Y0156168D01*
X0366975Y0177432D01*
X0366491Y0178598D01*
X0361491Y0183598D01*
X0360598Y0184491D01*
X0359432Y0184975D01*
X0328115Y0184975D01*
X0327101Y0185989D01*
X0327101Y0195567D01*
X0328847Y0195567D01*
X0330238Y0196958D01*
X0330238Y0203256D01*
X0329869Y0203625D01*
X0330166Y0203625D01*
X0333362Y0200429D01*
X0333362Y0196958D01*
X0334753Y0195567D01*
X0344595Y0195567D01*
X0345960Y0196932D01*
X0350472Y0196932D01*
X0350472Y0196497D01*
X0351167Y0195803D01*
X0351047Y0195356D01*
X0351047Y0193039D01*
X0355320Y0193039D01*
X0355320Y0192080D01*
X0351047Y0192080D01*
X0351047Y0189764D01*
X0351170Y0189306D01*
X0351407Y0188896D01*
X0351742Y0188560D01*
X0352152Y0188323D01*
X0352610Y0188201D01*
X0355320Y0188201D01*
X0355320Y0192080D01*
X0356280Y0192080D01*
X0356280Y0193039D01*
X0360553Y0193039D01*
X0360553Y0195356D01*
X0360433Y0195803D01*
X0361128Y0196497D01*
X0361128Y0196865D01*
X0362245Y0196865D01*
X0367125Y0191985D01*
X0367125Y0186168D01*
X0367609Y0185002D01*
X0368502Y0184109D01*
X0384310Y0168300D01*
X0363985Y0147975D01*
X0347615Y0147975D01*
X0345147Y0150443D01*
X0345147Y0159847D01*
X0343756Y0161238D01*
X0337458Y0161238D01*
X0336067Y0159847D01*
X0336067Y0157715D01*
X0335128Y0157715D01*
X0335128Y0158083D01*
X0333736Y0159474D01*
X0325864Y0159474D01*
X0324519Y0158129D01*
X0323388Y0157661D01*
X0315902Y0150175D01*
X0304198Y0150175D01*
X0302757Y0151615D01*
X0303147Y0152005D01*
X0303147Y0161847D01*
X0301756Y0163238D01*
X0295458Y0163238D01*
X0294067Y0161847D01*
X0294067Y0160101D01*
X0282610Y0160101D01*
X0281736Y0160974D01*
X0273864Y0160974D01*
X0272472Y0159583D01*
X0272472Y0159215D01*
X0256168Y0159215D01*
X0255002Y0158732D01*
X0254109Y0157839D01*
X0253625Y0156672D01*
X0253625Y0147398D01*
X0240909Y0160114D01*
X0246642Y0160114D01*
X0247527Y0160999D01*
X0290739Y0160999D01*
X0291905Y0161483D01*
X0292799Y0162376D01*
X0296785Y0166362D01*
X0301756Y0166362D01*
X0303147Y0167753D01*
X0303147Y0177595D01*
X0301756Y0178986D01*
X0295458Y0178986D01*
X0294067Y0177595D01*
X0294067Y0172624D01*
X0292294Y0170851D01*
X0292775Y0172012D01*
X0292775Y0181588D01*
X0291865Y0183784D01*
X0290184Y0185465D01*
X0287988Y0186375D01*
X0285612Y0186375D01*
X0283416Y0185465D01*
X0281800Y0183850D01*
X0280184Y0185465D01*
X0277988Y0186375D01*
X0275612Y0186375D01*
X0273416Y0185465D01*
X0271800Y0183850D01*
X0270184Y0185465D01*
X0267988Y0186375D01*
X0265612Y0186375D01*
X0263416Y0185465D01*
X0261735Y0183784D01*
X0260825Y0181588D01*
X0260825Y0172012D01*
X0261735Y0169816D01*
X0263416Y0168135D01*
X0265313Y0167349D01*
X0248033Y0167349D01*
X0248033Y0171347D01*
X0246642Y0172738D01*
X0240344Y0172738D01*
X0238953Y0171347D01*
X0238953Y0162070D01*
X0234647Y0166376D01*
X0234647Y0171347D01*
X0233256Y0172738D01*
X0226958Y0172738D01*
X0225567Y0171347D01*
X0225567Y0169601D01*
X0223554Y0169601D01*
X0222387Y0169117D01*
X0221494Y0168224D01*
X0219244Y0165974D01*
X0214864Y0165974D01*
X0213472Y0164583D01*
X0213472Y0164215D01*
X0213409Y0164215D01*
X0212242Y0163732D01*
X0211349Y0162839D01*
X0207609Y0159098D01*
X0207125Y0157932D01*
X0207125Y0152115D01*
X0202985Y0147975D01*
X0194615Y0147975D01*
X0187647Y0154943D01*
X0187647Y0162847D01*
X0186256Y0164238D01*
X0179958Y0164238D01*
X0178567Y0162847D01*
X0178567Y0160715D01*
X0176128Y0160715D01*
X0176128Y0161083D01*
X0174736Y0162474D01*
X0166864Y0162474D01*
X0165472Y0161083D01*
X0165472Y0160715D01*
X0162909Y0160715D01*
X0161742Y0160232D01*
X0151485Y0149975D01*
X0126115Y0149975D01*
X0125523Y0150567D01*
X0133847Y0150567D01*
X0135238Y0151958D01*
X0135238Y0156929D01*
X0136934Y0158625D01*
X0139544Y0158625D01*
X0139297Y0158378D01*
X0139060Y0157967D01*
X0138937Y0157509D01*
X0138937Y0155390D01*
X0144391Y0155390D01*
X0144391Y0154824D01*
X0144957Y0154824D01*
X0144957Y0155390D01*
X0150411Y0155390D01*
X0150411Y0157509D01*
X0150288Y0157967D01*
X0150051Y0158378D01*
X0149804Y0158625D01*
X0155432Y0158625D01*
X0156598Y0159109D01*
X0167989Y0170499D01*
X0178567Y0170499D01*
X0178567Y0168753D01*
X0179958Y0167362D01*
X0186256Y0167362D01*
X0187647Y0168753D01*
X0187647Y0178595D01*
X0186256Y0179986D01*
X0179958Y0179986D01*
X0178567Y0178595D01*
X0178567Y0176849D01*
X0166042Y0176849D01*
X0164876Y0176365D01*
X0153485Y0164975D01*
X0150617Y0164975D01*
X0150986Y0165344D01*
X0150986Y0171642D01*
X0149595Y0173033D01*
X0147849Y0173033D01*
X0147849Y0181472D01*
X0154083Y0181472D01*
X0155474Y0182864D01*
X0155474Y0190736D01*
X0154083Y0192128D01*
X0153715Y0192128D01*
X0153715Y0198225D01*
X0155040Y0199550D01*
X0155745Y0199550D01*
X0157490Y0200273D01*
X0158827Y0201610D01*
X0159550Y0203355D01*
X0159550Y0205245D01*
X0158827Y0206990D01*
X0157490Y0208327D01*
X0155745Y0209050D01*
X0153855Y0209050D01*
X0152110Y0208327D01*
X0150773Y0206990D01*
X0150050Y0205245D01*
X0150050Y0203540D01*
X0147849Y0201339D01*
X0147365Y0200172D01*
X0147365Y0192128D01*
X0146997Y0192128D01*
X0146800Y0191930D01*
X0146603Y0192128D01*
X0139517Y0192128D01*
X0138126Y0190736D01*
X0138126Y0182864D01*
X0139517Y0181472D01*
X0141499Y0181472D01*
X0141499Y0173033D01*
X0139753Y0173033D01*
X0138362Y0171642D01*
X0138362Y0165344D01*
X0138731Y0164975D01*
X0134987Y0164975D01*
X0134785Y0164891D01*
X0135238Y0165344D01*
X0135238Y0171642D01*
X0133847Y0173033D01*
X0124005Y0173033D01*
X0122640Y0171668D01*
X0118628Y0171668D01*
X0118628Y0172083D01*
X0117236Y0173474D01*
X0109364Y0173474D01*
X0107972Y0172083D01*
X0107972Y0164997D01*
X0108667Y0164303D01*
X0108547Y0163856D01*
X0108547Y0161539D01*
X0112820Y0161539D01*
X0112820Y0160580D01*
X0108547Y0160580D01*
X0108547Y0158264D01*
X0108670Y0157806D01*
X0108907Y0157396D01*
X0109242Y0157060D01*
X0109652Y0156823D01*
X0110110Y0156701D01*
X0112820Y0156701D01*
X0112820Y0160580D01*
X0113780Y0160580D01*
X0113780Y0161539D01*
X0118053Y0161539D01*
X0118053Y0163856D01*
X0117933Y0164303D01*
X0118628Y0164997D01*
X0118628Y0165318D01*
X0121261Y0165318D01*
X0119828Y0163885D01*
X0118935Y0162992D01*
X0118452Y0161825D01*
X0118452Y0149342D01*
X0118935Y0148175D01*
X0119828Y0147282D01*
X0119828Y0147282D01*
X0122109Y0145002D01*
X0123002Y0144109D01*
X0124168Y0143625D01*
X0153432Y0143625D01*
X0154598Y0144109D01*
X0164855Y0154365D01*
X0165472Y0154365D01*
X0165472Y0153997D01*
X0166167Y0153303D01*
X0166047Y0152856D01*
X0166047Y0150539D01*
X0170320Y0150539D01*
X0170320Y0149580D01*
X0166047Y0149580D01*
X0166047Y0147264D01*
X0166170Y0146806D01*
X0166407Y0146396D01*
X0166742Y0146060D01*
X0167152Y0145823D01*
X0167610Y0145701D01*
X0170320Y0145701D01*
X0170320Y0149580D01*
X0171280Y0149580D01*
X0171280Y0150539D01*
X0175553Y0150539D01*
X0175553Y0152856D01*
X0175433Y0153303D01*
X0176128Y0153997D01*
X0176128Y0154365D01*
X0178567Y0154365D01*
X0178567Y0153005D01*
X0179958Y0151614D01*
X0181996Y0151614D01*
X0190609Y0143002D01*
X0191502Y0142109D01*
X0192668Y0141625D01*
X0204932Y0141625D01*
X0206098Y0142109D01*
X0212991Y0149002D01*
X0213475Y0150168D01*
X0213475Y0155985D01*
X0214121Y0156631D01*
X0214047Y0156356D01*
X0214047Y0154039D01*
X0218320Y0154039D01*
X0218320Y0153080D01*
X0214047Y0153080D01*
X0214047Y0150764D01*
X0214170Y0150306D01*
X0214407Y0149896D01*
X0214742Y0149560D01*
X0215152Y0149323D01*
X0215610Y0149201D01*
X0218320Y0149201D01*
X0218320Y0153080D01*
X0219280Y0153080D01*
X0219280Y0154039D01*
X0223553Y0154039D01*
X0223553Y0156356D01*
X0223433Y0156803D01*
X0224128Y0157497D01*
X0224128Y0161878D01*
X0225501Y0163251D01*
X0225567Y0163251D01*
X0225567Y0161505D01*
X0226958Y0160114D01*
X0231929Y0160114D01*
X0253625Y0138418D01*
X0253625Y0114226D01*
X0252243Y0112845D01*
X0251467Y0110970D01*
X0251248Y0111643D01*
X0250905Y0112316D01*
X0250461Y0112927D01*
X0249927Y0113461D01*
X0249316Y0113905D01*
X0248643Y0114248D01*
X0247924Y0114482D01*
X0247178Y0114600D01*
X0247000Y0114600D01*
X0247000Y0107000D01*
X0246600Y0107000D01*
X0246600Y0114600D01*
X0246422Y0114600D01*
X0245676Y0114482D01*
X0244957Y0114248D01*
X0244284Y0113905D01*
X0243673Y0113461D01*
X0243139Y0112927D01*
X0242695Y0112316D01*
X0242352Y0111643D01*
X0242118Y0110924D01*
X0242000Y0110178D01*
X0242000Y0107000D01*
X0246600Y0107000D01*
X0246600Y0106600D01*
X0247000Y0106600D01*
X0247000Y0099000D01*
X0247178Y0099000D01*
X0247924Y0099118D01*
X0248643Y0099352D01*
X0249316Y0099695D01*
X0249927Y0100139D01*
X0250461Y0100673D01*
X0250905Y0101284D01*
X0251248Y0101957D01*
X0251467Y0102630D01*
X0252243Y0100755D01*
X0253755Y0099243D01*
X0255731Y0098425D01*
X0257896Y0098436D02*
X0555119Y0098436D01*
X0554276Y0100035D02*
X0260636Y0100035D01*
X0261720Y0101633D02*
X0553433Y0101633D01*
X0552591Y0103232D02*
X0262175Y0103232D01*
X0262175Y0104830D02*
X0551748Y0104830D01*
X0550905Y0106429D02*
X0262175Y0106429D01*
X0262175Y0108027D02*
X0550062Y0108027D01*
X0549219Y0109626D02*
X0262175Y0109626D01*
X0262028Y0111224D02*
X0548376Y0111224D01*
X0547533Y0112823D02*
X0261366Y0112823D01*
X0259975Y0114421D02*
X0546691Y0114421D01*
X0545848Y0116020D02*
X0259975Y0116020D01*
X0259975Y0117618D02*
X0545005Y0117618D01*
X0544162Y0119217D02*
X0259975Y0119217D01*
X0259975Y0120815D02*
X0543319Y0120815D01*
X0542476Y0122414D02*
X0259975Y0122414D01*
X0259975Y0124012D02*
X0541633Y0124012D01*
X0540791Y0125611D02*
X0259975Y0125611D01*
X0259975Y0127209D02*
X0539948Y0127209D01*
X0539105Y0128808D02*
X0259975Y0128808D01*
X0259975Y0130406D02*
X0538262Y0130406D01*
X0537419Y0132005D02*
X0259975Y0132005D01*
X0259975Y0133603D02*
X0536576Y0133603D01*
X0535734Y0135202D02*
X0259975Y0135202D01*
X0259975Y0136800D02*
X0534891Y0136800D01*
X0534048Y0138399D02*
X0259975Y0138399D01*
X0259975Y0139997D02*
X0533205Y0139997D01*
X0532362Y0141596D02*
X0259975Y0141596D01*
X0259975Y0143195D02*
X0325608Y0143195D01*
X0325047Y0144793D02*
X0320066Y0144793D01*
X0321664Y0146392D02*
X0325047Y0146392D01*
X0325047Y0147990D02*
X0323263Y0147990D01*
X0324861Y0149589D02*
X0325047Y0149589D01*
X0325300Y0154800D02*
X0329540Y0154800D01*
X0329800Y0154540D01*
X0340221Y0154540D01*
X0340607Y0154926D01*
X0340607Y0150493D01*
X0346300Y0144800D01*
X0365300Y0144800D01*
X0388800Y0168300D01*
X0370300Y0186800D01*
X0370300Y0193300D01*
X0363560Y0200040D01*
X0355800Y0200040D01*
X0355733Y0200107D01*
X0339674Y0200107D01*
X0338174Y0200107D01*
X0331481Y0206800D01*
X0315800Y0206800D01*
X0302060Y0193060D01*
X0302060Y0189300D01*
X0302060Y0192300D01*
X0301560Y0192800D01*
X0234300Y0192800D01*
X0230107Y0196993D01*
X0230107Y0203926D01*
X0229993Y0204040D01*
X0213300Y0204040D01*
X0211741Y0202481D01*
X0208955Y0202481D01*
X0205773Y0199300D01*
X0178040Y0199300D01*
X0175540Y0196800D01*
X0176476Y0196800D01*
X0186800Y0207124D01*
X0186800Y0214800D01*
X0178926Y0222674D01*
X0178926Y0223493D01*
X0171060Y0231359D01*
X0171060Y0246300D01*
X0166674Y0250686D01*
X0166674Y0259607D01*
X0158800Y0267481D01*
X0158800Y0279800D01*
X0174300Y0279800D01*
X0174300Y0308827D01*
X0177955Y0312481D01*
X0180741Y0312481D01*
X0182300Y0314040D01*
X0178170Y0318170D01*
X0178170Y0349170D01*
X0182493Y0353493D01*
X0193926Y0353493D01*
X0192483Y0358994D02*
X0228965Y0358994D01*
X0226541Y0360592D02*
X0222202Y0360592D01*
X0220905Y0357395D02*
X0215233Y0357395D01*
X0215986Y0355797D02*
X0219307Y0355797D01*
X0218625Y0354198D02*
X0215986Y0354198D01*
X0215986Y0352599D02*
X0218625Y0352599D01*
X0218625Y0351001D02*
X0215986Y0351001D01*
X0215044Y0349402D02*
X0218625Y0349402D01*
X0218625Y0347804D02*
X0207794Y0347804D01*
X0206195Y0346205D02*
X0218625Y0346205D01*
X0218625Y0344607D02*
X0198887Y0344607D01*
X0200238Y0343008D02*
X0204083Y0343008D01*
X0204060Y0342967D02*
X0203937Y0342509D01*
X0203937Y0340390D01*
X0209391Y0340390D01*
X0209391Y0339824D01*
X0209957Y0339824D01*
X0209957Y0340390D01*
X0215411Y0340390D01*
X0215411Y0342509D01*
X0215288Y0342967D01*
X0215051Y0343378D01*
X0214716Y0343713D01*
X0214306Y0343950D01*
X0213848Y0344072D01*
X0209957Y0344072D01*
X0209957Y0340390D01*
X0209391Y0340390D01*
X0209391Y0344072D01*
X0205500Y0344072D01*
X0205042Y0343950D01*
X0204632Y0343713D01*
X0204297Y0343378D01*
X0204060Y0342967D01*
X0203937Y0341410D02*
X0200238Y0341410D01*
X0200238Y0339811D02*
X0203937Y0339811D01*
X0203937Y0339824D02*
X0203937Y0337705D01*
X0204060Y0337247D01*
X0204297Y0336837D01*
X0204632Y0336501D01*
X0205042Y0336264D01*
X0205500Y0336142D01*
X0209391Y0336142D01*
X0209391Y0339824D01*
X0203937Y0339824D01*
X0203937Y0338213D02*
X0200722Y0338213D01*
X0202321Y0336614D02*
X0204519Y0336614D01*
X0209391Y0336614D02*
X0209957Y0336614D01*
X0209957Y0336142D02*
X0213848Y0336142D01*
X0214306Y0336264D01*
X0214716Y0336501D01*
X0215051Y0336837D01*
X0215288Y0337247D01*
X0215411Y0337705D01*
X0215411Y0339824D01*
X0209957Y0339824D01*
X0209957Y0336142D01*
X0209957Y0338213D02*
X0209391Y0338213D01*
X0209391Y0339811D02*
X0209957Y0339811D01*
X0209957Y0341410D02*
X0209391Y0341410D01*
X0209391Y0343008D02*
X0209957Y0343008D01*
X0215265Y0343008D02*
X0218625Y0343008D01*
X0218625Y0341410D02*
X0215411Y0341410D01*
X0215411Y0339811D02*
X0218625Y0339811D01*
X0217723Y0338213D02*
X0215411Y0338213D01*
X0214829Y0336614D02*
X0216125Y0336614D01*
X0216300Y0332300D02*
X0221800Y0337800D01*
X0221800Y0353800D01*
X0223300Y0355300D01*
X0242981Y0355300D01*
X0249674Y0361993D01*
X0249674Y0363493D01*
X0249566Y0357395D02*
X0280215Y0357395D01*
X0278617Y0358994D02*
X0254635Y0358994D01*
X0255986Y0360592D02*
X0277018Y0360592D01*
X0275420Y0362191D02*
X0255986Y0362191D01*
X0255986Y0363789D02*
X0273821Y0363789D01*
X0272223Y0365388D02*
X0255986Y0365388D01*
X0255642Y0366986D02*
X0270624Y0366986D01*
X0270800Y0371300D02*
X0288607Y0353493D01*
X0298926Y0353493D01*
X0298926Y0359926D01*
X0300800Y0361800D01*
X0300800Y0366540D01*
X0300540Y0366800D01*
X0305474Y0366986D02*
X0307125Y0366986D01*
X0307125Y0365388D02*
X0305474Y0365388D01*
X0305474Y0363789D02*
X0307125Y0363789D01*
X0307125Y0362191D02*
X0304801Y0362191D01*
X0303736Y0360592D02*
X0306426Y0360592D01*
X0304828Y0358994D02*
X0302483Y0358994D01*
X0307375Y0357051D02*
X0310300Y0359976D01*
X0310300Y0383300D01*
X0293674Y0399926D01*
X0293674Y0400993D01*
X0293351Y0395759D02*
X0271986Y0395759D01*
X0271986Y0397142D02*
X0271986Y0392171D01*
X0272507Y0391649D01*
X0273005Y0392147D01*
X0282847Y0392147D01*
X0284238Y0390756D01*
X0284238Y0384458D01*
X0282847Y0383067D01*
X0273005Y0383067D01*
X0271640Y0384432D01*
X0271428Y0384432D01*
X0270261Y0384916D01*
X0269368Y0385809D01*
X0269368Y0385809D01*
X0265724Y0389453D01*
X0260753Y0389453D01*
X0259362Y0390844D01*
X0259362Y0397142D01*
X0260753Y0398533D01*
X0270595Y0398533D01*
X0271986Y0397142D01*
X0272100Y0397358D02*
X0271770Y0397358D01*
X0271614Y0398956D02*
X0253101Y0398956D01*
X0253101Y0400555D02*
X0271614Y0400555D01*
X0271614Y0402153D02*
X0253170Y0402153D01*
X0254768Y0403752D02*
X0271614Y0403752D01*
X0272823Y0405350D02*
X0256367Y0405350D01*
X0253981Y0407455D02*
X0249926Y0403399D01*
X0249926Y0393993D01*
X0251107Y0393993D01*
X0259300Y0385800D01*
X0262475Y0386168D02*
X0269009Y0386168D01*
X0269858Y0384570D02*
X0271097Y0384570D01*
X0271411Y0382971D02*
X0306139Y0382971D01*
X0307125Y0381373D02*
X0271411Y0381373D01*
X0271411Y0380324D02*
X0265957Y0380324D01*
X0265957Y0376642D01*
X0269848Y0376642D01*
X0270306Y0376764D01*
X0270716Y0377001D01*
X0271051Y0377337D01*
X0271288Y0377747D01*
X0271411Y0378205D01*
X0271411Y0380324D01*
X0271411Y0379774D02*
X0307125Y0379774D01*
X0307125Y0378176D02*
X0271403Y0378176D01*
X0273210Y0373380D02*
X0307125Y0373380D01*
X0307125Y0371782D02*
X0304429Y0371782D01*
X0305474Y0370183D02*
X0307125Y0370183D01*
X0307125Y0368585D02*
X0305474Y0368585D01*
X0307125Y0374979D02*
X0262275Y0374979D01*
X0262275Y0376577D02*
X0307125Y0376577D01*
X0313475Y0376577D02*
X0408463Y0376577D01*
X0409306Y0374979D02*
X0313475Y0374979D01*
X0313475Y0373380D02*
X0410149Y0373380D01*
X0410991Y0371782D02*
X0313475Y0371782D01*
X0313475Y0370183D02*
X0411834Y0370183D01*
X0412677Y0368585D02*
X0313475Y0368585D01*
X0313475Y0366986D02*
X0413520Y0366986D01*
X0414363Y0365388D02*
X0313475Y0365388D01*
X0313475Y0363789D02*
X0415206Y0363789D01*
X0416049Y0362191D02*
X0313475Y0362191D01*
X0313475Y0360592D02*
X0416891Y0360592D01*
X0417734Y0358994D02*
X0313329Y0358994D01*
X0314981Y0353800D02*
X0314674Y0353493D01*
X0314981Y0353800D02*
X0321800Y0353800D01*
X0326300Y0349300D01*
X0326300Y0336800D01*
X0318300Y0328800D01*
X0292300Y0328800D01*
X0279300Y0341800D01*
X0242233Y0341800D01*
X0233926Y0350107D01*
X0234936Y0344607D02*
X0224975Y0344607D01*
X0224975Y0346205D02*
X0228367Y0346205D01*
X0227614Y0347804D02*
X0224975Y0347804D01*
X0224975Y0349402D02*
X0227614Y0349402D01*
X0227614Y0351001D02*
X0224975Y0351001D01*
X0224975Y0343008D02*
X0236535Y0343008D01*
X0238133Y0341410D02*
X0224975Y0341410D01*
X0224975Y0339811D02*
X0239732Y0339811D01*
X0238708Y0335016D02*
X0223506Y0335016D01*
X0224745Y0336614D02*
X0246484Y0336614D01*
X0243539Y0335016D02*
X0242580Y0335016D01*
X0242580Y0333417D02*
X0243539Y0333417D01*
X0242580Y0331819D02*
X0220309Y0331819D01*
X0221907Y0333417D02*
X0238701Y0333417D01*
X0238701Y0331320D02*
X0238701Y0328610D01*
X0238823Y0328152D01*
X0239060Y0327742D01*
X0239396Y0327407D01*
X0239806Y0327170D01*
X0240264Y0327047D01*
X0242580Y0327047D01*
X0242580Y0331320D01*
X0238701Y0331320D01*
X0238701Y0330220D02*
X0218710Y0330220D01*
X0216300Y0332300D02*
X0202145Y0332300D01*
X0194338Y0340107D01*
X0193926Y0340107D01*
X0194940Y0335016D02*
X0189074Y0335016D01*
X0187958Y0336614D02*
X0187475Y0336614D01*
X0187614Y0338213D02*
X0186975Y0338213D01*
X0186975Y0339811D02*
X0187614Y0339811D01*
X0187614Y0341410D02*
X0186975Y0341410D01*
X0186975Y0343008D02*
X0187614Y0343008D01*
X0188558Y0344607D02*
X0188965Y0344607D01*
X0187596Y0348135D02*
X0183800Y0344338D01*
X0183800Y0335800D01*
X0194300Y0325300D01*
X0202976Y0325300D01*
X0206225Y0322051D01*
X0206225Y0312406D01*
X0198926Y0305107D01*
X0200367Y0311038D02*
X0187628Y0311038D01*
X0187628Y0312637D02*
X0201966Y0312637D01*
X0206150Y0307841D02*
X0209026Y0307841D01*
X0209060Y0307967D02*
X0208937Y0307509D01*
X0208937Y0305390D01*
X0214391Y0305390D01*
X0214391Y0304824D01*
X0214957Y0304824D01*
X0214957Y0305390D01*
X0220411Y0305390D01*
X0220411Y0307509D01*
X0220288Y0307967D01*
X0220051Y0308378D01*
X0219716Y0308713D01*
X0219306Y0308950D01*
X0218848Y0309072D01*
X0214957Y0309072D01*
X0214957Y0305390D01*
X0214391Y0305390D01*
X0214391Y0309072D01*
X0210500Y0309072D01*
X0210042Y0308950D01*
X0209632Y0308713D01*
X0209297Y0308378D01*
X0209060Y0307967D01*
X0208937Y0306243D02*
X0205238Y0306243D01*
X0205238Y0304644D02*
X0208937Y0304644D01*
X0208937Y0304824D02*
X0208937Y0302705D01*
X0209060Y0302247D01*
X0209297Y0301837D01*
X0209632Y0301501D01*
X0210042Y0301264D01*
X0210500Y0301142D01*
X0214391Y0301142D01*
X0214391Y0304824D01*
X0208937Y0304824D01*
X0208937Y0303046D02*
X0205238Y0303046D01*
X0204727Y0301447D02*
X0209726Y0301447D01*
X0207540Y0297800D02*
X0257300Y0297800D01*
X0274800Y0297800D01*
X0286800Y0285800D01*
X0286800Y0266800D01*
X0288493Y0268493D01*
X0308926Y0268493D01*
X0308926Y0280686D01*
X0309040Y0280800D01*
X0309040Y0294884D01*
X0307375Y0296549D01*
X0307375Y0306225D01*
X0300107Y0313493D01*
X0298926Y0313493D01*
X0285867Y0313493D01*
X0284800Y0314560D01*
X0277540Y0314560D01*
X0260300Y0331800D01*
X0250540Y0331800D01*
X0250540Y0327040D01*
X0248300Y0324800D01*
X0245233Y0324800D01*
X0239926Y0319493D01*
X0241368Y0325425D02*
X0207341Y0325425D01*
X0208926Y0323826D02*
X0234799Y0323826D01*
X0233614Y0322228D02*
X0220400Y0322228D01*
X0223107Y0318493D02*
X0214674Y0318493D01*
X0209471Y0314235D02*
X0209400Y0314235D01*
X0209400Y0312637D02*
X0224473Y0312637D01*
X0222875Y0314235D02*
X0219877Y0314235D01*
X0223107Y0318493D02*
X0235493Y0306107D01*
X0239926Y0306107D01*
X0246238Y0306243D02*
X0255391Y0306243D01*
X0255391Y0306390D02*
X0255391Y0305824D01*
X0255957Y0305824D01*
X0255957Y0306390D01*
X0261411Y0306390D01*
X0261411Y0308509D01*
X0261288Y0308967D01*
X0261051Y0309378D01*
X0260716Y0309713D01*
X0260306Y0309950D01*
X0259848Y0310072D01*
X0255957Y0310072D01*
X0255957Y0306390D01*
X0255391Y0306390D01*
X0249937Y0306390D01*
X0249937Y0308509D01*
X0250060Y0308967D01*
X0250297Y0309378D01*
X0250632Y0309713D01*
X0251042Y0309950D01*
X0251500Y0310072D01*
X0255391Y0310072D01*
X0255391Y0306390D01*
X0255391Y0305824D02*
X0249937Y0305824D01*
X0249937Y0303705D01*
X0250060Y0303247D01*
X0250297Y0302837D01*
X0250632Y0302501D01*
X0251042Y0302264D01*
X0251500Y0302142D01*
X0255391Y0302142D01*
X0255391Y0305824D01*
X0255957Y0305824D02*
X0255957Y0302142D01*
X0259848Y0302142D01*
X0260306Y0302264D01*
X0260716Y0302501D01*
X0261051Y0302837D01*
X0261288Y0303247D01*
X0261411Y0303705D01*
X0261411Y0305824D01*
X0255957Y0305824D01*
X0255957Y0306243D02*
X0271367Y0306243D01*
X0269769Y0307841D02*
X0261411Y0307841D01*
X0260989Y0309440D02*
X0268170Y0309440D01*
X0266572Y0311038D02*
X0235052Y0311038D01*
X0233453Y0312637D02*
X0264973Y0312637D01*
X0263375Y0314235D02*
X0231855Y0314235D01*
X0230256Y0315834D02*
X0234124Y0315834D01*
X0233614Y0317432D02*
X0228658Y0317432D01*
X0227059Y0319031D02*
X0233614Y0319031D01*
X0233614Y0320629D02*
X0225461Y0320629D01*
X0226072Y0311038D02*
X0209095Y0311038D01*
X0207748Y0309440D02*
X0227670Y0309440D01*
X0229269Y0307841D02*
X0220322Y0307841D01*
X0220411Y0306243D02*
X0230867Y0306243D01*
X0232466Y0304644D02*
X0220411Y0304644D01*
X0220411Y0304824D02*
X0214957Y0304824D01*
X0214957Y0301142D01*
X0218848Y0301142D01*
X0219306Y0301264D01*
X0219716Y0301501D01*
X0220051Y0301837D01*
X0220288Y0302247D01*
X0220411Y0302705D01*
X0220411Y0304824D01*
X0220411Y0303046D02*
X0233614Y0303046D01*
X0232801Y0304309D02*
X0232801Y0304309D01*
X0233853Y0293455D02*
X0214635Y0293455D01*
X0216234Y0291856D02*
X0232541Y0291856D01*
X0231925Y0290258D02*
X0217832Y0290258D01*
X0219431Y0288659D02*
X0231925Y0288659D01*
X0231925Y0287061D02*
X0221029Y0287061D01*
X0221962Y0285462D02*
X0231925Y0285462D01*
X0231925Y0283863D02*
X0221975Y0283863D01*
X0221975Y0282265D02*
X0231925Y0282265D01*
X0232573Y0280666D02*
X0221975Y0280666D01*
X0221975Y0279068D02*
X0233425Y0279068D01*
X0233425Y0277469D02*
X0221975Y0277469D01*
X0221975Y0275871D02*
X0233425Y0275871D01*
X0232223Y0274272D02*
X0221975Y0274272D01*
X0221975Y0272674D02*
X0231275Y0272674D01*
X0230825Y0271075D02*
X0221975Y0271075D01*
X0221975Y0269477D02*
X0230825Y0269477D01*
X0230825Y0267878D02*
X0221975Y0267878D01*
X0221975Y0266280D02*
X0230825Y0266280D01*
X0230825Y0264681D02*
X0221975Y0264681D01*
X0221975Y0263083D02*
X0230825Y0263083D01*
X0231044Y0261484D02*
X0221975Y0261484D01*
X0221975Y0259886D02*
X0231706Y0259886D01*
X0233263Y0258287D02*
X0221975Y0258287D01*
X0221975Y0256689D02*
X0292199Y0256689D01*
X0293797Y0258287D02*
X0290337Y0258287D01*
X0291894Y0259886D02*
X0295396Y0259886D01*
X0296994Y0261484D02*
X0292556Y0261484D01*
X0292775Y0263083D02*
X0298722Y0263083D01*
X0300300Y0260300D02*
X0317800Y0260300D01*
X0324674Y0267174D01*
X0324674Y0268493D01*
X0325073Y0263083D02*
X0343625Y0263083D01*
X0343625Y0264681D02*
X0330323Y0264681D01*
X0330986Y0266280D02*
X0343625Y0266280D01*
X0343625Y0267878D02*
X0330986Y0267878D01*
X0330986Y0269477D02*
X0343625Y0269477D01*
X0343625Y0271075D02*
X0330986Y0271075D01*
X0329954Y0272674D02*
X0343625Y0272674D01*
X0343625Y0274272D02*
X0312101Y0274272D01*
X0312981Y0275871D02*
X0343625Y0275871D01*
X0343625Y0277469D02*
X0313974Y0277469D01*
X0313974Y0279068D02*
X0343625Y0279068D01*
X0343625Y0280666D02*
X0313974Y0280666D01*
X0313974Y0282265D02*
X0343625Y0282265D01*
X0343625Y0283863D02*
X0313974Y0283863D01*
X0313248Y0285462D02*
X0343625Y0285462D01*
X0343625Y0287061D02*
X0312215Y0287061D01*
X0312215Y0288659D02*
X0342951Y0288659D01*
X0341353Y0290258D02*
X0312215Y0290258D01*
X0312215Y0291856D02*
X0339754Y0291856D01*
X0338156Y0293455D02*
X0312215Y0293455D01*
X0312215Y0295053D02*
X0336557Y0295053D01*
X0334959Y0296652D02*
X0319866Y0296652D01*
X0319716Y0296501D02*
X0320051Y0296837D01*
X0320288Y0297247D01*
X0320411Y0297705D01*
X0320411Y0299824D01*
X0314957Y0299824D01*
X0314957Y0296142D01*
X0318848Y0296142D01*
X0319306Y0296264D01*
X0319716Y0296501D01*
X0320411Y0298250D02*
X0333360Y0298250D01*
X0331762Y0299849D02*
X0314957Y0299849D01*
X0314957Y0301447D02*
X0314391Y0301447D01*
X0314391Y0303046D02*
X0314957Y0303046D01*
X0310550Y0304644D02*
X0326966Y0304644D01*
X0328565Y0303046D02*
X0320243Y0303046D01*
X0320411Y0301447D02*
X0330163Y0301447D01*
X0334347Y0306243D02*
X0445548Y0306243D01*
X0444706Y0307841D02*
X0332749Y0307841D01*
X0331150Y0309440D02*
X0443863Y0309440D01*
X0443020Y0311038D02*
X0329552Y0311038D01*
X0327953Y0312637D02*
X0442177Y0312637D01*
X0441334Y0314235D02*
X0326355Y0314235D01*
X0324756Y0315834D02*
X0440491Y0315834D01*
X0439648Y0317432D02*
X0320196Y0317432D01*
X0322800Y0313300D02*
X0314867Y0313300D01*
X0314674Y0313493D01*
X0308362Y0314235D02*
X0305238Y0314235D01*
X0305238Y0315834D02*
X0308362Y0315834D01*
X0309152Y0317432D02*
X0304447Y0317432D01*
X0305453Y0312637D02*
X0308362Y0312637D01*
X0308362Y0311038D02*
X0307052Y0311038D01*
X0308650Y0309440D02*
X0309266Y0309440D01*
X0310142Y0307841D02*
X0323769Y0307841D01*
X0325367Y0306243D02*
X0310550Y0306243D01*
X0314391Y0298250D02*
X0314957Y0298250D01*
X0314957Y0296652D02*
X0314391Y0296652D01*
X0305865Y0293455D02*
X0283635Y0293455D01*
X0282037Y0295053D02*
X0304558Y0295053D01*
X0305865Y0291856D02*
X0285234Y0291856D01*
X0286832Y0290258D02*
X0305865Y0290258D01*
X0305865Y0288659D02*
X0288431Y0288659D01*
X0289714Y0287061D02*
X0305865Y0287061D01*
X0304832Y0285462D02*
X0304695Y0285462D01*
X0302039Y0285462D02*
X0301080Y0285462D01*
X0301080Y0283863D02*
X0302039Y0283863D01*
X0302039Y0282265D02*
X0301080Y0282265D01*
X0301080Y0280666D02*
X0289975Y0280666D01*
X0289975Y0279068D02*
X0297201Y0279068D01*
X0297201Y0280320D02*
X0297201Y0277610D01*
X0297323Y0277152D01*
X0297560Y0276742D01*
X0297896Y0276407D01*
X0298306Y0276170D01*
X0298764Y0276047D01*
X0301080Y0276047D01*
X0301080Y0280320D01*
X0297201Y0280320D01*
X0297201Y0282265D02*
X0289975Y0282265D01*
X0289975Y0283863D02*
X0297201Y0283863D01*
X0298425Y0285462D02*
X0289975Y0285462D01*
X0283625Y0284485D02*
X0283625Y0275552D01*
X0283416Y0275465D01*
X0281735Y0273784D01*
X0281466Y0273136D01*
X0281418Y0273230D01*
X0280919Y0273918D01*
X0280318Y0274519D01*
X0279630Y0275018D01*
X0278873Y0275404D01*
X0278065Y0275667D01*
X0277225Y0275800D01*
X0277000Y0275800D01*
X0277000Y0267000D01*
X0276600Y0267000D01*
X0276600Y0275800D01*
X0276375Y0275800D01*
X0275535Y0275667D01*
X0274727Y0275404D01*
X0273970Y0275018D01*
X0273282Y0274519D01*
X0272681Y0273918D01*
X0272182Y0273230D01*
X0272134Y0273136D01*
X0271865Y0273784D01*
X0270184Y0275465D01*
X0267988Y0276375D01*
X0265612Y0276375D01*
X0263416Y0275465D01*
X0261800Y0273850D01*
X0260184Y0275465D01*
X0257988Y0276375D01*
X0255612Y0276375D01*
X0253416Y0275465D01*
X0251800Y0273850D01*
X0250675Y0274975D01*
X0250675Y0279074D01*
X0251857Y0280255D01*
X0252300Y0281326D01*
X0252743Y0280255D01*
X0254255Y0278743D01*
X0256231Y0277925D01*
X0258369Y0277925D01*
X0260345Y0278743D01*
X0261857Y0280255D01*
X0262633Y0282130D01*
X0262852Y0281457D01*
X0263195Y0280784D01*
X0263639Y0280173D01*
X0264173Y0279639D01*
X0264784Y0279195D01*
X0265457Y0278852D01*
X0266176Y0278618D01*
X0266922Y0278500D01*
X0267100Y0278500D01*
X0267100Y0286100D01*
X0267500Y0286100D01*
X0267500Y0286500D01*
X0267100Y0286500D01*
X0267100Y0294100D01*
X0266922Y0294100D01*
X0266176Y0293982D01*
X0265457Y0293748D01*
X0264784Y0293405D01*
X0264173Y0292961D01*
X0263639Y0292427D01*
X0263195Y0291816D01*
X0262852Y0291143D01*
X0262633Y0290470D01*
X0261857Y0292345D01*
X0260475Y0293726D01*
X0260475Y0294625D01*
X0273485Y0294625D01*
X0283625Y0284485D01*
X0283625Y0283863D02*
X0272100Y0283863D01*
X0272100Y0282922D02*
X0272100Y0286100D01*
X0267500Y0286100D01*
X0267500Y0278500D01*
X0267678Y0278500D01*
X0268424Y0278618D01*
X0269143Y0278852D01*
X0269816Y0279195D01*
X0270427Y0279639D01*
X0270961Y0280173D01*
X0271405Y0280784D01*
X0271748Y0281457D01*
X0271982Y0282176D01*
X0272100Y0282922D01*
X0271996Y0282265D02*
X0283625Y0282265D01*
X0283625Y0280666D02*
X0271320Y0280666D01*
X0269567Y0279068D02*
X0283625Y0279068D01*
X0283625Y0277469D02*
X0250675Y0277469D01*
X0250675Y0275871D02*
X0254395Y0275871D01*
X0252223Y0274272D02*
X0251377Y0274272D01*
X0250675Y0279068D02*
X0253931Y0279068D01*
X0252573Y0280666D02*
X0252027Y0280666D01*
X0257300Y0286300D02*
X0257300Y0297800D01*
X0255957Y0303046D02*
X0255391Y0303046D01*
X0255391Y0304644D02*
X0255957Y0304644D01*
X0255957Y0307841D02*
X0255391Y0307841D01*
X0255391Y0309440D02*
X0255957Y0309440D01*
X0250359Y0309440D02*
X0246054Y0309440D01*
X0246238Y0307841D02*
X0249937Y0307841D01*
X0249937Y0304644D02*
X0246238Y0304644D01*
X0246238Y0303046D02*
X0250176Y0303046D01*
X0261172Y0303046D02*
X0274565Y0303046D01*
X0276163Y0301447D02*
X0219622Y0301447D01*
X0214957Y0301447D02*
X0214391Y0301447D01*
X0214391Y0303046D02*
X0214957Y0303046D01*
X0214957Y0304644D02*
X0214391Y0304644D01*
X0214391Y0306243D02*
X0214957Y0306243D01*
X0214957Y0307841D02*
X0214391Y0307841D01*
X0207540Y0297800D02*
X0206670Y0296930D01*
X0218800Y0284800D01*
X0218800Y0254300D01*
X0220300Y0252800D01*
X0230800Y0252800D01*
X0233170Y0250430D01*
X0227040Y0244300D01*
X0231974Y0243901D02*
X0236411Y0243901D01*
X0238009Y0245499D02*
X0232729Y0245499D01*
X0234328Y0247098D02*
X0239608Y0247098D01*
X0241496Y0248696D02*
X0235926Y0248696D01*
X0235862Y0248632D02*
X0235862Y0248632D01*
X0233170Y0250430D02*
X0234733Y0251993D01*
X0247926Y0251993D01*
X0254238Y0251893D02*
X0257362Y0251893D01*
X0257362Y0250295D02*
X0254238Y0250295D01*
X0254238Y0253492D02*
X0257362Y0253492D01*
X0257362Y0255090D02*
X0254238Y0255090D01*
X0253263Y0258287D02*
X0250337Y0258287D01*
X0243263Y0258287D02*
X0240337Y0258287D01*
X0233915Y0255090D02*
X0233000Y0255090D01*
X0231974Y0242302D02*
X0234812Y0242302D01*
X0233214Y0240704D02*
X0231974Y0240704D01*
X0231615Y0239105D02*
X0230716Y0239105D01*
X0231532Y0234532D02*
X0214001Y0234532D01*
X0192926Y0255607D01*
X0193748Y0250295D02*
X0182576Y0250295D01*
X0182540Y0250358D02*
X0182204Y0250693D01*
X0181794Y0250930D01*
X0181336Y0251053D01*
X0179020Y0251053D01*
X0179020Y0246780D01*
X0182899Y0246780D01*
X0182899Y0249490D01*
X0182777Y0249948D01*
X0182540Y0250358D01*
X0182899Y0248696D02*
X0195347Y0248696D01*
X0196945Y0247098D02*
X0182899Y0247098D01*
X0182899Y0245499D02*
X0198544Y0245499D01*
X0200142Y0243901D02*
X0182899Y0243901D01*
X0182574Y0242302D02*
X0201741Y0242302D01*
X0203340Y0240704D02*
X0174235Y0240704D01*
X0174235Y0239105D02*
X0204938Y0239105D01*
X0206537Y0237507D02*
X0174235Y0237507D01*
X0174235Y0235908D02*
X0208135Y0235908D01*
X0209734Y0234310D02*
X0174235Y0234310D01*
X0174235Y0232711D02*
X0211332Y0232711D01*
X0213918Y0239105D02*
X0223365Y0239105D01*
X0220039Y0240704D02*
X0219080Y0240704D01*
X0219080Y0239547D02*
X0219080Y0243820D01*
X0215201Y0243820D01*
X0215201Y0241110D01*
X0215323Y0240652D01*
X0215560Y0240242D01*
X0215896Y0239907D01*
X0216306Y0239670D01*
X0216764Y0239547D01*
X0219080Y0239547D01*
X0219080Y0242302D02*
X0220039Y0242302D01*
X0219080Y0243901D02*
X0209122Y0243901D01*
X0207524Y0245499D02*
X0215201Y0245499D01*
X0215201Y0247098D02*
X0205925Y0247098D01*
X0204327Y0248696D02*
X0215901Y0248696D01*
X0218315Y0250295D02*
X0202728Y0250295D01*
X0203632Y0252001D02*
X0204042Y0251764D01*
X0204500Y0251642D01*
X0208391Y0251642D01*
X0208391Y0255324D01*
X0208957Y0255324D01*
X0208957Y0255890D01*
X0214411Y0255890D01*
X0214411Y0258009D01*
X0214288Y0258467D01*
X0214051Y0258878D01*
X0213716Y0259213D01*
X0213306Y0259450D01*
X0212848Y0259572D01*
X0208957Y0259572D01*
X0208957Y0255890D01*
X0208391Y0255890D01*
X0208391Y0255324D01*
X0202937Y0255324D01*
X0202937Y0253205D01*
X0203060Y0252747D01*
X0203297Y0252337D01*
X0203632Y0252001D01*
X0203819Y0251893D02*
X0201130Y0251893D01*
X0199531Y0253492D02*
X0202937Y0253492D01*
X0202937Y0255090D02*
X0199238Y0255090D01*
X0199238Y0256689D02*
X0202937Y0256689D01*
X0202937Y0255890D02*
X0208391Y0255890D01*
X0208391Y0259572D01*
X0204500Y0259572D01*
X0204042Y0259450D01*
X0203632Y0259213D01*
X0203297Y0258878D01*
X0203060Y0258467D01*
X0202937Y0258009D01*
X0202937Y0255890D01*
X0203011Y0258287D02*
X0199238Y0258287D01*
X0198108Y0259886D02*
X0215625Y0259886D01*
X0215625Y0261484D02*
X0201155Y0261484D01*
X0202754Y0263083D02*
X0215625Y0263083D01*
X0215625Y0264681D02*
X0213823Y0264681D01*
X0214986Y0266280D02*
X0215625Y0266280D01*
X0215625Y0267878D02*
X0214986Y0267878D01*
X0214986Y0269477D02*
X0215625Y0269477D01*
X0215625Y0271075D02*
X0214986Y0271075D01*
X0214454Y0272674D02*
X0215625Y0272674D01*
X0215625Y0274272D02*
X0196101Y0274272D01*
X0196101Y0275871D02*
X0215625Y0275871D01*
X0215625Y0277469D02*
X0196101Y0277469D01*
X0197678Y0279068D02*
X0215625Y0279068D01*
X0215625Y0280666D02*
X0197974Y0280666D01*
X0197974Y0282265D02*
X0215625Y0282265D01*
X0215247Y0283863D02*
X0198093Y0283863D01*
X0199692Y0285462D02*
X0213648Y0285462D01*
X0212050Y0287061D02*
X0201291Y0287061D01*
X0202889Y0288659D02*
X0210451Y0288659D01*
X0208853Y0290258D02*
X0204488Y0290258D01*
X0206086Y0291856D02*
X0207254Y0291856D01*
X0206670Y0296930D02*
X0193040Y0283300D01*
X0192926Y0283186D01*
X0192926Y0268993D01*
X0185107Y0268993D01*
X0174300Y0279800D01*
X0177923Y0280666D02*
X0181201Y0280666D01*
X0181201Y0280110D02*
X0181323Y0279652D01*
X0181560Y0279242D01*
X0181896Y0278907D01*
X0182306Y0278670D01*
X0182764Y0278547D01*
X0185080Y0278547D01*
X0185080Y0282820D01*
X0181201Y0282820D01*
X0181201Y0280110D01*
X0181734Y0279068D02*
X0179522Y0279068D01*
X0181120Y0277469D02*
X0189751Y0277469D01*
X0189751Y0275871D02*
X0182719Y0275871D01*
X0184317Y0274272D02*
X0189751Y0274272D01*
X0187146Y0272674D02*
X0185916Y0272674D01*
X0186039Y0279068D02*
X0185080Y0279068D01*
X0185080Y0280666D02*
X0186039Y0280666D01*
X0186039Y0282265D02*
X0185080Y0282265D01*
X0185080Y0283863D02*
X0186039Y0283863D01*
X0186039Y0285462D02*
X0185080Y0285462D01*
X0185080Y0287061D02*
X0186039Y0287061D01*
X0181389Y0287061D02*
X0177475Y0287061D01*
X0177475Y0288659D02*
X0193909Y0288659D01*
X0195508Y0290258D02*
X0177475Y0290258D01*
X0177475Y0291856D02*
X0197106Y0291856D01*
X0198705Y0293455D02*
X0177475Y0293455D01*
X0177475Y0295053D02*
X0200303Y0295053D01*
X0201902Y0296652D02*
X0177475Y0296652D01*
X0177475Y0298250D02*
X0203500Y0298250D01*
X0203979Y0298728D02*
X0203979Y0298728D01*
X0204872Y0299621D02*
X0204872Y0299621D01*
X0205099Y0299849D02*
X0177475Y0299849D01*
X0177475Y0301447D02*
X0193125Y0301447D01*
X0192614Y0303046D02*
X0186780Y0303046D01*
X0186693Y0302896D02*
X0186930Y0303306D01*
X0187053Y0303764D01*
X0187053Y0306080D01*
X0182780Y0306080D01*
X0182780Y0302201D01*
X0185490Y0302201D01*
X0185948Y0302323D01*
X0186358Y0302560D01*
X0186693Y0302896D01*
X0187053Y0304644D02*
X0192614Y0304644D01*
X0192614Y0306243D02*
X0182780Y0306243D01*
X0181820Y0306243D02*
X0177475Y0306243D01*
X0177475Y0304644D02*
X0177547Y0304644D01*
X0177475Y0303046D02*
X0177820Y0303046D01*
X0181820Y0303046D02*
X0182780Y0303046D01*
X0182780Y0304644D02*
X0181820Y0304644D01*
X0187053Y0307841D02*
X0192614Y0307841D01*
X0193798Y0309440D02*
X0187030Y0309440D01*
X0187628Y0314235D02*
X0193723Y0314235D01*
X0198926Y0318493D02*
X0186753Y0318493D01*
X0182300Y0314040D01*
X0176017Y0315834D02*
X0093031Y0315834D01*
X0093601Y0317432D02*
X0175039Y0317432D01*
X0174995Y0319031D02*
X0094170Y0319031D01*
X0094739Y0320629D02*
X0174995Y0320629D01*
X0174995Y0322228D02*
X0095309Y0322228D01*
X0095878Y0323826D02*
X0174995Y0323826D01*
X0174995Y0325425D02*
X0096447Y0325425D01*
X0097017Y0327023D02*
X0174995Y0327023D01*
X0174995Y0328622D02*
X0097586Y0328622D01*
X0098155Y0330220D02*
X0174995Y0330220D01*
X0174995Y0331819D02*
X0098725Y0331819D01*
X0099294Y0333417D02*
X0174995Y0333417D01*
X0174995Y0335016D02*
X0099863Y0335016D01*
X0100433Y0336614D02*
X0174995Y0336614D01*
X0174995Y0338213D02*
X0101002Y0338213D01*
X0101571Y0339811D02*
X0174995Y0339811D01*
X0174995Y0341410D02*
X0102141Y0341410D01*
X0102710Y0343008D02*
X0174995Y0343008D01*
X0174995Y0344607D02*
X0103279Y0344607D01*
X0103849Y0346205D02*
X0174995Y0346205D01*
X0174995Y0347804D02*
X0104418Y0347804D01*
X0104987Y0349402D02*
X0174995Y0349402D01*
X0175511Y0351001D02*
X0105557Y0351001D01*
X0106126Y0352599D02*
X0177110Y0352599D01*
X0178708Y0354198D02*
X0106695Y0354198D01*
X0107265Y0355797D02*
X0180307Y0355797D01*
X0181905Y0357395D02*
X0107834Y0357395D01*
X0108403Y0358994D02*
X0183504Y0358994D01*
X0185102Y0360592D02*
X0108973Y0360592D01*
X0109542Y0362191D02*
X0179770Y0362191D01*
X0179806Y0362170D02*
X0180264Y0362047D01*
X0182580Y0362047D01*
X0182580Y0366320D01*
X0178701Y0366320D01*
X0178701Y0363610D01*
X0178823Y0363152D01*
X0179060Y0362742D01*
X0179396Y0362407D01*
X0179806Y0362170D01*
X0178701Y0363789D02*
X0110111Y0363789D01*
X0110680Y0365388D02*
X0178701Y0365388D01*
X0178701Y0368585D02*
X0111819Y0368585D01*
X0112388Y0370183D02*
X0178753Y0370183D01*
X0182580Y0370183D02*
X0183539Y0370183D01*
X0183539Y0368585D02*
X0182580Y0368585D01*
X0182580Y0366986D02*
X0111250Y0366986D01*
X0112958Y0371782D02*
X0186652Y0371782D01*
X0192630Y0373380D02*
X0113527Y0373380D01*
X0114096Y0374979D02*
X0194229Y0374979D01*
X0195125Y0376577D02*
X0114666Y0376577D01*
X0115235Y0378176D02*
X0195125Y0378176D01*
X0195125Y0379774D02*
X0115804Y0379774D01*
X0116374Y0381373D02*
X0195125Y0381373D01*
X0195125Y0382971D02*
X0116943Y0382971D01*
X0117512Y0384570D02*
X0195125Y0384570D01*
X0195125Y0386168D02*
X0118082Y0386168D01*
X0118651Y0387767D02*
X0195125Y0387767D01*
X0195125Y0389365D02*
X0119220Y0389365D01*
X0119790Y0390964D02*
X0195553Y0390964D01*
X0196502Y0391991D02*
X0196502Y0391991D01*
X0197072Y0392562D02*
X0120359Y0392562D01*
X0120928Y0394161D02*
X0198671Y0394161D01*
X0200269Y0395759D02*
X0121498Y0395759D01*
X0122067Y0397358D02*
X0201868Y0397358D01*
X0203466Y0398956D02*
X0122636Y0398956D01*
X0123206Y0400555D02*
X0203614Y0400555D01*
X0204126Y0402153D02*
X0123775Y0402153D01*
X0124344Y0403752D02*
X0207388Y0403752D01*
X0208986Y0405350D02*
X0124914Y0405350D01*
X0125483Y0406949D02*
X0210585Y0406949D01*
X0212184Y0408547D02*
X0126052Y0408547D01*
X0126622Y0410146D02*
X0213782Y0410146D01*
X0215381Y0411744D02*
X0127191Y0411744D01*
X0127760Y0413343D02*
X0216472Y0413343D01*
X0216472Y0414941D02*
X0128330Y0414941D01*
X0128899Y0416540D02*
X0216472Y0416540D01*
X0217047Y0418138D02*
X0129468Y0418138D01*
X0130038Y0419737D02*
X0217047Y0419737D01*
X0217047Y0421020D02*
X0221320Y0421020D01*
X0221320Y0424899D01*
X0218610Y0424899D01*
X0218152Y0424777D01*
X0217742Y0424540D01*
X0217407Y0424204D01*
X0217170Y0423794D01*
X0217047Y0423336D01*
X0217047Y0421020D01*
X0217047Y0421335D02*
X0130607Y0421335D01*
X0131176Y0422934D02*
X0217047Y0422934D01*
X0217735Y0424532D02*
X0131746Y0424532D01*
X0132315Y0426131D02*
X0227625Y0426131D01*
X0227625Y0424532D02*
X0225865Y0424532D01*
X0226553Y0422934D02*
X0227625Y0422934D01*
X0227625Y0421335D02*
X0226553Y0421335D01*
X0226553Y0419737D02*
X0227625Y0419737D01*
X0227149Y0418138D02*
X0226553Y0418138D01*
X0230800Y0417300D02*
X0226800Y0413300D01*
X0222040Y0413300D01*
X0221800Y0413060D01*
X0221186Y0413060D01*
X0209926Y0401800D01*
X0209926Y0398493D01*
X0207493Y0398493D01*
X0198300Y0389300D01*
X0198300Y0374560D01*
X0190540Y0366800D01*
X0207300Y0366800D01*
X0209300Y0364800D01*
X0217540Y0364800D01*
X0217800Y0365060D01*
X0226540Y0365060D01*
X0228300Y0363300D01*
X0233733Y0363300D01*
X0233926Y0363493D01*
X0233926Y0363926D01*
X0241300Y0371300D01*
X0256800Y0371300D01*
X0259300Y0373800D01*
X0255989Y0374979D02*
X0222553Y0374979D01*
X0222553Y0373380D02*
X0238890Y0373380D01*
X0237292Y0371782D02*
X0222553Y0371782D01*
X0222553Y0370183D02*
X0235693Y0370183D01*
X0234095Y0368585D02*
X0223128Y0368585D01*
X0218280Y0373380D02*
X0217320Y0373380D01*
X0217320Y0373020D02*
X0217320Y0376899D01*
X0214610Y0376899D01*
X0214152Y0376777D01*
X0213742Y0376540D01*
X0213407Y0376204D01*
X0213170Y0375794D01*
X0213047Y0375336D01*
X0213047Y0373020D01*
X0217320Y0373020D01*
X0217320Y0374979D02*
X0218280Y0374979D01*
X0218280Y0376577D02*
X0217320Y0376577D01*
X0213807Y0376577D02*
X0201475Y0376577D01*
X0201475Y0374979D02*
X0213047Y0374979D01*
X0213047Y0373380D02*
X0201248Y0373380D01*
X0200012Y0371782D02*
X0213047Y0371782D01*
X0213047Y0370183D02*
X0198413Y0370183D01*
X0190540Y0366800D02*
X0190540Y0361540D01*
X0182493Y0353493D01*
X0187596Y0348135D02*
X0203635Y0348135D01*
X0208993Y0353493D01*
X0209674Y0353493D01*
X0203362Y0354198D02*
X0200238Y0354198D01*
X0200238Y0355797D02*
X0203362Y0355797D01*
X0204115Y0357395D02*
X0199485Y0357395D01*
X0200238Y0352599D02*
X0203362Y0352599D01*
X0207420Y0362191D02*
X0194801Y0362191D01*
X0193584Y0360592D02*
X0213398Y0360592D01*
X0212472Y0368585D02*
X0210005Y0368585D01*
X0201475Y0378176D02*
X0243614Y0378176D01*
X0243614Y0379774D02*
X0201475Y0379774D01*
X0201475Y0381373D02*
X0204200Y0381373D01*
X0203614Y0382971D02*
X0201475Y0382971D01*
X0201475Y0384570D02*
X0203614Y0384570D01*
X0203614Y0386168D02*
X0201475Y0386168D01*
X0201475Y0387767D02*
X0203614Y0387767D01*
X0202855Y0389365D02*
X0204723Y0389365D01*
X0204454Y0390964D02*
X0211293Y0390964D01*
X0212891Y0392562D02*
X0206052Y0392562D01*
X0209926Y0385107D02*
X0218375Y0393556D01*
X0218375Y0402051D01*
X0221344Y0405020D01*
X0234520Y0405020D01*
X0236800Y0407300D01*
X0236800Y0416800D01*
X0241300Y0421300D01*
X0249800Y0421300D01*
X0251800Y0423300D01*
X0251800Y0433300D01*
X0259674Y0441174D01*
X0259674Y0443493D01*
X0261909Y0438919D02*
X0375592Y0438919D01*
X0376435Y0437321D02*
X0260310Y0437321D01*
X0258712Y0435722D02*
X0377277Y0435722D01*
X0378120Y0434124D02*
X0257113Y0434124D01*
X0259391Y0432525D02*
X0259957Y0432525D01*
X0259957Y0430927D02*
X0259391Y0430927D01*
X0259957Y0429824D02*
X0265411Y0429824D01*
X0265411Y0427705D01*
X0265288Y0427247D01*
X0265051Y0426837D01*
X0264716Y0426501D01*
X0264306Y0426264D01*
X0263848Y0426142D01*
X0259957Y0426142D01*
X0259957Y0429824D01*
X0259957Y0429328D02*
X0259391Y0429328D01*
X0259391Y0427730D02*
X0259957Y0427730D01*
X0254975Y0426131D02*
X0382335Y0426131D01*
X0383177Y0424532D02*
X0254975Y0424532D01*
X0254975Y0422934D02*
X0384020Y0422934D01*
X0384863Y0421335D02*
X0254325Y0421335D01*
X0252727Y0419737D02*
X0385706Y0419737D01*
X0386549Y0418138D02*
X0290666Y0418138D01*
X0290777Y0417948D02*
X0290540Y0418358D01*
X0290204Y0418693D01*
X0289794Y0418930D01*
X0289336Y0419053D01*
X0287020Y0419053D01*
X0287020Y0414780D01*
X0290899Y0414780D01*
X0290899Y0417490D01*
X0290777Y0417948D01*
X0290899Y0416540D02*
X0387392Y0416540D01*
X0388235Y0414941D02*
X0290899Y0414941D01*
X0290899Y0413343D02*
X0389077Y0413343D01*
X0389920Y0411744D02*
X0290899Y0411744D01*
X0290443Y0410146D02*
X0390763Y0410146D01*
X0391606Y0408547D02*
X0281101Y0408547D01*
X0281101Y0406949D02*
X0392449Y0406949D01*
X0393292Y0405350D02*
X0298777Y0405350D01*
X0299986Y0403752D02*
X0394134Y0403752D01*
X0394977Y0402153D02*
X0299986Y0402153D01*
X0299986Y0400555D02*
X0395820Y0400555D01*
X0396663Y0398956D02*
X0299986Y0398956D01*
X0300732Y0397358D02*
X0397506Y0397358D01*
X0398349Y0395759D02*
X0302331Y0395759D01*
X0303929Y0394161D02*
X0399192Y0394161D01*
X0400034Y0392562D02*
X0305528Y0392562D01*
X0307126Y0390964D02*
X0400877Y0390964D01*
X0401720Y0389365D02*
X0308725Y0389365D01*
X0310323Y0387767D02*
X0402563Y0387767D01*
X0403406Y0386168D02*
X0311922Y0386168D01*
X0313210Y0384570D02*
X0404249Y0384570D01*
X0405092Y0382971D02*
X0313475Y0382971D01*
X0313475Y0381373D02*
X0405934Y0381373D01*
X0406777Y0379774D02*
X0313475Y0379774D01*
X0313475Y0378176D02*
X0407620Y0378176D01*
X0418577Y0357395D02*
X0320233Y0357395D01*
X0324293Y0355797D02*
X0419420Y0355797D01*
X0420263Y0354198D02*
X0325892Y0354198D01*
X0327490Y0352599D02*
X0421106Y0352599D01*
X0421949Y0351001D02*
X0329032Y0351001D01*
X0329475Y0349402D02*
X0422791Y0349402D01*
X0423634Y0347804D02*
X0329475Y0347804D01*
X0329475Y0346205D02*
X0424477Y0346205D01*
X0425320Y0344607D02*
X0329475Y0344607D01*
X0329475Y0343008D02*
X0426163Y0343008D01*
X0427006Y0341410D02*
X0329475Y0341410D01*
X0329475Y0339811D02*
X0427849Y0339811D01*
X0428691Y0338213D02*
X0329475Y0338213D01*
X0329475Y0336614D02*
X0429534Y0336614D01*
X0430377Y0335016D02*
X0328997Y0335016D01*
X0327407Y0333417D02*
X0431220Y0333417D01*
X0432063Y0331819D02*
X0325809Y0331819D01*
X0324210Y0330220D02*
X0432906Y0330220D01*
X0433748Y0328622D02*
X0322612Y0328622D01*
X0321013Y0327023D02*
X0434591Y0327023D01*
X0435434Y0325425D02*
X0289355Y0325425D01*
X0289553Y0323826D02*
X0436277Y0323826D01*
X0437120Y0322228D02*
X0285280Y0322228D01*
X0284320Y0322228D02*
X0274362Y0322228D01*
X0272764Y0323826D02*
X0280047Y0323826D01*
X0280047Y0324836D02*
X0280047Y0322520D01*
X0284320Y0322520D01*
X0284320Y0326399D01*
X0281610Y0326399D01*
X0281152Y0326277D01*
X0280742Y0326040D01*
X0280407Y0325704D01*
X0280170Y0325294D01*
X0280047Y0324836D01*
X0280245Y0325425D02*
X0271165Y0325425D01*
X0269567Y0327023D02*
X0289587Y0327023D01*
X0287988Y0328622D02*
X0267968Y0328622D01*
X0266370Y0330220D02*
X0286390Y0330220D01*
X0284791Y0331819D02*
X0264771Y0331819D01*
X0263172Y0333417D02*
X0283193Y0333417D01*
X0281594Y0335016D02*
X0255474Y0335016D01*
X0254596Y0336614D02*
X0279996Y0336614D01*
X0278397Y0338213D02*
X0224975Y0338213D01*
X0238701Y0328622D02*
X0195468Y0328622D01*
X0193870Y0330220D02*
X0199735Y0330220D01*
X0198137Y0331819D02*
X0192271Y0331819D01*
X0190672Y0333417D02*
X0196538Y0333417D01*
X0205743Y0327023D02*
X0242967Y0327023D01*
X0242580Y0328622D02*
X0243539Y0328622D01*
X0243539Y0330220D02*
X0242580Y0330220D01*
X0246238Y0320629D02*
X0249362Y0320629D01*
X0249362Y0319031D02*
X0246238Y0319031D01*
X0246238Y0317432D02*
X0249362Y0317432D01*
X0249872Y0315834D02*
X0245728Y0315834D01*
X0255674Y0319493D02*
X0256867Y0318300D01*
X0263800Y0318300D01*
X0281993Y0300107D01*
X0298926Y0300107D01*
X0292921Y0296652D02*
X0280438Y0296652D01*
X0279360Y0298250D02*
X0278840Y0298250D01*
X0277762Y0299849D02*
X0277241Y0299849D01*
X0272966Y0304644D02*
X0261411Y0304644D01*
X0260747Y0293455D02*
X0264881Y0293455D01*
X0267100Y0293455D02*
X0267500Y0293455D01*
X0267500Y0294100D02*
X0267500Y0286500D01*
X0272100Y0286500D01*
X0272100Y0289678D01*
X0271982Y0290424D01*
X0271748Y0291143D01*
X0271405Y0291816D01*
X0270961Y0292427D01*
X0270427Y0292961D01*
X0269816Y0293405D01*
X0269143Y0293748D01*
X0268424Y0293982D01*
X0267678Y0294100D01*
X0267500Y0294100D01*
X0267500Y0291856D02*
X0267100Y0291856D01*
X0267100Y0290258D02*
X0267500Y0290258D01*
X0267500Y0288659D02*
X0267100Y0288659D01*
X0267100Y0287061D02*
X0267500Y0287061D01*
X0267500Y0285462D02*
X0267100Y0285462D01*
X0267100Y0283863D02*
X0267500Y0283863D01*
X0267500Y0282265D02*
X0267100Y0282265D01*
X0267100Y0280666D02*
X0267500Y0280666D01*
X0267500Y0279068D02*
X0267100Y0279068D01*
X0265033Y0279068D02*
X0260669Y0279068D01*
X0262027Y0280666D02*
X0263280Y0280666D01*
X0264395Y0275871D02*
X0259205Y0275871D01*
X0261377Y0274272D02*
X0262223Y0274272D01*
X0269205Y0275871D02*
X0283625Y0275871D01*
X0282223Y0274272D02*
X0280564Y0274272D01*
X0277000Y0274272D02*
X0276600Y0274272D01*
X0276600Y0272674D02*
X0277000Y0272674D01*
X0277000Y0271075D02*
X0276600Y0271075D01*
X0276600Y0269477D02*
X0277000Y0269477D01*
X0277000Y0267878D02*
X0276600Y0267878D01*
X0276600Y0266280D02*
X0277000Y0266280D01*
X0277000Y0264681D02*
X0276600Y0264681D01*
X0276600Y0263083D02*
X0277000Y0263083D01*
X0277000Y0261484D02*
X0276600Y0261484D01*
X0276600Y0259886D02*
X0277000Y0259886D01*
X0277000Y0258287D02*
X0276600Y0258287D01*
X0274547Y0258287D02*
X0270337Y0258287D01*
X0271894Y0259886D02*
X0272533Y0259886D01*
X0269986Y0255090D02*
X0290600Y0255090D01*
X0289002Y0253492D02*
X0269986Y0253492D01*
X0269986Y0251893D02*
X0287403Y0251893D01*
X0285805Y0250295D02*
X0269986Y0250295D01*
X0269838Y0248696D02*
X0284206Y0248696D01*
X0282608Y0247098D02*
X0263269Y0247098D01*
X0261670Y0245499D02*
X0281009Y0245499D01*
X0279411Y0243901D02*
X0260072Y0243901D01*
X0259500Y0242572D02*
X0259042Y0242450D01*
X0258632Y0242213D01*
X0258297Y0241878D01*
X0258060Y0241467D01*
X0257937Y0241009D01*
X0257937Y0238890D01*
X0263391Y0238890D01*
X0263391Y0238324D01*
X0263957Y0238324D01*
X0263957Y0238890D01*
X0269411Y0238890D01*
X0269411Y0241009D01*
X0269288Y0241467D01*
X0269051Y0241878D01*
X0268716Y0242213D01*
X0268306Y0242450D01*
X0267848Y0242572D01*
X0263957Y0242572D01*
X0263957Y0238890D01*
X0263391Y0238890D01*
X0263391Y0242572D01*
X0259500Y0242572D01*
X0258787Y0242302D02*
X0253692Y0242302D01*
X0254238Y0240704D02*
X0257937Y0240704D01*
X0257937Y0239105D02*
X0254238Y0239105D01*
X0254238Y0237507D02*
X0257937Y0237507D01*
X0257937Y0238324D02*
X0257937Y0236205D01*
X0258060Y0235747D01*
X0258297Y0235337D01*
X0258632Y0235001D01*
X0259042Y0234764D01*
X0259500Y0234642D01*
X0263391Y0234642D01*
X0263391Y0238324D01*
X0257937Y0238324D01*
X0258016Y0235908D02*
X0255115Y0235908D01*
X0255233Y0231300D02*
X0271300Y0231300D01*
X0300300Y0260300D01*
X0301179Y0256689D02*
X0302614Y0256689D01*
X0302614Y0255090D02*
X0299580Y0255090D01*
X0297982Y0253492D02*
X0302614Y0253492D01*
X0302679Y0251893D02*
X0296383Y0251893D01*
X0294785Y0250295D02*
X0309248Y0250295D01*
X0310847Y0248696D02*
X0293186Y0248696D01*
X0291588Y0247098D02*
X0312445Y0247098D01*
X0314044Y0245499D02*
X0289989Y0245499D01*
X0288391Y0243901D02*
X0315936Y0243901D01*
X0317233Y0246800D02*
X0336800Y0246800D01*
X0346800Y0256800D01*
X0346800Y0289300D01*
X0322800Y0313300D01*
X0322170Y0309440D02*
X0320082Y0309440D01*
X0335946Y0304644D02*
X0446391Y0304644D01*
X0447234Y0303046D02*
X0337544Y0303046D01*
X0339143Y0301447D02*
X0448077Y0301447D01*
X0448920Y0299849D02*
X0340741Y0299849D01*
X0342340Y0298250D02*
X0449763Y0298250D01*
X0450606Y0296652D02*
X0343938Y0296652D01*
X0345537Y0295053D02*
X0451448Y0295053D01*
X0452291Y0293455D02*
X0347135Y0293455D01*
X0348734Y0291856D02*
X0453134Y0291856D01*
X0453977Y0290258D02*
X0349840Y0290258D01*
X0349975Y0288659D02*
X0454820Y0288659D01*
X0455663Y0287061D02*
X0349975Y0287061D01*
X0349975Y0285462D02*
X0456505Y0285462D01*
X0457348Y0283863D02*
X0349975Y0283863D01*
X0349975Y0282265D02*
X0458191Y0282265D01*
X0459034Y0280666D02*
X0349975Y0280666D01*
X0349975Y0279068D02*
X0459877Y0279068D01*
X0460720Y0277469D02*
X0349975Y0277469D01*
X0349975Y0275871D02*
X0461563Y0275871D01*
X0462405Y0274272D02*
X0349975Y0274272D01*
X0349975Y0272674D02*
X0463248Y0272674D01*
X0464091Y0271075D02*
X0349975Y0271075D01*
X0349975Y0269477D02*
X0464934Y0269477D01*
X0465777Y0267878D02*
X0349975Y0267878D01*
X0349975Y0266280D02*
X0466620Y0266280D01*
X0467463Y0264681D02*
X0349975Y0264681D01*
X0349975Y0263083D02*
X0468305Y0263083D01*
X0469148Y0261484D02*
X0349975Y0261484D01*
X0349975Y0259886D02*
X0469991Y0259886D01*
X0470834Y0258287D02*
X0349975Y0258287D01*
X0349975Y0256689D02*
X0471677Y0256689D01*
X0472520Y0255090D02*
X0349528Y0255090D01*
X0347982Y0253492D02*
X0473363Y0253492D01*
X0474205Y0251893D02*
X0346383Y0251893D01*
X0344785Y0250295D02*
X0475048Y0250295D01*
X0475891Y0248696D02*
X0343186Y0248696D01*
X0341588Y0247098D02*
X0476734Y0247098D01*
X0477577Y0245499D02*
X0339989Y0245499D01*
X0338097Y0243901D02*
X0478420Y0243901D01*
X0479262Y0242302D02*
X0286792Y0242302D01*
X0285194Y0240704D02*
X0480105Y0240704D01*
X0480948Y0239105D02*
X0283595Y0239105D01*
X0281997Y0237507D02*
X0481791Y0237507D01*
X0482634Y0235908D02*
X0280398Y0235908D01*
X0278799Y0234310D02*
X0483477Y0234310D01*
X0484320Y0232711D02*
X0277201Y0232711D01*
X0275602Y0231113D02*
X0485162Y0231113D01*
X0486005Y0229514D02*
X0274004Y0229514D01*
X0271418Y0235908D02*
X0269332Y0235908D01*
X0269288Y0235747D02*
X0269411Y0236205D01*
X0269411Y0238324D01*
X0263957Y0238324D01*
X0263957Y0234642D01*
X0267848Y0234642D01*
X0268306Y0234764D01*
X0268716Y0235001D01*
X0269051Y0235337D01*
X0269288Y0235747D01*
X0269411Y0237507D02*
X0273017Y0237507D01*
X0274615Y0239105D02*
X0269411Y0239105D01*
X0269411Y0240704D02*
X0276214Y0240704D01*
X0277812Y0242302D02*
X0268561Y0242302D01*
X0263957Y0242302D02*
X0263391Y0242302D01*
X0263391Y0240704D02*
X0263957Y0240704D01*
X0263957Y0239105D02*
X0263391Y0239105D01*
X0263391Y0237507D02*
X0263957Y0237507D01*
X0263957Y0235908D02*
X0263391Y0235908D01*
X0255233Y0231300D02*
X0247926Y0238607D01*
X0249332Y0232711D02*
X0234201Y0232711D01*
X0235799Y0234310D02*
X0242763Y0234310D01*
X0241614Y0235908D02*
X0237398Y0235908D01*
X0238997Y0237507D02*
X0241614Y0237507D01*
X0241614Y0239105D02*
X0240595Y0239105D01*
X0242800Y0245800D02*
X0231532Y0234532D01*
X0232524Y0229514D02*
X0177395Y0229514D01*
X0175796Y0231113D02*
X0250931Y0231113D01*
X0251576Y0229514D02*
X0252529Y0229514D01*
X0253174Y0227916D02*
X0304426Y0227916D01*
X0302827Y0226317D02*
X0254773Y0226317D01*
X0256371Y0224719D02*
X0301229Y0224719D01*
X0299630Y0223120D02*
X0257970Y0223120D01*
X0259568Y0221522D02*
X0272614Y0221522D01*
X0272614Y0219923D02*
X0261167Y0219923D01*
X0262765Y0218325D02*
X0272614Y0218325D01*
X0272614Y0216726D02*
X0264364Y0216726D01*
X0265962Y0215128D02*
X0272831Y0215128D01*
X0269159Y0211930D02*
X0283499Y0211930D01*
X0285097Y0210332D02*
X0270758Y0210332D01*
X0272356Y0208733D02*
X0273092Y0208733D01*
X0271493Y0205107D02*
X0248800Y0227800D01*
X0235300Y0227800D01*
X0229300Y0221800D01*
X0230107Y0220993D01*
X0230107Y0219674D01*
X0225567Y0219923D02*
X0212667Y0219923D01*
X0214265Y0218325D02*
X0225567Y0218325D01*
X0225567Y0216726D02*
X0215864Y0216726D01*
X0217462Y0215128D02*
X0225567Y0215128D01*
X0225567Y0221522D02*
X0211068Y0221522D01*
X0209470Y0223120D02*
X0225567Y0223120D01*
X0225691Y0224719D02*
X0207871Y0224719D01*
X0206085Y0226317D02*
X0229327Y0226317D01*
X0230926Y0227916D02*
X0199712Y0227916D01*
X0204607Y0223493D02*
X0194674Y0223493D01*
X0188362Y0223120D02*
X0185238Y0223120D01*
X0185238Y0221522D02*
X0188362Y0221522D01*
X0188783Y0219923D02*
X0186167Y0219923D01*
X0187765Y0218325D02*
X0205286Y0218325D01*
X0203687Y0219923D02*
X0200565Y0219923D01*
X0204607Y0223493D02*
X0216300Y0211800D01*
X0235619Y0211800D01*
X0243493Y0203926D01*
X0248033Y0203938D02*
X0268172Y0203938D01*
X0266574Y0205536D02*
X0248033Y0205536D01*
X0248033Y0207135D02*
X0264975Y0207135D01*
X0263377Y0208733D02*
X0248033Y0208733D01*
X0246353Y0214060D02*
X0246763Y0214297D01*
X0247099Y0214632D01*
X0247336Y0215042D01*
X0247458Y0215500D01*
X0247458Y0219391D01*
X0243776Y0219391D01*
X0243776Y0213937D01*
X0245895Y0213937D01*
X0246353Y0214060D01*
X0247358Y0215128D02*
X0256983Y0215128D01*
X0255384Y0216726D02*
X0247458Y0216726D01*
X0247458Y0218325D02*
X0253786Y0218325D01*
X0252187Y0219923D02*
X0243776Y0219923D01*
X0243210Y0219923D02*
X0234647Y0219923D01*
X0234647Y0218325D02*
X0239528Y0218325D01*
X0239528Y0219391D02*
X0239528Y0215500D01*
X0239650Y0215042D01*
X0239887Y0214632D01*
X0240222Y0214297D01*
X0240633Y0214060D01*
X0241091Y0213937D01*
X0243210Y0213937D01*
X0243210Y0219391D01*
X0239528Y0219391D01*
X0239528Y0221522D02*
X0234647Y0221522D01*
X0235110Y0223120D02*
X0239528Y0223120D01*
X0243210Y0218325D02*
X0243776Y0218325D01*
X0243776Y0216726D02*
X0243210Y0216726D01*
X0243210Y0215128D02*
X0243776Y0215128D01*
X0239627Y0215128D02*
X0234647Y0215128D01*
X0234647Y0216726D02*
X0239528Y0216726D01*
X0238380Y0213529D02*
X0258581Y0213529D01*
X0260180Y0211930D02*
X0239978Y0211930D01*
X0241577Y0210332D02*
X0261778Y0210332D01*
X0267561Y0213529D02*
X0281900Y0213529D01*
X0281426Y0218493D02*
X0278926Y0218493D01*
X0281426Y0218493D02*
X0288119Y0211800D01*
X0310300Y0211800D01*
X0315300Y0206800D01*
X0315800Y0206800D01*
X0316258Y0210332D02*
X0318485Y0210332D01*
X0318189Y0211930D02*
X0314659Y0211930D01*
X0313061Y0213529D02*
X0323643Y0213529D01*
X0324209Y0213529D02*
X0333362Y0213529D01*
X0333362Y0215128D02*
X0329663Y0215128D01*
X0329663Y0215895D02*
X0329540Y0216353D01*
X0329303Y0216763D01*
X0328968Y0217099D01*
X0328558Y0217336D01*
X0328100Y0217458D01*
X0324209Y0217458D01*
X0324209Y0213776D01*
X0329663Y0213776D01*
X0329663Y0215895D01*
X0329325Y0216726D02*
X0332560Y0216726D01*
X0330962Y0218325D02*
X0303814Y0218325D01*
X0305413Y0219923D02*
X0329363Y0219923D01*
X0327765Y0221522D02*
X0307011Y0221522D01*
X0306800Y0225800D02*
X0299493Y0218493D01*
X0294674Y0218493D01*
X0288362Y0218325D02*
X0286084Y0218325D01*
X0285238Y0219923D02*
X0288362Y0219923D01*
X0288362Y0221522D02*
X0285238Y0221522D01*
X0287683Y0216726D02*
X0288362Y0216726D01*
X0287226Y0208733D02*
X0284760Y0208733D01*
X0285238Y0207135D02*
X0288937Y0207135D01*
X0288937Y0205536D02*
X0285238Y0205536D01*
X0285238Y0203938D02*
X0288937Y0203938D01*
X0288937Y0204824D02*
X0288937Y0202705D01*
X0289060Y0202247D01*
X0289297Y0201837D01*
X0289632Y0201501D01*
X0290042Y0201264D01*
X0290500Y0201142D01*
X0294391Y0201142D01*
X0294391Y0204824D01*
X0288937Y0204824D01*
X0289035Y0202339D02*
X0285238Y0202339D01*
X0284021Y0200741D02*
X0305251Y0200741D01*
X0306850Y0202339D02*
X0300313Y0202339D01*
X0300288Y0202247D02*
X0300411Y0202705D01*
X0300411Y0204824D01*
X0294957Y0204824D01*
X0294957Y0201142D01*
X0298848Y0201142D01*
X0299306Y0201264D01*
X0299716Y0201501D01*
X0300051Y0201837D01*
X0300288Y0202247D01*
X0300411Y0203938D02*
X0308448Y0203938D01*
X0310047Y0205536D02*
X0300411Y0205536D01*
X0300411Y0207135D02*
X0310475Y0207135D01*
X0315829Y0202339D02*
X0317614Y0202339D01*
X0317614Y0200741D02*
X0314231Y0200741D01*
X0312632Y0199142D02*
X0317614Y0199142D01*
X0317614Y0197544D02*
X0311034Y0197544D01*
X0309435Y0195945D02*
X0318627Y0195945D01*
X0320751Y0194347D02*
X0307837Y0194347D01*
X0309061Y0192748D02*
X0310020Y0192748D01*
X0310020Y0194053D02*
X0310020Y0189780D01*
X0313899Y0189780D01*
X0313899Y0192490D01*
X0313777Y0192948D01*
X0313540Y0193358D01*
X0313204Y0193693D01*
X0312794Y0193930D01*
X0312336Y0194053D01*
X0310020Y0194053D01*
X0310020Y0191150D02*
X0309061Y0191150D01*
X0310020Y0189551D02*
X0320751Y0189551D01*
X0320751Y0187953D02*
X0313899Y0187953D01*
X0313899Y0186354D02*
X0320751Y0186354D01*
X0320751Y0184756D02*
X0312943Y0184756D01*
X0310020Y0184756D02*
X0309061Y0184756D01*
X0309061Y0186354D02*
X0310020Y0186354D01*
X0310020Y0187953D02*
X0309061Y0187953D01*
X0313899Y0191150D02*
X0320751Y0191150D01*
X0320751Y0192748D02*
X0313830Y0192748D01*
X0303653Y0199142D02*
X0248033Y0199142D01*
X0248033Y0200741D02*
X0273831Y0200741D01*
X0269878Y0202339D02*
X0248033Y0202339D01*
X0238953Y0202339D02*
X0234647Y0202339D01*
X0234647Y0200741D02*
X0238953Y0200741D01*
X0238953Y0199142D02*
X0234647Y0199142D01*
X0234046Y0197544D02*
X0302054Y0197544D01*
X0294957Y0202339D02*
X0294391Y0202339D01*
X0294391Y0203938D02*
X0294957Y0203938D01*
X0300769Y0215128D02*
X0318189Y0215128D01*
X0318527Y0216726D02*
X0302216Y0216726D01*
X0306800Y0225800D02*
X0327976Y0225800D01*
X0339674Y0214102D01*
X0339674Y0213493D01*
X0339941Y0218325D02*
X0491905Y0218325D01*
X0491062Y0219923D02*
X0338343Y0219923D01*
X0336744Y0221522D02*
X0490220Y0221522D01*
X0489377Y0223120D02*
X0335146Y0223120D01*
X0333547Y0224719D02*
X0488534Y0224719D01*
X0487691Y0226317D02*
X0331949Y0226317D01*
X0330350Y0227916D02*
X0486848Y0227916D01*
X0492748Y0216726D02*
X0345902Y0216726D01*
X0345986Y0215128D02*
X0493591Y0215128D01*
X0494434Y0213529D02*
X0345986Y0213529D01*
X0345986Y0211930D02*
X0495277Y0211930D01*
X0496120Y0210332D02*
X0345974Y0210332D01*
X0345304Y0203938D02*
X0350827Y0203938D01*
X0351024Y0195945D02*
X0344973Y0195945D01*
X0351047Y0194347D02*
X0327101Y0194347D01*
X0327101Y0192748D02*
X0355320Y0192748D01*
X0356280Y0192748D02*
X0366362Y0192748D01*
X0367125Y0191150D02*
X0360553Y0191150D01*
X0360553Y0192080D02*
X0360553Y0189764D01*
X0360430Y0189306D01*
X0360193Y0188896D01*
X0359858Y0188560D01*
X0359448Y0188323D01*
X0358990Y0188201D01*
X0356280Y0188201D01*
X0356280Y0192080D01*
X0360553Y0192080D01*
X0360553Y0194347D02*
X0364763Y0194347D01*
X0363165Y0195945D02*
X0360575Y0195945D01*
X0360496Y0189551D02*
X0367125Y0189551D01*
X0367125Y0187953D02*
X0327101Y0187953D01*
X0327101Y0189551D02*
X0351104Y0189551D01*
X0351047Y0191150D02*
X0327101Y0191150D01*
X0327101Y0186354D02*
X0367125Y0186354D01*
X0367854Y0184756D02*
X0359960Y0184756D01*
X0361933Y0183157D02*
X0369453Y0183157D01*
X0368502Y0184109D02*
X0368502Y0184109D01*
X0371051Y0181559D02*
X0363531Y0181559D01*
X0365130Y0179960D02*
X0372650Y0179960D01*
X0374248Y0178362D02*
X0366589Y0178362D01*
X0366975Y0176763D02*
X0375847Y0176763D01*
X0377445Y0175165D02*
X0366975Y0175165D01*
X0366975Y0173566D02*
X0379044Y0173566D01*
X0380642Y0171968D02*
X0366975Y0171968D01*
X0366975Y0170369D02*
X0382241Y0170369D01*
X0383839Y0168771D02*
X0366975Y0168771D01*
X0366975Y0167172D02*
X0383182Y0167172D01*
X0381584Y0165574D02*
X0366975Y0165574D01*
X0366975Y0163975D02*
X0379985Y0163975D01*
X0378387Y0162377D02*
X0366975Y0162377D01*
X0366975Y0160778D02*
X0376788Y0160778D01*
X0375190Y0159180D02*
X0366975Y0159180D01*
X0366975Y0157581D02*
X0373591Y0157581D01*
X0371993Y0155983D02*
X0366898Y0155983D01*
X0365874Y0154384D02*
X0370394Y0154384D01*
X0368796Y0152786D02*
X0358533Y0152786D01*
X0358533Y0151187D02*
X0367197Y0151187D01*
X0365599Y0149589D02*
X0358116Y0149589D01*
X0364000Y0147990D02*
X0347600Y0147990D01*
X0346001Y0149589D02*
X0349870Y0149589D01*
X0349453Y0151187D02*
X0345147Y0151187D01*
X0345147Y0152786D02*
X0349453Y0152786D01*
X0349453Y0154384D02*
X0345147Y0154384D01*
X0345147Y0155983D02*
X0349453Y0155983D01*
X0349453Y0157581D02*
X0345147Y0157581D01*
X0345147Y0159180D02*
X0349453Y0159180D01*
X0350384Y0160778D02*
X0344216Y0160778D01*
X0343756Y0164362D02*
X0345147Y0165753D01*
X0345147Y0175595D01*
X0343756Y0176986D01*
X0337458Y0176986D01*
X0336067Y0175595D01*
X0336067Y0173849D01*
X0325109Y0173849D01*
X0323943Y0173365D01*
X0323049Y0172472D01*
X0313815Y0163238D01*
X0308844Y0163238D01*
X0307453Y0161847D01*
X0307453Y0152005D01*
X0308844Y0150614D01*
X0315142Y0150614D01*
X0316533Y0152005D01*
X0316533Y0156976D01*
X0327056Y0167499D01*
X0336067Y0167499D01*
X0336067Y0165753D01*
X0337458Y0164362D01*
X0343756Y0164362D01*
X0344968Y0165574D02*
X0350445Y0165574D01*
X0350387Y0165632D02*
X0350722Y0165297D01*
X0351133Y0165060D01*
X0351591Y0164937D01*
X0353710Y0164937D01*
X0353710Y0170391D01*
X0354276Y0170391D01*
X0354276Y0170957D01*
X0357958Y0170957D01*
X0357958Y0174848D01*
X0357836Y0175306D01*
X0357599Y0175716D01*
X0357263Y0176051D01*
X0356853Y0176288D01*
X0356395Y0176411D01*
X0354276Y0176411D01*
X0354276Y0170957D01*
X0353710Y0170957D01*
X0353710Y0176411D01*
X0351591Y0176411D01*
X0351133Y0176288D01*
X0350722Y0176051D01*
X0350387Y0175716D01*
X0350150Y0175306D01*
X0350028Y0174848D01*
X0350028Y0170957D01*
X0353710Y0170957D01*
X0353710Y0170391D01*
X0350028Y0170391D01*
X0350028Y0166500D01*
X0350150Y0166042D01*
X0350387Y0165632D01*
X0350028Y0167172D02*
X0345147Y0167172D01*
X0345147Y0168771D02*
X0350028Y0168771D01*
X0350028Y0170369D02*
X0345147Y0170369D01*
X0345147Y0171968D02*
X0350028Y0171968D01*
X0350028Y0173566D02*
X0345147Y0173566D01*
X0345147Y0175165D02*
X0350112Y0175165D01*
X0353710Y0175165D02*
X0354276Y0175165D01*
X0354276Y0173566D02*
X0353710Y0173566D01*
X0353710Y0171968D02*
X0354276Y0171968D01*
X0354276Y0170391D02*
X0357958Y0170391D01*
X0357958Y0166500D01*
X0357836Y0166042D01*
X0357599Y0165632D01*
X0357263Y0165297D01*
X0356853Y0165060D01*
X0356395Y0164937D01*
X0354276Y0164937D01*
X0354276Y0170391D01*
X0354276Y0170369D02*
X0353710Y0170369D01*
X0353710Y0168771D02*
X0354276Y0168771D01*
X0354276Y0167172D02*
X0353710Y0167172D01*
X0353710Y0165574D02*
X0354276Y0165574D01*
X0357541Y0165574D02*
X0360625Y0165574D01*
X0360625Y0167172D02*
X0357958Y0167172D01*
X0357958Y0168771D02*
X0360625Y0168771D01*
X0360625Y0170369D02*
X0357958Y0170369D01*
X0357958Y0171968D02*
X0360625Y0171968D01*
X0360625Y0173566D02*
X0357958Y0173566D01*
X0357873Y0175165D02*
X0360625Y0175165D01*
X0359347Y0176763D02*
X0343979Y0176763D01*
X0337235Y0176763D02*
X0315958Y0176763D01*
X0315958Y0176848D02*
X0315836Y0177306D01*
X0315599Y0177716D01*
X0315263Y0178051D01*
X0314853Y0178288D01*
X0314395Y0178411D01*
X0312276Y0178411D01*
X0312276Y0172957D01*
X0315958Y0172957D01*
X0315958Y0176848D01*
X0315958Y0175165D02*
X0336067Y0175165D01*
X0340607Y0170674D02*
X0325741Y0170674D01*
X0311993Y0156926D01*
X0307453Y0157581D02*
X0303147Y0157581D01*
X0303147Y0155983D02*
X0307453Y0155983D01*
X0307453Y0154384D02*
X0303147Y0154384D01*
X0303147Y0152786D02*
X0307453Y0152786D01*
X0308271Y0151187D02*
X0303186Y0151187D01*
X0298436Y0146392D02*
X0282553Y0146392D01*
X0282553Y0145764D02*
X0282553Y0148080D01*
X0278280Y0148080D01*
X0278280Y0144201D01*
X0280990Y0144201D01*
X0281448Y0144323D01*
X0281858Y0144560D01*
X0282193Y0144896D01*
X0282430Y0145306D01*
X0282553Y0145764D01*
X0282091Y0144793D02*
X0300034Y0144793D01*
X0299939Y0144888D02*
X0299939Y0144888D01*
X0296837Y0147990D02*
X0282553Y0147990D01*
X0282553Y0149589D02*
X0295536Y0149589D01*
X0294885Y0151187D02*
X0282553Y0151187D01*
X0283128Y0152786D02*
X0294067Y0152786D01*
X0298607Y0156926D02*
X0278686Y0156926D01*
X0277800Y0156040D01*
X0256800Y0156040D01*
X0256800Y0139733D01*
X0256800Y0106800D01*
X0251572Y0111224D02*
X0251384Y0111224D01*
X0250537Y0112823D02*
X0252234Y0112823D01*
X0253625Y0114421D02*
X0248110Y0114421D01*
X0247000Y0114421D02*
X0246600Y0114421D01*
X0245490Y0114421D02*
X0021295Y0114421D01*
X0020726Y0112823D02*
X0243063Y0112823D01*
X0242216Y0111224D02*
X0020157Y0111224D01*
X0019587Y0109626D02*
X0242000Y0109626D01*
X0242000Y0108027D02*
X0019018Y0108027D01*
X0018449Y0106429D02*
X0242000Y0106429D01*
X0242000Y0106600D02*
X0242000Y0103422D01*
X0242118Y0102676D01*
X0242352Y0101957D01*
X0242695Y0101284D01*
X0243139Y0100673D01*
X0243673Y0100139D01*
X0244284Y0099695D01*
X0244957Y0099352D01*
X0245676Y0099118D01*
X0246422Y0099000D01*
X0246600Y0099000D01*
X0246600Y0106600D01*
X0242000Y0106600D01*
X0242000Y0104830D02*
X0017879Y0104830D01*
X0017310Y0103232D02*
X0242030Y0103232D01*
X0242517Y0101633D02*
X0016800Y0101633D01*
X0016800Y0100035D02*
X0243816Y0100035D01*
X0246600Y0100035D02*
X0247000Y0100035D01*
X0247000Y0101633D02*
X0246600Y0101633D01*
X0246600Y0103232D02*
X0247000Y0103232D01*
X0247000Y0104830D02*
X0246600Y0104830D01*
X0246600Y0106429D02*
X0247000Y0106429D01*
X0247000Y0108027D02*
X0246600Y0108027D01*
X0246600Y0109626D02*
X0247000Y0109626D01*
X0247000Y0111224D02*
X0246600Y0111224D01*
X0246600Y0112823D02*
X0247000Y0112823D01*
X0253625Y0116020D02*
X0021865Y0116020D01*
X0022434Y0117618D02*
X0253625Y0117618D01*
X0253625Y0119217D02*
X0023003Y0119217D01*
X0023573Y0120815D02*
X0253625Y0120815D01*
X0253625Y0122414D02*
X0024142Y0122414D01*
X0024711Y0124012D02*
X0253625Y0124012D01*
X0253625Y0125611D02*
X0025281Y0125611D01*
X0025850Y0127209D02*
X0253625Y0127209D01*
X0253625Y0128808D02*
X0026419Y0128808D01*
X0026989Y0130406D02*
X0253625Y0130406D01*
X0253625Y0132005D02*
X0027558Y0132005D01*
X0028127Y0133603D02*
X0253625Y0133603D01*
X0253625Y0135202D02*
X0028697Y0135202D01*
X0029266Y0136800D02*
X0253625Y0136800D01*
X0253625Y0138399D02*
X0029835Y0138399D01*
X0030405Y0139997D02*
X0252046Y0139997D01*
X0250447Y0141596D02*
X0030974Y0141596D01*
X0031543Y0143195D02*
X0190416Y0143195D01*
X0188817Y0144793D02*
X0155283Y0144793D01*
X0156881Y0146392D02*
X0166411Y0146392D01*
X0166047Y0147990D02*
X0158480Y0147990D01*
X0160078Y0149589D02*
X0170320Y0149589D01*
X0171280Y0149580D02*
X0171280Y0145701D01*
X0173990Y0145701D01*
X0174448Y0145823D01*
X0174858Y0146060D01*
X0175193Y0146396D01*
X0175430Y0146806D01*
X0175553Y0147264D01*
X0175553Y0149580D01*
X0171280Y0149580D01*
X0171280Y0149589D02*
X0184022Y0149589D01*
X0182423Y0151187D02*
X0175553Y0151187D01*
X0175553Y0152786D02*
X0178787Y0152786D01*
X0183107Y0154993D02*
X0193300Y0144800D01*
X0204300Y0144800D01*
X0210300Y0150800D01*
X0210300Y0157300D01*
X0214040Y0161040D01*
X0218800Y0161040D01*
X0224186Y0166426D01*
X0230107Y0166426D01*
X0256800Y0139733D01*
X0259975Y0144793D02*
X0273509Y0144793D01*
X0273047Y0146392D02*
X0259975Y0146392D01*
X0259975Y0147990D02*
X0273047Y0147990D01*
X0273047Y0149589D02*
X0259975Y0149589D01*
X0259975Y0151187D02*
X0273047Y0151187D01*
X0272472Y0152786D02*
X0259975Y0152786D01*
X0253625Y0152786D02*
X0248237Y0152786D01*
X0246639Y0154384D02*
X0253625Y0154384D01*
X0253625Y0155983D02*
X0245040Y0155983D01*
X0243442Y0157581D02*
X0254002Y0157581D01*
X0256083Y0159180D02*
X0241843Y0159180D01*
X0238953Y0162377D02*
X0238646Y0162377D01*
X0238953Y0163975D02*
X0237048Y0163975D01*
X0235449Y0165574D02*
X0238953Y0165574D01*
X0238953Y0167172D02*
X0234647Y0167172D01*
X0234647Y0168771D02*
X0238953Y0168771D01*
X0238953Y0170369D02*
X0234647Y0170369D01*
X0234026Y0171968D02*
X0239574Y0171968D01*
X0240633Y0176560D02*
X0241091Y0176437D01*
X0243210Y0176437D01*
X0243210Y0181891D01*
X0243776Y0181891D01*
X0243776Y0182457D01*
X0247458Y0182457D01*
X0247458Y0186348D01*
X0247336Y0186806D01*
X0247099Y0187216D01*
X0246763Y0187551D01*
X0246353Y0187788D01*
X0245895Y0187911D01*
X0243776Y0187911D01*
X0243776Y0182457D01*
X0243210Y0182457D01*
X0243210Y0187911D01*
X0241091Y0187911D01*
X0240633Y0187788D01*
X0240222Y0187551D01*
X0239887Y0187216D01*
X0239650Y0186806D01*
X0239528Y0186348D01*
X0239528Y0182457D01*
X0243210Y0182457D01*
X0243210Y0181891D01*
X0239528Y0181891D01*
X0239528Y0178000D01*
X0239650Y0177542D01*
X0239887Y0177132D01*
X0240222Y0176797D01*
X0240633Y0176560D01*
X0240280Y0176763D02*
X0234157Y0176763D01*
X0234647Y0177253D02*
X0234647Y0187095D01*
X0233256Y0188486D01*
X0226958Y0188486D01*
X0225567Y0187095D01*
X0225567Y0185349D01*
X0220109Y0185349D01*
X0218943Y0184865D01*
X0218049Y0183972D01*
X0198315Y0164238D01*
X0193344Y0164238D01*
X0191953Y0162847D01*
X0191953Y0153005D01*
X0193344Y0151614D01*
X0199642Y0151614D01*
X0201033Y0153005D01*
X0201033Y0157976D01*
X0222056Y0178999D01*
X0225567Y0178999D01*
X0225567Y0177253D01*
X0226958Y0175862D01*
X0233256Y0175862D01*
X0234647Y0177253D01*
X0234647Y0178362D02*
X0239528Y0178362D01*
X0239528Y0179960D02*
X0234647Y0179960D01*
X0234647Y0181559D02*
X0239528Y0181559D01*
X0239528Y0183157D02*
X0234647Y0183157D01*
X0234647Y0184756D02*
X0239528Y0184756D01*
X0239529Y0186354D02*
X0234647Y0186354D01*
X0233789Y0187953D02*
X0297126Y0187953D01*
X0297126Y0189551D02*
X0155474Y0189551D01*
X0155474Y0187953D02*
X0226425Y0187953D01*
X0225567Y0186354D02*
X0155474Y0186354D01*
X0155474Y0184756D02*
X0218833Y0184756D01*
X0217234Y0183157D02*
X0155474Y0183157D01*
X0154169Y0181559D02*
X0215636Y0181559D01*
X0214037Y0179960D02*
X0186282Y0179960D01*
X0187647Y0178362D02*
X0192683Y0178362D01*
X0192650Y0178306D02*
X0192528Y0177848D01*
X0192528Y0173957D01*
X0196210Y0173957D01*
X0196210Y0179411D01*
X0194091Y0179411D01*
X0193633Y0179288D01*
X0193222Y0179051D01*
X0192887Y0178716D01*
X0192650Y0178306D01*
X0192528Y0176763D02*
X0187647Y0176763D01*
X0187647Y0175165D02*
X0192528Y0175165D01*
X0192528Y0173391D02*
X0192528Y0169500D01*
X0192650Y0169042D01*
X0192887Y0168632D01*
X0193222Y0168297D01*
X0193633Y0168060D01*
X0194091Y0167937D01*
X0196210Y0167937D01*
X0196210Y0173391D01*
X0196776Y0173391D01*
X0196776Y0173957D01*
X0200458Y0173957D01*
X0200458Y0177848D01*
X0200336Y0178306D01*
X0200099Y0178716D01*
X0199763Y0179051D01*
X0199353Y0179288D01*
X0198895Y0179411D01*
X0196776Y0179411D01*
X0196776Y0173957D01*
X0196210Y0173957D01*
X0196210Y0173391D01*
X0192528Y0173391D01*
X0192528Y0171968D02*
X0187647Y0171968D01*
X0187647Y0173566D02*
X0196210Y0173566D01*
X0196776Y0173566D02*
X0207643Y0173566D01*
X0206045Y0171968D02*
X0200458Y0171968D01*
X0200458Y0173391D02*
X0200458Y0169500D01*
X0200336Y0169042D01*
X0200099Y0168632D01*
X0199763Y0168297D01*
X0199353Y0168060D01*
X0198895Y0167937D01*
X0196776Y0167937D01*
X0196776Y0173391D01*
X0200458Y0173391D01*
X0200458Y0175165D02*
X0209242Y0175165D01*
X0210840Y0176763D02*
X0200458Y0176763D01*
X0200303Y0178362D02*
X0212439Y0178362D01*
X0216623Y0173566D02*
X0260825Y0173566D01*
X0260843Y0171968D02*
X0247412Y0171968D01*
X0248033Y0170369D02*
X0261505Y0170369D01*
X0262780Y0168771D02*
X0248033Y0168771D01*
X0243493Y0166426D02*
X0245745Y0164174D01*
X0290107Y0164174D01*
X0298607Y0172674D01*
X0303147Y0171968D02*
X0308028Y0171968D01*
X0308028Y0172391D02*
X0308028Y0168500D01*
X0308150Y0168042D01*
X0308387Y0167632D01*
X0308722Y0167297D01*
X0309133Y0167060D01*
X0309591Y0166937D01*
X0311710Y0166937D01*
X0311710Y0172391D01*
X0312276Y0172391D01*
X0312276Y0172957D01*
X0311710Y0172957D01*
X0311710Y0178411D01*
X0309591Y0178411D01*
X0309133Y0178288D01*
X0308722Y0178051D01*
X0308387Y0177716D01*
X0308150Y0177306D01*
X0308028Y0176848D01*
X0308028Y0172957D01*
X0311710Y0172957D01*
X0311710Y0172391D01*
X0308028Y0172391D01*
X0308028Y0173566D02*
X0303147Y0173566D01*
X0303147Y0175165D02*
X0308028Y0175165D01*
X0308028Y0176763D02*
X0303147Y0176763D01*
X0302380Y0178362D02*
X0309407Y0178362D01*
X0311710Y0178362D02*
X0312276Y0178362D01*
X0312276Y0176763D02*
X0311710Y0176763D01*
X0311710Y0175165D02*
X0312276Y0175165D01*
X0312276Y0173566D02*
X0311710Y0173566D01*
X0312276Y0172391D02*
X0315958Y0172391D01*
X0315958Y0168500D01*
X0315836Y0168042D01*
X0315599Y0167632D01*
X0315263Y0167297D01*
X0314853Y0167060D01*
X0314395Y0166937D01*
X0312276Y0166937D01*
X0312276Y0172391D01*
X0312276Y0171968D02*
X0311710Y0171968D01*
X0311710Y0170369D02*
X0312276Y0170369D01*
X0312276Y0168771D02*
X0311710Y0168771D01*
X0311710Y0167172D02*
X0312276Y0167172D01*
X0315048Y0167172D02*
X0317749Y0167172D01*
X0316151Y0165574D02*
X0295997Y0165574D01*
X0294398Y0163975D02*
X0314552Y0163975D01*
X0315958Y0168771D02*
X0319348Y0168771D01*
X0320946Y0170369D02*
X0315958Y0170369D01*
X0315958Y0171968D02*
X0322545Y0171968D01*
X0324427Y0173566D02*
X0315958Y0173566D01*
X0314579Y0178362D02*
X0357748Y0178362D01*
X0358800Y0181800D02*
X0326800Y0181800D01*
X0323926Y0184674D01*
X0323926Y0200107D01*
X0330238Y0200741D02*
X0333050Y0200741D01*
X0333362Y0199142D02*
X0330238Y0199142D01*
X0330238Y0197544D02*
X0333362Y0197544D01*
X0334375Y0195945D02*
X0329225Y0195945D01*
X0330238Y0202339D02*
X0331452Y0202339D01*
X0335636Y0207135D02*
X0497805Y0207135D01*
X0496962Y0208733D02*
X0334037Y0208733D01*
X0333374Y0210332D02*
X0329367Y0210332D01*
X0329663Y0211930D02*
X0333362Y0211930D01*
X0337234Y0205536D02*
X0498648Y0205536D01*
X0499491Y0203938D02*
X0360773Y0203938D01*
X0365750Y0202339D02*
X0500334Y0202339D01*
X0501177Y0200741D02*
X0367349Y0200741D01*
X0368947Y0199142D02*
X0502019Y0199142D01*
X0502862Y0197544D02*
X0370546Y0197544D01*
X0372144Y0195945D02*
X0503705Y0195945D01*
X0504548Y0194347D02*
X0373303Y0194347D01*
X0373475Y0192748D02*
X0505391Y0192748D01*
X0506234Y0191150D02*
X0373475Y0191150D01*
X0373475Y0189551D02*
X0507077Y0189551D01*
X0507919Y0187953D02*
X0373637Y0187953D01*
X0375236Y0186354D02*
X0508762Y0186354D01*
X0509605Y0184756D02*
X0376834Y0184756D01*
X0378433Y0183157D02*
X0510448Y0183157D01*
X0511291Y0181559D02*
X0380031Y0181559D01*
X0381630Y0179960D02*
X0512134Y0179960D01*
X0512977Y0178362D02*
X0383228Y0178362D01*
X0384827Y0176763D02*
X0513819Y0176763D01*
X0514662Y0175165D02*
X0386425Y0175165D01*
X0388024Y0173566D02*
X0515505Y0173566D01*
X0516348Y0171968D02*
X0389622Y0171968D01*
X0391221Y0170369D02*
X0517191Y0170369D01*
X0518034Y0168771D02*
X0391975Y0168771D01*
X0391769Y0167172D02*
X0518876Y0167172D01*
X0519719Y0165574D02*
X0390563Y0165574D01*
X0390598Y0165609D02*
X0390598Y0165609D01*
X0388965Y0163975D02*
X0520562Y0163975D01*
X0521405Y0162377D02*
X0387366Y0162377D01*
X0385768Y0160778D02*
X0522248Y0160778D01*
X0523091Y0159180D02*
X0384169Y0159180D01*
X0382571Y0157581D02*
X0523934Y0157581D01*
X0524776Y0155983D02*
X0380972Y0155983D01*
X0379374Y0154384D02*
X0525619Y0154384D01*
X0526462Y0152786D02*
X0377775Y0152786D01*
X0376177Y0151187D02*
X0527305Y0151187D01*
X0528148Y0149589D02*
X0374578Y0149589D01*
X0372980Y0147990D02*
X0528991Y0147990D01*
X0529834Y0146392D02*
X0371381Y0146392D01*
X0369783Y0144793D02*
X0530676Y0144793D01*
X0531519Y0143195D02*
X0368184Y0143195D01*
X0367991Y0143002D02*
X0367991Y0143002D01*
X0363800Y0156800D02*
X0355867Y0156800D01*
X0353993Y0154926D01*
X0357602Y0160778D02*
X0360625Y0160778D01*
X0360625Y0162377D02*
X0321933Y0162377D01*
X0320335Y0160778D02*
X0336998Y0160778D01*
X0336067Y0159180D02*
X0334031Y0159180D01*
X0336247Y0165574D02*
X0325130Y0165574D01*
X0323532Y0163975D02*
X0360625Y0163975D01*
X0363800Y0156800D02*
X0363800Y0176800D01*
X0358800Y0181800D01*
X0356280Y0189551D02*
X0355320Y0189551D01*
X0355320Y0191150D02*
X0356280Y0191150D01*
X0336067Y0167172D02*
X0326729Y0167172D01*
X0325569Y0159180D02*
X0318736Y0159180D01*
X0317138Y0157581D02*
X0323308Y0157581D01*
X0321710Y0155983D02*
X0316533Y0155983D01*
X0316533Y0154384D02*
X0320111Y0154384D01*
X0318513Y0152786D02*
X0316533Y0152786D01*
X0316914Y0151187D02*
X0315715Y0151187D01*
X0307453Y0159180D02*
X0303147Y0159180D01*
X0303147Y0160778D02*
X0307453Y0160778D01*
X0307983Y0162377D02*
X0302617Y0162377D01*
X0302566Y0167172D02*
X0308938Y0167172D01*
X0308028Y0168771D02*
X0303147Y0168771D01*
X0303147Y0170369D02*
X0308028Y0170369D01*
X0294067Y0173566D02*
X0292775Y0173566D01*
X0292757Y0171968D02*
X0293411Y0171968D01*
X0292775Y0175165D02*
X0294067Y0175165D01*
X0294067Y0176763D02*
X0292775Y0176763D01*
X0292775Y0178362D02*
X0294834Y0178362D01*
X0292775Y0179960D02*
X0324150Y0179960D01*
X0322551Y0181559D02*
X0292775Y0181559D01*
X0292125Y0183157D02*
X0321118Y0183157D01*
X0297734Y0184756D02*
X0290894Y0184756D01*
X0288038Y0186354D02*
X0297126Y0186354D01*
X0285562Y0186354D02*
X0278038Y0186354D01*
X0275562Y0186354D02*
X0268038Y0186354D01*
X0265562Y0186354D02*
X0247457Y0186354D01*
X0247458Y0184756D02*
X0262706Y0184756D01*
X0261475Y0183157D02*
X0247458Y0183157D01*
X0247458Y0181891D02*
X0243776Y0181891D01*
X0243776Y0176437D01*
X0245895Y0176437D01*
X0246353Y0176560D01*
X0246763Y0176797D01*
X0247099Y0177132D01*
X0247336Y0177542D01*
X0247458Y0178000D01*
X0247458Y0181891D01*
X0247458Y0181559D02*
X0260825Y0181559D01*
X0260825Y0179960D02*
X0247458Y0179960D01*
X0247458Y0178362D02*
X0260825Y0178362D01*
X0260825Y0176763D02*
X0246706Y0176763D01*
X0243776Y0176763D02*
X0243210Y0176763D01*
X0243210Y0178362D02*
X0243776Y0178362D01*
X0243776Y0179960D02*
X0243210Y0179960D01*
X0243210Y0181559D02*
X0243776Y0181559D01*
X0243776Y0183157D02*
X0243210Y0183157D01*
X0243210Y0184756D02*
X0243776Y0184756D01*
X0243776Y0186354D02*
X0243210Y0186354D01*
X0231460Y0191150D02*
X0155061Y0191150D01*
X0153715Y0192748D02*
X0164057Y0192748D01*
X0164060Y0192742D02*
X0164396Y0192407D01*
X0164806Y0192170D01*
X0165264Y0192047D01*
X0167580Y0192047D01*
X0167580Y0196320D01*
X0163701Y0196320D01*
X0163701Y0193610D01*
X0163823Y0193152D01*
X0164060Y0192742D01*
X0163701Y0194347D02*
X0153715Y0194347D01*
X0153715Y0195945D02*
X0163701Y0195945D01*
X0163701Y0197544D02*
X0153715Y0197544D01*
X0154632Y0199142D02*
X0163701Y0199142D01*
X0163993Y0200741D02*
X0157958Y0200741D01*
X0159129Y0202339D02*
X0177082Y0202339D01*
X0179124Y0203938D02*
X0159550Y0203938D01*
X0159429Y0205536D02*
X0180723Y0205536D01*
X0178926Y0210107D02*
X0171493Y0210107D01*
X0162300Y0219300D01*
X0162300Y0240800D01*
X0150800Y0252300D01*
X0150926Y0252426D01*
X0150926Y0259607D01*
X0157238Y0259886D02*
X0160362Y0259886D01*
X0160362Y0258287D02*
X0157238Y0258287D01*
X0157238Y0256689D02*
X0160362Y0256689D01*
X0161730Y0255090D02*
X0155870Y0255090D01*
X0154101Y0253492D02*
X0163499Y0253492D01*
X0163499Y0251893D02*
X0155697Y0251893D01*
X0157295Y0250295D02*
X0163499Y0250295D01*
X0164174Y0248696D02*
X0158894Y0248696D01*
X0160492Y0247098D02*
X0165772Y0247098D01*
X0166126Y0245499D02*
X0162091Y0245499D01*
X0163689Y0243901D02*
X0166126Y0243901D01*
X0166187Y0242302D02*
X0165114Y0242302D01*
X0165475Y0240704D02*
X0167885Y0240704D01*
X0167885Y0239105D02*
X0165475Y0239105D01*
X0165475Y0237507D02*
X0167885Y0237507D01*
X0167885Y0235908D02*
X0165475Y0235908D01*
X0165475Y0234310D02*
X0167885Y0234310D01*
X0167885Y0232711D02*
X0165475Y0232711D01*
X0165475Y0231113D02*
X0167885Y0231113D01*
X0168415Y0229514D02*
X0165475Y0229514D01*
X0165475Y0227916D02*
X0170013Y0227916D01*
X0169261Y0228668D02*
X0169261Y0228668D01*
X0171612Y0226317D02*
X0165475Y0226317D01*
X0165475Y0224719D02*
X0172614Y0224719D01*
X0172614Y0223120D02*
X0165475Y0223120D01*
X0165475Y0221522D02*
X0172614Y0221522D01*
X0173035Y0219923D02*
X0166167Y0219923D01*
X0167765Y0218325D02*
X0178786Y0218325D01*
X0180384Y0216726D02*
X0169364Y0216726D01*
X0170962Y0215128D02*
X0181983Y0215128D01*
X0172887Y0213529D02*
X0172561Y0213529D01*
X0168377Y0208733D02*
X0156508Y0208733D01*
X0158682Y0207135D02*
X0170372Y0207135D01*
X0166778Y0210332D02*
X0055455Y0210332D01*
X0054886Y0208733D02*
X0153092Y0208733D01*
X0150918Y0207135D02*
X0054317Y0207135D01*
X0053747Y0205536D02*
X0150171Y0205536D01*
X0150050Y0203938D02*
X0053178Y0203938D01*
X0052609Y0202339D02*
X0148850Y0202339D01*
X0147601Y0200741D02*
X0052039Y0200741D01*
X0051470Y0199142D02*
X0147365Y0199142D01*
X0147365Y0197544D02*
X0050901Y0197544D01*
X0050331Y0195945D02*
X0147365Y0195945D01*
X0147365Y0194347D02*
X0049762Y0194347D01*
X0049193Y0192748D02*
X0147365Y0192748D01*
X0150540Y0186800D02*
X0150540Y0199540D01*
X0154800Y0203800D01*
X0154800Y0204300D01*
X0163581Y0213529D02*
X0056594Y0213529D01*
X0057163Y0215128D02*
X0161983Y0215128D01*
X0160384Y0216726D02*
X0057733Y0216726D01*
X0058302Y0218325D02*
X0159268Y0218325D01*
X0159125Y0219923D02*
X0058871Y0219923D01*
X0059441Y0221522D02*
X0159125Y0221522D01*
X0159125Y0223120D02*
X0060010Y0223120D01*
X0060579Y0224719D02*
X0159125Y0224719D01*
X0159125Y0226317D02*
X0061149Y0226317D01*
X0061718Y0227916D02*
X0159125Y0227916D01*
X0159125Y0229514D02*
X0062287Y0229514D01*
X0062857Y0231113D02*
X0159125Y0231113D01*
X0159125Y0232711D02*
X0063426Y0232711D01*
X0063995Y0234310D02*
X0159125Y0234310D01*
X0159125Y0235908D02*
X0064565Y0235908D01*
X0065134Y0237507D02*
X0159125Y0237507D01*
X0159125Y0239105D02*
X0065703Y0239105D01*
X0066273Y0240704D02*
X0157906Y0240704D01*
X0156308Y0242302D02*
X0066842Y0242302D01*
X0067411Y0243901D02*
X0154709Y0243901D01*
X0153111Y0245499D02*
X0067981Y0245499D01*
X0068550Y0247098D02*
X0151512Y0247098D01*
X0149914Y0248696D02*
X0069119Y0248696D01*
X0069689Y0250295D02*
X0148315Y0250295D01*
X0147625Y0251893D02*
X0070258Y0251893D01*
X0070827Y0253492D02*
X0147751Y0253492D01*
X0145982Y0255090D02*
X0071397Y0255090D01*
X0071966Y0256689D02*
X0144614Y0256689D01*
X0144614Y0258287D02*
X0072535Y0258287D01*
X0073105Y0259886D02*
X0144614Y0259886D01*
X0144614Y0261484D02*
X0073674Y0261484D01*
X0074243Y0263083D02*
X0144941Y0263083D01*
X0145794Y0269477D02*
X0076521Y0269477D01*
X0077090Y0271075D02*
X0145189Y0271075D01*
X0145189Y0272674D02*
X0077659Y0272674D01*
X0078229Y0274272D02*
X0145189Y0274272D01*
X0145322Y0275871D02*
X0078798Y0275871D01*
X0079367Y0277469D02*
X0155625Y0277469D01*
X0155625Y0279068D02*
X0079937Y0279068D01*
X0080506Y0280666D02*
X0155723Y0280666D01*
X0156775Y0282265D02*
X0081075Y0282265D01*
X0081645Y0283863D02*
X0171125Y0283863D01*
X0171125Y0285462D02*
X0082214Y0285462D01*
X0082783Y0287061D02*
X0171125Y0287061D01*
X0171125Y0288659D02*
X0083353Y0288659D01*
X0083922Y0290258D02*
X0171125Y0290258D01*
X0171125Y0291856D02*
X0084491Y0291856D01*
X0085061Y0293455D02*
X0171125Y0293455D01*
X0171125Y0295053D02*
X0085630Y0295053D01*
X0086199Y0296652D02*
X0171125Y0296652D01*
X0171125Y0298250D02*
X0086769Y0298250D01*
X0087338Y0299849D02*
X0171125Y0299849D01*
X0171125Y0301447D02*
X0087907Y0301447D01*
X0088477Y0303046D02*
X0171125Y0303046D01*
X0171125Y0304644D02*
X0089046Y0304644D01*
X0089615Y0306243D02*
X0171125Y0306243D01*
X0171125Y0307841D02*
X0090185Y0307841D01*
X0090754Y0309440D02*
X0171125Y0309440D01*
X0172022Y0311038D02*
X0091323Y0311038D01*
X0091893Y0312637D02*
X0173620Y0312637D01*
X0175219Y0314235D02*
X0092462Y0314235D01*
X0075951Y0267878D02*
X0155625Y0267878D01*
X0155861Y0266280D02*
X0075382Y0266280D01*
X0074813Y0264681D02*
X0157110Y0264681D01*
X0156911Y0263083D02*
X0158708Y0263083D01*
X0157238Y0261484D02*
X0160307Y0261484D01*
X0151209Y0269477D02*
X0150643Y0269477D01*
X0150643Y0271075D02*
X0151209Y0271075D01*
X0151209Y0272674D02*
X0150643Y0272674D01*
X0150643Y0274272D02*
X0151209Y0274272D01*
X0151209Y0275871D02*
X0150643Y0275871D01*
X0166674Y0272993D02*
X0175867Y0263800D01*
X0198981Y0263800D01*
X0204174Y0268993D01*
X0208674Y0268993D01*
X0202894Y0272674D02*
X0198706Y0272674D01*
X0199238Y0271075D02*
X0201767Y0271075D01*
X0200168Y0269477D02*
X0199238Y0269477D01*
X0208391Y0258287D02*
X0208957Y0258287D01*
X0208957Y0256689D02*
X0208391Y0256689D01*
X0208957Y0255324D02*
X0214411Y0255324D01*
X0214411Y0253205D01*
X0214288Y0252747D01*
X0214051Y0252337D01*
X0213716Y0252001D01*
X0213306Y0251764D01*
X0212848Y0251642D01*
X0208957Y0251642D01*
X0208957Y0255324D01*
X0208957Y0255090D02*
X0208391Y0255090D01*
X0208391Y0253492D02*
X0208957Y0253492D01*
X0208957Y0251893D02*
X0208391Y0251893D01*
X0213529Y0251893D02*
X0216717Y0251893D01*
X0215698Y0253492D02*
X0214411Y0253492D01*
X0214411Y0255090D02*
X0215625Y0255090D01*
X0215625Y0256689D02*
X0214411Y0256689D01*
X0214337Y0258287D02*
X0215625Y0258287D01*
X0219080Y0248696D02*
X0220039Y0248696D01*
X0220039Y0247098D02*
X0219080Y0247098D01*
X0219080Y0245499D02*
X0220039Y0245499D01*
X0215201Y0242302D02*
X0210721Y0242302D01*
X0212319Y0240704D02*
X0215310Y0240704D01*
X0206884Y0216726D02*
X0189364Y0216726D01*
X0189975Y0215128D02*
X0208483Y0215128D01*
X0210081Y0213529D02*
X0199900Y0213529D01*
X0200411Y0211930D02*
X0211680Y0211930D01*
X0213278Y0210332D02*
X0194957Y0210332D01*
X0194957Y0209824D02*
X0200411Y0209824D01*
X0200411Y0207705D01*
X0200288Y0207247D01*
X0200051Y0206837D01*
X0199716Y0206501D01*
X0199306Y0206264D01*
X0198848Y0206142D01*
X0194957Y0206142D01*
X0194957Y0209824D01*
X0194957Y0208733D02*
X0194391Y0208733D01*
X0194391Y0207135D02*
X0194957Y0207135D01*
X0194957Y0211930D02*
X0194391Y0211930D01*
X0194391Y0213529D02*
X0194957Y0213529D01*
X0200411Y0208733D02*
X0209123Y0208733D01*
X0207972Y0207135D02*
X0200224Y0207135D01*
X0205922Y0203938D02*
X0188104Y0203938D01*
X0189579Y0205536D02*
X0207972Y0205536D01*
X0208507Y0197544D02*
X0208547Y0197544D01*
X0208547Y0195945D02*
X0180474Y0195945D01*
X0180474Y0194347D02*
X0208547Y0194347D01*
X0209054Y0192748D02*
X0180359Y0192748D01*
X0168539Y0192748D02*
X0167580Y0192748D01*
X0167580Y0194347D02*
X0168539Y0194347D01*
X0168539Y0195945D02*
X0167580Y0195945D01*
X0167580Y0197544D02*
X0168539Y0197544D01*
X0168539Y0199142D02*
X0167580Y0199142D01*
X0167580Y0200741D02*
X0168539Y0200741D01*
X0165180Y0211930D02*
X0056025Y0211930D01*
X0048623Y0191150D02*
X0138539Y0191150D01*
X0138126Y0189551D02*
X0048054Y0189551D01*
X0047485Y0187953D02*
X0138126Y0187953D01*
X0138126Y0186354D02*
X0046915Y0186354D01*
X0046346Y0184756D02*
X0138126Y0184756D01*
X0138126Y0183157D02*
X0045777Y0183157D01*
X0045207Y0181559D02*
X0139431Y0181559D01*
X0141499Y0179960D02*
X0044638Y0179960D01*
X0044069Y0178362D02*
X0141499Y0178362D01*
X0141499Y0176763D02*
X0043499Y0176763D01*
X0042930Y0175165D02*
X0141499Y0175165D01*
X0141499Y0173566D02*
X0042361Y0173566D01*
X0041791Y0171968D02*
X0107972Y0171968D01*
X0107972Y0170369D02*
X0041222Y0170369D01*
X0040653Y0168771D02*
X0107972Y0168771D01*
X0107972Y0167172D02*
X0040083Y0167172D01*
X0039514Y0165574D02*
X0107972Y0165574D01*
X0108579Y0163975D02*
X0038945Y0163975D01*
X0038375Y0162377D02*
X0108547Y0162377D01*
X0108547Y0159180D02*
X0037237Y0159180D01*
X0037806Y0160778D02*
X0112820Y0160778D01*
X0113780Y0160778D02*
X0118452Y0160778D01*
X0118053Y0160580D02*
X0113780Y0160580D01*
X0113780Y0156701D01*
X0116490Y0156701D01*
X0116948Y0156823D01*
X0117358Y0157060D01*
X0117693Y0157396D01*
X0117930Y0157806D01*
X0118053Y0158264D01*
X0118053Y0160580D01*
X0118053Y0159180D02*
X0118452Y0159180D01*
X0118452Y0157581D02*
X0117800Y0157581D01*
X0118452Y0155983D02*
X0036098Y0155983D01*
X0036667Y0157581D02*
X0108800Y0157581D01*
X0112820Y0157581D02*
X0113780Y0157581D01*
X0113780Y0159180D02*
X0112820Y0159180D01*
X0118053Y0162377D02*
X0118680Y0162377D01*
X0118021Y0163975D02*
X0119918Y0163975D01*
X0119828Y0163885D02*
X0119828Y0163885D01*
X0121627Y0161194D02*
X0121627Y0149973D01*
X0124800Y0146800D01*
X0152800Y0146800D01*
X0163540Y0157540D01*
X0170800Y0157540D01*
X0182721Y0157540D01*
X0183107Y0157926D01*
X0183107Y0154993D01*
X0187647Y0155983D02*
X0191953Y0155983D01*
X0191953Y0157581D02*
X0187647Y0157581D01*
X0187647Y0159180D02*
X0191953Y0159180D01*
X0191953Y0160778D02*
X0187647Y0160778D01*
X0187647Y0162377D02*
X0191953Y0162377D01*
X0193081Y0163975D02*
X0186519Y0163975D01*
X0187647Y0168771D02*
X0192807Y0168771D01*
X0192528Y0170369D02*
X0187647Y0170369D01*
X0183107Y0173674D02*
X0166674Y0173674D01*
X0154800Y0161800D01*
X0135619Y0161800D01*
X0128926Y0155107D01*
X0130107Y0155107D01*
X0135238Y0154384D02*
X0138937Y0154384D01*
X0138937Y0154824D02*
X0138937Y0152705D01*
X0139060Y0152247D01*
X0139297Y0151837D01*
X0139632Y0151501D01*
X0140042Y0151264D01*
X0140500Y0151142D01*
X0144391Y0151142D01*
X0144391Y0154824D01*
X0138937Y0154824D01*
X0138937Y0155983D02*
X0135238Y0155983D01*
X0135890Y0157581D02*
X0138956Y0157581D01*
X0138937Y0152786D02*
X0135238Y0152786D01*
X0134467Y0151187D02*
X0140331Y0151187D01*
X0144391Y0151187D02*
X0144957Y0151187D01*
X0144957Y0151142D02*
X0148848Y0151142D01*
X0149306Y0151264D01*
X0149716Y0151501D01*
X0150051Y0151837D01*
X0150288Y0152247D01*
X0150411Y0152705D01*
X0150411Y0154824D01*
X0144957Y0154824D01*
X0144957Y0151142D01*
X0144957Y0152786D02*
X0144391Y0152786D01*
X0144391Y0154384D02*
X0144957Y0154384D01*
X0149017Y0151187D02*
X0152697Y0151187D01*
X0154296Y0152786D02*
X0150411Y0152786D01*
X0150411Y0154384D02*
X0155894Y0154384D01*
X0157493Y0155983D02*
X0150411Y0155983D01*
X0150392Y0157581D02*
X0159091Y0157581D01*
X0160690Y0159180D02*
X0156669Y0159180D01*
X0158268Y0160778D02*
X0165472Y0160778D01*
X0166766Y0162377D02*
X0159866Y0162377D01*
X0161465Y0163975D02*
X0179695Y0163975D01*
X0178567Y0162377D02*
X0174834Y0162377D01*
X0176128Y0160778D02*
X0178567Y0160778D01*
X0188206Y0154384D02*
X0191953Y0154384D01*
X0192172Y0152786D02*
X0189804Y0152786D01*
X0191403Y0151187D02*
X0206197Y0151187D01*
X0207125Y0152786D02*
X0200813Y0152786D01*
X0201033Y0154384D02*
X0207125Y0154384D01*
X0207125Y0155983D02*
X0201033Y0155983D01*
X0201033Y0157581D02*
X0207125Y0157581D01*
X0207690Y0159180D02*
X0202236Y0159180D01*
X0203835Y0160778D02*
X0209288Y0160778D01*
X0210887Y0162377D02*
X0205433Y0162377D01*
X0207032Y0163975D02*
X0212830Y0163975D01*
X0214463Y0165574D02*
X0208630Y0165574D01*
X0210229Y0167172D02*
X0220442Y0167172D01*
X0222041Y0168771D02*
X0211827Y0168771D01*
X0213426Y0170369D02*
X0225567Y0170369D01*
X0226188Y0171968D02*
X0215024Y0171968D01*
X0218221Y0175165D02*
X0260825Y0175165D01*
X0270894Y0184756D02*
X0272706Y0184756D01*
X0280894Y0184756D02*
X0282706Y0184756D01*
X0292800Y0162377D02*
X0294597Y0162377D01*
X0294067Y0160778D02*
X0281932Y0160778D01*
X0273668Y0160778D02*
X0247306Y0160778D01*
X0249836Y0151187D02*
X0253625Y0151187D01*
X0253625Y0149589D02*
X0251434Y0149589D01*
X0253033Y0147990D02*
X0253625Y0147990D01*
X0248849Y0143195D02*
X0207184Y0143195D01*
X0208783Y0144793D02*
X0247250Y0144793D01*
X0245652Y0146392D02*
X0210381Y0146392D01*
X0211980Y0147990D02*
X0244053Y0147990D01*
X0242455Y0149589D02*
X0222886Y0149589D01*
X0222858Y0149560D02*
X0223193Y0149896D01*
X0223430Y0150306D01*
X0223553Y0150764D01*
X0223553Y0153080D01*
X0219280Y0153080D01*
X0219280Y0149201D01*
X0221990Y0149201D01*
X0222448Y0149323D01*
X0222858Y0149560D01*
X0223553Y0151187D02*
X0240856Y0151187D01*
X0239258Y0152786D02*
X0223553Y0152786D01*
X0223553Y0154384D02*
X0237659Y0154384D01*
X0236061Y0155983D02*
X0223553Y0155983D01*
X0224128Y0157581D02*
X0234462Y0157581D01*
X0232864Y0159180D02*
X0224128Y0159180D01*
X0224128Y0160778D02*
X0226294Y0160778D01*
X0225567Y0162377D02*
X0224626Y0162377D01*
X0219280Y0152786D02*
X0218320Y0152786D01*
X0218320Y0151187D02*
X0219280Y0151187D01*
X0219280Y0149589D02*
X0218320Y0149589D01*
X0214714Y0149589D02*
X0213235Y0149589D01*
X0213475Y0151187D02*
X0214047Y0151187D01*
X0214047Y0152786D02*
X0213475Y0152786D01*
X0213475Y0154384D02*
X0214047Y0154384D01*
X0214047Y0155983D02*
X0213475Y0155983D01*
X0204599Y0149589D02*
X0193001Y0149589D01*
X0194600Y0147990D02*
X0203000Y0147990D01*
X0196493Y0157926D02*
X0220741Y0182174D01*
X0230107Y0182174D01*
X0225567Y0178362D02*
X0221419Y0178362D01*
X0219820Y0176763D02*
X0226057Y0176763D01*
X0229862Y0192748D02*
X0217546Y0192748D01*
X0217693Y0192896D02*
X0217930Y0193306D01*
X0218053Y0193764D01*
X0218053Y0196080D01*
X0213780Y0196080D01*
X0213780Y0192201D01*
X0216490Y0192201D01*
X0216948Y0192323D01*
X0217358Y0192560D01*
X0217693Y0192896D01*
X0218053Y0194347D02*
X0228263Y0194347D01*
X0227105Y0195945D02*
X0218053Y0195945D01*
X0218053Y0197544D02*
X0226932Y0197544D01*
X0225567Y0199142D02*
X0218053Y0199142D01*
X0218628Y0200741D02*
X0225567Y0200741D01*
X0234647Y0203938D02*
X0238953Y0203938D01*
X0237393Y0205536D02*
X0234647Y0205536D01*
X0234647Y0207135D02*
X0235794Y0207135D01*
X0247458Y0221522D02*
X0250589Y0221522D01*
X0248990Y0223120D02*
X0247458Y0223120D01*
X0242800Y0245800D02*
X0257481Y0245800D01*
X0263674Y0251993D01*
X0263263Y0258287D02*
X0260337Y0258287D01*
X0279053Y0258287D02*
X0283263Y0258287D01*
X0281706Y0259886D02*
X0281067Y0259886D01*
X0292775Y0264681D02*
X0303277Y0264681D01*
X0308733Y0268300D02*
X0308926Y0268493D01*
X0315238Y0267878D02*
X0318362Y0267878D01*
X0318362Y0266280D02*
X0315238Y0266280D01*
X0314575Y0264681D02*
X0317692Y0264681D01*
X0318362Y0269477D02*
X0315238Y0269477D01*
X0315238Y0271075D02*
X0318362Y0271075D01*
X0319394Y0272674D02*
X0314206Y0272674D01*
X0305751Y0274272D02*
X0291377Y0274272D01*
X0292325Y0272674D02*
X0303646Y0272674D01*
X0305099Y0275871D02*
X0289975Y0275871D01*
X0289975Y0277469D02*
X0297239Y0277469D01*
X0301080Y0277469D02*
X0302039Y0277469D01*
X0302039Y0279068D02*
X0301080Y0279068D01*
X0282648Y0285462D02*
X0272100Y0285462D01*
X0272100Y0287061D02*
X0281050Y0287061D01*
X0279451Y0288659D02*
X0272100Y0288659D01*
X0272008Y0290258D02*
X0277853Y0290258D01*
X0276254Y0291856D02*
X0271376Y0291856D01*
X0269719Y0293455D02*
X0274656Y0293455D01*
X0263224Y0291856D02*
X0262059Y0291856D01*
X0271377Y0274272D02*
X0273036Y0274272D01*
X0308926Y0255107D02*
X0317233Y0246800D01*
X0318228Y0250295D02*
X0335805Y0250295D01*
X0337403Y0251893D02*
X0330084Y0251893D01*
X0330051Y0251837D02*
X0330288Y0252247D01*
X0330411Y0252705D01*
X0330411Y0254824D01*
X0324957Y0254824D01*
X0324957Y0251142D01*
X0328848Y0251142D01*
X0329306Y0251264D01*
X0329716Y0251501D01*
X0330051Y0251837D01*
X0330411Y0253492D02*
X0339002Y0253492D01*
X0340600Y0255090D02*
X0324957Y0255090D01*
X0324391Y0255090D02*
X0315238Y0255090D01*
X0315238Y0253492D02*
X0318937Y0253492D01*
X0318937Y0252705D02*
X0319060Y0252247D01*
X0319297Y0251837D01*
X0319632Y0251501D01*
X0320042Y0251264D01*
X0320500Y0251142D01*
X0324391Y0251142D01*
X0324391Y0254824D01*
X0318937Y0254824D01*
X0318937Y0252705D01*
X0319264Y0251893D02*
X0316630Y0251893D01*
X0315238Y0256689D02*
X0318937Y0256689D01*
X0321876Y0259886D02*
X0343625Y0259886D01*
X0343625Y0261484D02*
X0323474Y0261484D01*
X0324391Y0258287D02*
X0324957Y0258287D01*
X0324957Y0256689D02*
X0324391Y0256689D01*
X0324391Y0253492D02*
X0324957Y0253492D01*
X0324957Y0251893D02*
X0324391Y0251893D01*
X0330411Y0256689D02*
X0342199Y0256689D01*
X0343625Y0258287D02*
X0330104Y0258287D01*
X0324209Y0216726D02*
X0323643Y0216726D01*
X0323643Y0215128D02*
X0324209Y0215128D01*
X0278926Y0205107D02*
X0271493Y0205107D01*
X0277320Y0147990D02*
X0278280Y0147990D01*
X0278280Y0146392D02*
X0277320Y0146392D01*
X0277320Y0144793D02*
X0278280Y0144793D01*
X0251880Y0101633D02*
X0251083Y0101633D01*
X0249784Y0100035D02*
X0252964Y0100035D01*
X0199651Y0165574D02*
X0163064Y0165574D01*
X0164662Y0167172D02*
X0201249Y0167172D01*
X0200179Y0168771D02*
X0202848Y0168771D01*
X0204446Y0170369D02*
X0200458Y0170369D01*
X0196776Y0170369D02*
X0196210Y0170369D01*
X0196210Y0168771D02*
X0196776Y0168771D01*
X0196776Y0171968D02*
X0196210Y0171968D01*
X0196210Y0175165D02*
X0196776Y0175165D01*
X0196776Y0176763D02*
X0196210Y0176763D01*
X0196210Y0178362D02*
X0196776Y0178362D01*
X0179932Y0179960D02*
X0147849Y0179960D01*
X0147849Y0178362D02*
X0178567Y0178362D01*
X0178567Y0170369D02*
X0167859Y0170369D01*
X0166261Y0168771D02*
X0178567Y0168771D01*
X0165836Y0176763D02*
X0147849Y0176763D01*
X0147849Y0175165D02*
X0163675Y0175165D01*
X0162076Y0173566D02*
X0147849Y0173566D01*
X0150660Y0171968D02*
X0160478Y0171968D01*
X0158879Y0170369D02*
X0150986Y0170369D01*
X0150986Y0168771D02*
X0157281Y0168771D01*
X0155682Y0167172D02*
X0150986Y0167172D01*
X0150986Y0165574D02*
X0154084Y0165574D01*
X0144674Y0168493D02*
X0144674Y0182399D01*
X0144619Y0182455D01*
X0144619Y0185241D01*
X0143060Y0186800D01*
X0138688Y0171968D02*
X0134912Y0171968D01*
X0135238Y0170369D02*
X0138362Y0170369D01*
X0138362Y0168771D02*
X0135238Y0168771D01*
X0135238Y0167172D02*
X0138362Y0167172D01*
X0138362Y0165574D02*
X0135238Y0165574D01*
X0128926Y0168493D02*
X0121627Y0161194D01*
X0128926Y0168493D02*
X0113300Y0168493D01*
X0113300Y0168540D01*
X0118628Y0171968D02*
X0122940Y0171968D01*
X0118452Y0154384D02*
X0035529Y0154384D01*
X0034959Y0152786D02*
X0118452Y0152786D01*
X0118452Y0151187D02*
X0034390Y0151187D01*
X0033821Y0149589D02*
X0118452Y0149589D01*
X0119120Y0147990D02*
X0033251Y0147990D01*
X0032682Y0146392D02*
X0120719Y0146392D01*
X0122317Y0144793D02*
X0032113Y0144793D01*
X0058817Y0064867D02*
X0559015Y0064867D01*
X0548441Y0063269D02*
X0060920Y0063269D01*
X0063023Y0061670D02*
X0537866Y0061670D01*
X0527291Y0060072D02*
X0065126Y0060072D01*
X0067230Y0058473D02*
X0516716Y0058473D01*
X0506142Y0056875D02*
X0069333Y0056875D01*
X0071436Y0055276D02*
X0495567Y0055276D01*
X0484992Y0053678D02*
X0073540Y0053678D01*
X0075643Y0052079D02*
X0474417Y0052079D01*
X0463843Y0050481D02*
X0077746Y0050481D01*
X0079850Y0048882D02*
X0453268Y0048882D01*
X0442693Y0047284D02*
X0081953Y0047284D01*
X0084056Y0045685D02*
X0432118Y0045685D01*
X0421543Y0044087D02*
X0086159Y0044087D01*
X0088263Y0042488D02*
X0410969Y0042488D01*
X0400394Y0040890D02*
X0090366Y0040890D01*
X0092469Y0039291D02*
X0389819Y0039291D01*
X0379244Y0037693D02*
X0094573Y0037693D01*
X0096676Y0036094D02*
X0368670Y0036094D01*
X0358095Y0034496D02*
X0098779Y0034496D01*
X0100883Y0032897D02*
X0347520Y0032897D01*
X0336945Y0031299D02*
X0102986Y0031299D01*
X0105089Y0029700D02*
X0326371Y0029700D01*
X0315796Y0028102D02*
X0107193Y0028102D01*
X0109296Y0026503D02*
X0305221Y0026503D01*
X0294646Y0024905D02*
X0111399Y0024905D01*
X0113502Y0023306D02*
X0284071Y0023306D01*
X0273497Y0021708D02*
X0115606Y0021708D01*
X0117709Y0020109D02*
X0262922Y0020109D01*
X0252347Y0018511D02*
X0119812Y0018511D01*
X0121916Y0016912D02*
X0241772Y0016912D01*
X0231198Y0015314D02*
X0124019Y0015314D01*
X0126122Y0013715D02*
X0220623Y0013715D01*
X0210048Y0012117D02*
X0128226Y0012117D01*
X0130329Y0010518D02*
X0199473Y0010518D01*
X0188899Y0008920D02*
X0132432Y0008920D01*
X0134535Y0007321D02*
X0178324Y0007321D01*
X0167749Y0005723D02*
X0136639Y0005723D01*
X0138742Y0004124D02*
X0157174Y0004124D01*
X0146599Y0002526D02*
X0140845Y0002526D01*
X0170320Y0146392D02*
X0171280Y0146392D01*
X0171280Y0147990D02*
X0170320Y0147990D01*
X0175189Y0146392D02*
X0187219Y0146392D01*
X0185620Y0147990D02*
X0175553Y0147990D01*
X0166047Y0151187D02*
X0161677Y0151187D01*
X0163275Y0152786D02*
X0166047Y0152786D01*
X0212820Y0192748D02*
X0213780Y0192748D01*
X0213780Y0194347D02*
X0212820Y0194347D01*
X0212820Y0195945D02*
X0213780Y0195945D01*
X0188362Y0224719D02*
X0185238Y0224719D01*
X0185238Y0226317D02*
X0188362Y0226317D01*
X0189636Y0227916D02*
X0183964Y0227916D01*
X0179020Y0242302D02*
X0178061Y0242302D01*
X0178061Y0243901D02*
X0179020Y0243901D01*
X0179020Y0245499D02*
X0178061Y0245499D01*
X0178061Y0247098D02*
X0179020Y0247098D01*
X0179020Y0248696D02*
X0178061Y0248696D01*
X0178061Y0250295D02*
X0179020Y0250295D01*
X0186614Y0253492D02*
X0169849Y0253492D01*
X0169956Y0251893D02*
X0187179Y0251893D01*
X0186614Y0255090D02*
X0171618Y0255090D01*
X0172986Y0256689D02*
X0186614Y0256689D01*
X0186614Y0258287D02*
X0172986Y0258287D01*
X0172986Y0259886D02*
X0187744Y0259886D01*
X0173693Y0261484D02*
X0172986Y0261484D01*
X0173175Y0262002D02*
X0173175Y0262002D01*
X0177475Y0282265D02*
X0181201Y0282265D01*
X0181201Y0283863D02*
X0177475Y0283863D01*
X0177475Y0285462D02*
X0181201Y0285462D01*
X0240719Y0347804D02*
X0243937Y0347804D01*
X0243937Y0347705D02*
X0244060Y0347247D01*
X0244297Y0346837D01*
X0244632Y0346501D01*
X0245042Y0346264D01*
X0245500Y0346142D01*
X0249391Y0346142D01*
X0249391Y0349824D01*
X0243937Y0349824D01*
X0243937Y0347705D01*
X0243937Y0349402D02*
X0240238Y0349402D01*
X0240238Y0351001D02*
X0243937Y0351001D01*
X0246369Y0354198D02*
X0283412Y0354198D01*
X0281814Y0355797D02*
X0247967Y0355797D01*
X0249391Y0352599D02*
X0249957Y0352599D01*
X0249957Y0351001D02*
X0249391Y0351001D01*
X0249957Y0349824D02*
X0255411Y0349824D01*
X0255411Y0347705D01*
X0255288Y0347247D01*
X0255051Y0346837D01*
X0254716Y0346501D01*
X0254306Y0346264D01*
X0253848Y0346142D01*
X0249957Y0346142D01*
X0249957Y0349824D01*
X0249957Y0349402D02*
X0249391Y0349402D01*
X0249391Y0347804D02*
X0249957Y0347804D01*
X0249957Y0346205D02*
X0249391Y0346205D01*
X0245262Y0346205D02*
X0242317Y0346205D01*
X0254086Y0346205D02*
X0300534Y0346205D01*
X0302133Y0347804D02*
X0255411Y0347804D01*
X0255411Y0349402D02*
X0293556Y0349402D01*
X0293965Y0344607D02*
X0280820Y0344607D01*
X0282581Y0343008D02*
X0292614Y0343008D01*
X0292614Y0341410D02*
X0284180Y0341410D01*
X0285778Y0339811D02*
X0292614Y0339811D01*
X0292614Y0338213D02*
X0287377Y0338213D01*
X0288975Y0336614D02*
X0292958Y0336614D01*
X0290574Y0335016D02*
X0320026Y0335016D01*
X0319306Y0336264D02*
X0319716Y0336501D01*
X0320051Y0336837D01*
X0320288Y0337247D01*
X0320411Y0337705D01*
X0320411Y0339824D01*
X0314957Y0339824D01*
X0314957Y0340390D01*
X0320411Y0340390D01*
X0320411Y0342509D01*
X0320288Y0342967D01*
X0320051Y0343378D01*
X0319716Y0343713D01*
X0319306Y0343950D01*
X0318848Y0344072D01*
X0314957Y0344072D01*
X0314957Y0340390D01*
X0314391Y0340390D01*
X0314391Y0339824D01*
X0314957Y0339824D01*
X0314957Y0336142D01*
X0318848Y0336142D01*
X0319306Y0336264D01*
X0319829Y0336614D02*
X0321625Y0336614D01*
X0320411Y0338213D02*
X0323125Y0338213D01*
X0323125Y0339811D02*
X0320411Y0339811D01*
X0320411Y0341410D02*
X0323125Y0341410D01*
X0323125Y0343008D02*
X0320265Y0343008D01*
X0323125Y0344607D02*
X0307916Y0344607D01*
X0309297Y0343378D02*
X0309060Y0342967D01*
X0308937Y0342509D01*
X0308937Y0340390D01*
X0314391Y0340390D01*
X0314391Y0344072D01*
X0310500Y0344072D01*
X0310042Y0343950D01*
X0309632Y0343713D01*
X0309297Y0343378D01*
X0309083Y0343008D02*
X0306317Y0343008D01*
X0305238Y0341410D02*
X0308937Y0341410D01*
X0308937Y0339824D02*
X0308937Y0337705D01*
X0309060Y0337247D01*
X0309297Y0336837D01*
X0309632Y0336501D01*
X0310042Y0336264D01*
X0310500Y0336142D01*
X0314391Y0336142D01*
X0314391Y0339824D01*
X0308937Y0339824D01*
X0308937Y0339811D02*
X0305238Y0339811D01*
X0305238Y0338213D02*
X0308937Y0338213D01*
X0309519Y0336614D02*
X0304894Y0336614D01*
X0298926Y0340107D02*
X0307375Y0348556D01*
X0307375Y0357051D01*
X0310500Y0347804D02*
X0323125Y0347804D01*
X0323125Y0346205D02*
X0309514Y0346205D01*
X0314391Y0343008D02*
X0314957Y0343008D01*
X0314957Y0341410D02*
X0314391Y0341410D01*
X0314391Y0339811D02*
X0314957Y0339811D01*
X0314957Y0338213D02*
X0314391Y0338213D01*
X0314391Y0336614D02*
X0314957Y0336614D01*
X0318427Y0333417D02*
X0292172Y0333417D01*
X0285280Y0325425D02*
X0284320Y0325425D01*
X0284320Y0323826D02*
X0285280Y0323826D01*
X0289553Y0320629D02*
X0437963Y0320629D01*
X0438806Y0319031D02*
X0289496Y0319031D01*
X0290128Y0317432D02*
X0293404Y0317432D01*
X0280104Y0319031D02*
X0277559Y0319031D01*
X0275961Y0320629D02*
X0280047Y0320629D01*
X0286609Y0351001D02*
X0255411Y0351001D01*
X0255387Y0352599D02*
X0285011Y0352599D01*
X0289195Y0357395D02*
X0293367Y0357395D01*
X0295751Y0358994D02*
X0287596Y0358994D01*
X0285998Y0360592D02*
X0295766Y0360592D01*
X0293539Y0362191D02*
X0292580Y0362191D01*
X0292580Y0362047D02*
X0292580Y0366320D01*
X0288701Y0366320D01*
X0288701Y0363610D01*
X0288823Y0363152D01*
X0289060Y0362742D01*
X0289396Y0362407D01*
X0289806Y0362170D01*
X0290264Y0362047D01*
X0292580Y0362047D01*
X0292580Y0363789D02*
X0293539Y0363789D01*
X0293539Y0365388D02*
X0292580Y0365388D01*
X0292580Y0366986D02*
X0279604Y0366986D01*
X0281202Y0365388D02*
X0288701Y0365388D01*
X0288701Y0363789D02*
X0282801Y0363789D01*
X0284399Y0362191D02*
X0289770Y0362191D01*
X0288701Y0368585D02*
X0278005Y0368585D01*
X0276407Y0370183D02*
X0288753Y0370183D01*
X0292580Y0370183D02*
X0293539Y0370183D01*
X0293539Y0368585D02*
X0292580Y0368585D01*
X0296652Y0371782D02*
X0274808Y0371782D01*
X0270800Y0371300D02*
X0256800Y0371300D01*
X0256325Y0376577D02*
X0255357Y0376577D01*
X0256238Y0378176D02*
X0256325Y0378176D01*
X0256325Y0379774D02*
X0256238Y0379774D01*
X0256238Y0381373D02*
X0256325Y0381373D01*
X0256325Y0382971D02*
X0256238Y0382971D01*
X0256040Y0384570D02*
X0255424Y0384570D01*
X0254442Y0386168D02*
X0247855Y0386168D01*
X0246256Y0387767D02*
X0252843Y0387767D01*
X0251245Y0389365D02*
X0244658Y0389365D01*
X0243614Y0390964D02*
X0243059Y0390964D01*
X0243614Y0392562D02*
X0241461Y0392562D01*
X0239862Y0394161D02*
X0243614Y0394161D01*
X0243614Y0395759D02*
X0238264Y0395759D01*
X0236052Y0397358D02*
X0243830Y0397358D01*
X0246751Y0398956D02*
X0231986Y0398956D01*
X0231986Y0397358D02*
X0234548Y0397358D01*
X0235300Y0394233D02*
X0235300Y0393993D01*
X0230174Y0393993D01*
X0225674Y0398493D01*
X0227115Y0392562D02*
X0221400Y0392562D01*
X0220273Y0390964D02*
X0229191Y0390964D01*
X0229848Y0389072D02*
X0225957Y0389072D01*
X0225957Y0385390D01*
X0231411Y0385390D01*
X0231411Y0387509D01*
X0231288Y0387967D01*
X0231051Y0388378D01*
X0230716Y0388713D01*
X0230306Y0388950D01*
X0229848Y0389072D01*
X0231342Y0387767D02*
X0237276Y0387767D01*
X0235678Y0389365D02*
X0218674Y0389365D01*
X0220297Y0388378D02*
X0220060Y0387967D01*
X0219937Y0387509D01*
X0219937Y0385390D01*
X0225391Y0385390D01*
X0225391Y0384824D01*
X0225957Y0384824D01*
X0225957Y0385390D01*
X0225391Y0385390D01*
X0225391Y0389072D01*
X0221500Y0389072D01*
X0221042Y0388950D01*
X0220632Y0388713D01*
X0220297Y0388378D01*
X0220006Y0387767D02*
X0217075Y0387767D01*
X0216238Y0386168D02*
X0219937Y0386168D01*
X0219937Y0384824D02*
X0219937Y0382705D01*
X0220060Y0382247D01*
X0220297Y0381837D01*
X0220632Y0381501D01*
X0221042Y0381264D01*
X0221500Y0381142D01*
X0225391Y0381142D01*
X0225391Y0384824D01*
X0219937Y0384824D01*
X0219937Y0384570D02*
X0216238Y0384570D01*
X0216238Y0382971D02*
X0219937Y0382971D01*
X0220855Y0381373D02*
X0215652Y0381373D01*
X0221793Y0376577D02*
X0244495Y0376577D01*
X0243614Y0381373D02*
X0230493Y0381373D01*
X0230306Y0381264D02*
X0230716Y0381501D01*
X0231051Y0381837D01*
X0231288Y0382247D01*
X0231411Y0382705D01*
X0231411Y0384824D01*
X0225957Y0384824D01*
X0225957Y0381142D01*
X0229848Y0381142D01*
X0230306Y0381264D01*
X0231411Y0382971D02*
X0242072Y0382971D01*
X0240474Y0384570D02*
X0231411Y0384570D01*
X0231411Y0386168D02*
X0238875Y0386168D01*
X0235300Y0394233D02*
X0248926Y0380607D01*
X0249926Y0380607D01*
X0260225Y0389365D02*
X0265812Y0389365D01*
X0267410Y0387767D02*
X0261823Y0387767D01*
X0259362Y0390964D02*
X0258626Y0390964D01*
X0259362Y0392562D02*
X0257028Y0392562D01*
X0256238Y0394161D02*
X0259362Y0394161D01*
X0259362Y0395759D02*
X0256238Y0395759D01*
X0256022Y0397358D02*
X0259578Y0397358D01*
X0265674Y0393993D02*
X0272060Y0387607D01*
X0277926Y0387607D01*
X0284238Y0387767D02*
X0293391Y0387767D01*
X0293391Y0387890D02*
X0293391Y0387324D01*
X0293957Y0387324D01*
X0293957Y0387890D01*
X0293391Y0387890D01*
X0287937Y0387890D01*
X0287937Y0390009D01*
X0288060Y0390467D01*
X0288297Y0390878D01*
X0288632Y0391213D01*
X0289042Y0391450D01*
X0289500Y0391572D01*
X0293391Y0391572D01*
X0293391Y0387890D01*
X0293391Y0387324D02*
X0287937Y0387324D01*
X0287937Y0385205D01*
X0288060Y0384747D01*
X0288297Y0384337D01*
X0288632Y0384001D01*
X0289042Y0383764D01*
X0289500Y0383642D01*
X0293391Y0383642D01*
X0293391Y0387324D01*
X0293957Y0387324D02*
X0293957Y0383642D01*
X0297848Y0383642D01*
X0298306Y0383764D01*
X0298716Y0384001D01*
X0299051Y0384337D01*
X0299288Y0384747D01*
X0299411Y0385205D01*
X0299411Y0387324D01*
X0293957Y0387324D01*
X0293957Y0387767D02*
X0301343Y0387767D01*
X0299745Y0389365D02*
X0299411Y0389365D01*
X0299411Y0386168D02*
X0302942Y0386168D01*
X0304540Y0384570D02*
X0299186Y0384570D01*
X0293957Y0384570D02*
X0293391Y0384570D01*
X0293391Y0386168D02*
X0293957Y0386168D01*
X0293957Y0389365D02*
X0293391Y0389365D01*
X0293391Y0390964D02*
X0293957Y0390964D01*
X0296548Y0392562D02*
X0271986Y0392562D01*
X0271986Y0394161D02*
X0294949Y0394161D01*
X0288383Y0390964D02*
X0284030Y0390964D01*
X0284238Y0389365D02*
X0287937Y0389365D01*
X0287937Y0386168D02*
X0284238Y0386168D01*
X0284238Y0384570D02*
X0288162Y0384570D01*
X0287848Y0397358D02*
X0283752Y0397358D01*
X0284238Y0398956D02*
X0287362Y0398956D01*
X0287362Y0400555D02*
X0284238Y0400555D01*
X0284238Y0402153D02*
X0287362Y0402153D01*
X0287362Y0403752D02*
X0284238Y0403752D01*
X0283029Y0405350D02*
X0288571Y0405350D01*
X0287020Y0410146D02*
X0286061Y0410146D01*
X0286061Y0411744D02*
X0287020Y0411744D01*
X0287020Y0413343D02*
X0286061Y0413343D01*
X0286061Y0414941D02*
X0287020Y0414941D01*
X0287020Y0416540D02*
X0286061Y0416540D01*
X0286061Y0418138D02*
X0287020Y0418138D01*
X0279300Y0414540D02*
X0279060Y0414300D01*
X0276560Y0411800D01*
X0255540Y0411800D01*
X0253981Y0410241D01*
X0253981Y0407455D01*
X0248986Y0406949D02*
X0239975Y0406949D01*
X0239975Y0408547D02*
X0243718Y0408547D01*
X0243701Y0408610D02*
X0243823Y0408152D01*
X0244060Y0407742D01*
X0244396Y0407407D01*
X0244806Y0407170D01*
X0245264Y0407047D01*
X0247580Y0407047D01*
X0247580Y0411320D01*
X0243701Y0411320D01*
X0243701Y0408610D01*
X0243701Y0410146D02*
X0239975Y0410146D01*
X0239975Y0411744D02*
X0247580Y0411744D01*
X0247580Y0410146D02*
X0248539Y0410146D01*
X0248539Y0408547D02*
X0247580Y0408547D01*
X0247387Y0405350D02*
X0239340Y0405350D01*
X0237742Y0403752D02*
X0246751Y0403752D01*
X0246751Y0402153D02*
X0235895Y0402153D01*
X0231986Y0400555D02*
X0246751Y0400555D01*
X0247580Y0413343D02*
X0248539Y0413343D01*
X0248539Y0414941D02*
X0247580Y0414941D01*
X0247580Y0416540D02*
X0248539Y0416540D01*
X0250904Y0416540D02*
X0251410Y0416540D01*
X0250463Y0418138D02*
X0274126Y0418138D01*
X0274126Y0416540D02*
X0259670Y0416540D01*
X0260474Y0408547D02*
X0274751Y0408547D01*
X0274751Y0406949D02*
X0259559Y0406949D01*
X0243701Y0413343D02*
X0239975Y0413343D01*
X0239975Y0414941D02*
X0243701Y0414941D01*
X0245216Y0416540D02*
X0241030Y0416540D01*
X0230800Y0417300D02*
X0230800Y0435446D01*
X0238847Y0443493D01*
X0243926Y0443493D01*
X0238847Y0443493D02*
X0230540Y0451800D01*
X0230540Y0479040D01*
X0235493Y0483993D01*
X0243426Y0483993D01*
X0243426Y0495426D01*
X0246060Y0498060D01*
X0250300Y0498060D01*
X0248560Y0498060D01*
X0244972Y0501261D02*
X0177815Y0501261D01*
X0179254Y0502860D02*
X0245547Y0502860D01*
X0245547Y0504458D02*
X0180692Y0504458D01*
X0182131Y0506057D02*
X0245547Y0506057D01*
X0245547Y0506020D02*
X0249820Y0506020D01*
X0249820Y0509899D01*
X0247110Y0509899D01*
X0246652Y0509777D01*
X0246242Y0509540D01*
X0245907Y0509204D01*
X0245670Y0508794D01*
X0245547Y0508336D01*
X0245547Y0506020D01*
X0245547Y0507655D02*
X0183570Y0507655D01*
X0185008Y0509254D02*
X0245956Y0509254D01*
X0249820Y0509254D02*
X0250780Y0509254D01*
X0250780Y0507655D02*
X0249820Y0507655D01*
X0249820Y0506057D02*
X0250780Y0506057D01*
X0255053Y0506057D02*
X0340192Y0506057D01*
X0339349Y0507655D02*
X0255053Y0507655D01*
X0254644Y0509254D02*
X0338506Y0509254D01*
X0337663Y0510852D02*
X0186447Y0510852D01*
X0187886Y0512451D02*
X0336821Y0512451D01*
X0335978Y0514049D02*
X0189324Y0514049D01*
X0190763Y0515648D02*
X0335135Y0515648D01*
X0334292Y0517246D02*
X0192202Y0517246D01*
X0193640Y0518845D02*
X0333449Y0518845D01*
X0332606Y0520443D02*
X0195079Y0520443D01*
X0196518Y0522042D02*
X0331763Y0522042D01*
X0330921Y0523640D02*
X0197956Y0523640D01*
X0199395Y0525239D02*
X0330078Y0525239D01*
X0329235Y0526837D02*
X0200833Y0526837D01*
X0202272Y0528436D02*
X0328392Y0528436D01*
X0327549Y0530034D02*
X0203711Y0530034D01*
X0205149Y0531633D02*
X0326706Y0531633D01*
X0325864Y0533231D02*
X0206588Y0533231D01*
X0208027Y0534830D02*
X0325021Y0534830D01*
X0324178Y0536428D02*
X0209465Y0536428D01*
X0210904Y0538027D02*
X0323335Y0538027D01*
X0322492Y0539625D02*
X0212343Y0539625D01*
X0213781Y0541224D02*
X0321649Y0541224D01*
X0320806Y0542822D02*
X0215220Y0542822D01*
X0216659Y0544421D02*
X0319964Y0544421D01*
X0319121Y0546019D02*
X0218097Y0546019D01*
X0219536Y0547618D02*
X0318278Y0547618D01*
X0317435Y0549216D02*
X0220975Y0549216D01*
X0222413Y0550815D02*
X0316592Y0550815D01*
X0315749Y0552413D02*
X0223852Y0552413D01*
X0225291Y0554012D02*
X0314906Y0554012D01*
X0314064Y0555610D02*
X0226729Y0555610D01*
X0228168Y0557209D02*
X0313221Y0557209D01*
X0312378Y0558807D02*
X0229607Y0558807D01*
X0231045Y0560406D02*
X0311535Y0560406D01*
X0310692Y0562004D02*
X0232484Y0562004D01*
X0233923Y0563603D02*
X0309849Y0563603D01*
X0309006Y0565201D02*
X0235361Y0565201D01*
X0236800Y0566800D02*
X0308164Y0566800D01*
X0307321Y0568399D02*
X0238239Y0568399D01*
X0239677Y0569997D02*
X0306478Y0569997D01*
X0305635Y0571596D02*
X0241116Y0571596D01*
X0242555Y0573194D02*
X0304792Y0573194D01*
X0303949Y0574793D02*
X0243993Y0574793D01*
X0245432Y0576391D02*
X0303107Y0576391D01*
X0302264Y0577990D02*
X0246871Y0577990D01*
X0248309Y0579588D02*
X0301421Y0579588D01*
X0300578Y0581187D02*
X0249748Y0581187D01*
X0251187Y0582785D02*
X0299735Y0582785D01*
X0298892Y0584384D02*
X0252625Y0584384D01*
X0254064Y0585982D02*
X0298049Y0585982D01*
X0297207Y0587581D02*
X0255503Y0587581D01*
X0256941Y0589179D02*
X0296364Y0589179D01*
X0295521Y0590778D02*
X0258380Y0590778D01*
X0259819Y0592376D02*
X0294678Y0592376D01*
X0293835Y0593975D02*
X0261257Y0593975D01*
X0262696Y0595573D02*
X0292992Y0595573D01*
X0292149Y0597172D02*
X0264135Y0597172D01*
X0265573Y0598770D02*
X0291307Y0598770D01*
X0290464Y0600369D02*
X0267012Y0600369D01*
X0268451Y0601967D02*
X0289621Y0601967D01*
X0288778Y0603566D02*
X0269889Y0603566D01*
X0271328Y0605164D02*
X0287935Y0605164D01*
X0287092Y0606763D02*
X0272766Y0606763D01*
X0274205Y0608361D02*
X0286249Y0608361D01*
X0285407Y0609960D02*
X0275644Y0609960D01*
X0277082Y0611558D02*
X0284564Y0611558D01*
X0283721Y0613157D02*
X0278521Y0613157D01*
X0279960Y0614755D02*
X0282878Y0614755D01*
X0282035Y0616354D02*
X0281398Y0616354D01*
X0255053Y0504458D02*
X0341035Y0504458D01*
X0341878Y0502860D02*
X0255053Y0502860D01*
X0255628Y0501261D02*
X0342721Y0501261D01*
X0343563Y0499663D02*
X0255628Y0499663D01*
X0255628Y0498064D02*
X0344406Y0498064D01*
X0345249Y0496466D02*
X0255628Y0496466D01*
X0255628Y0494867D02*
X0346092Y0494867D01*
X0346935Y0493268D02*
X0254379Y0493268D01*
X0254193Y0488473D02*
X0248407Y0488473D01*
X0249738Y0486874D02*
X0252862Y0486874D01*
X0252862Y0485276D02*
X0249738Y0485276D01*
X0249738Y0483677D02*
X0252862Y0483677D01*
X0252589Y0482079D02*
X0249738Y0482079D01*
X0249374Y0480480D02*
X0250991Y0480480D01*
X0249392Y0478882D02*
X0234872Y0478882D01*
X0233715Y0477283D02*
X0248625Y0477283D01*
X0248625Y0475685D02*
X0233715Y0475685D01*
X0233715Y0474086D02*
X0237444Y0474086D01*
X0237114Y0472488D02*
X0233715Y0472488D01*
X0233715Y0470889D02*
X0237114Y0470889D01*
X0237114Y0469291D02*
X0233715Y0469291D01*
X0233715Y0467692D02*
X0237114Y0467692D01*
X0238478Y0466094D02*
X0233715Y0466094D01*
X0233715Y0464495D02*
X0248625Y0464495D01*
X0248625Y0462897D02*
X0233715Y0462897D01*
X0233715Y0461298D02*
X0248625Y0461298D01*
X0248625Y0459700D02*
X0233715Y0459700D01*
X0233715Y0458101D02*
X0248625Y0458101D01*
X0248625Y0456503D02*
X0234708Y0456503D01*
X0235474Y0454904D02*
X0248625Y0454904D01*
X0248625Y0453306D02*
X0235474Y0453306D01*
X0235474Y0451707D02*
X0248625Y0451707D01*
X0248625Y0450109D02*
X0236721Y0450109D01*
X0238320Y0448510D02*
X0248625Y0448510D01*
X0254975Y0448510D02*
X0370535Y0448510D01*
X0371377Y0446912D02*
X0265716Y0446912D01*
X0265986Y0445313D02*
X0372220Y0445313D01*
X0373063Y0443715D02*
X0265986Y0443715D01*
X0265986Y0442116D02*
X0373906Y0442116D01*
X0374749Y0440518D02*
X0265986Y0440518D01*
X0265407Y0432525D02*
X0378963Y0432525D01*
X0379806Y0430927D02*
X0265411Y0430927D01*
X0265411Y0429328D02*
X0380649Y0429328D01*
X0381492Y0427730D02*
X0265411Y0427730D01*
X0251800Y0440481D02*
X0251800Y0476800D01*
X0258993Y0483993D01*
X0259174Y0483993D01*
X0258372Y0478882D02*
X0354520Y0478882D01*
X0353678Y0480480D02*
X0265122Y0480480D01*
X0265486Y0482079D02*
X0352835Y0482079D01*
X0351992Y0483677D02*
X0265486Y0483677D01*
X0265486Y0485276D02*
X0351149Y0485276D01*
X0350306Y0486874D02*
X0265486Y0486874D01*
X0264155Y0488473D02*
X0349463Y0488473D01*
X0348620Y0490071D02*
X0246601Y0490071D01*
X0246601Y0491670D02*
X0347778Y0491670D01*
X0355363Y0477283D02*
X0256773Y0477283D01*
X0255175Y0475685D02*
X0356206Y0475685D01*
X0357049Y0474086D02*
X0264343Y0474086D01*
X0264911Y0472488D02*
X0357892Y0472488D01*
X0358735Y0470889D02*
X0259457Y0470889D01*
X0259457Y0470324D02*
X0264911Y0470324D01*
X0264911Y0468205D01*
X0264788Y0467747D01*
X0264551Y0467337D01*
X0264216Y0467001D01*
X0263806Y0466764D01*
X0263348Y0466642D01*
X0259457Y0466642D01*
X0259457Y0470324D01*
X0259457Y0469291D02*
X0258891Y0469291D01*
X0258891Y0467692D02*
X0259457Y0467692D01*
X0254975Y0466094D02*
X0361263Y0466094D01*
X0360420Y0467692D02*
X0264757Y0467692D01*
X0264911Y0469291D02*
X0359578Y0469291D01*
X0362106Y0464495D02*
X0254975Y0464495D01*
X0254975Y0462897D02*
X0362949Y0462897D01*
X0363792Y0461298D02*
X0254975Y0461298D01*
X0254975Y0459700D02*
X0364635Y0459700D01*
X0365478Y0458101D02*
X0254975Y0458101D01*
X0254975Y0456503D02*
X0366320Y0456503D01*
X0367163Y0454904D02*
X0254975Y0454904D01*
X0254975Y0453306D02*
X0368006Y0453306D01*
X0368849Y0451707D02*
X0254975Y0451707D01*
X0254975Y0450109D02*
X0369692Y0450109D01*
X0279060Y0414300D02*
X0277926Y0413166D01*
X0277926Y0400993D01*
X0277733Y0400800D01*
X0265957Y0384570D02*
X0265391Y0384570D01*
X0265391Y0382971D02*
X0265957Y0382971D01*
X0265957Y0381373D02*
X0265391Y0381373D01*
X0265391Y0379774D02*
X0265957Y0379774D01*
X0265957Y0378176D02*
X0265391Y0378176D01*
X0243706Y0366986D02*
X0241476Y0366986D01*
X0240238Y0365388D02*
X0243362Y0365388D01*
X0243362Y0363789D02*
X0240238Y0363789D01*
X0240238Y0362191D02*
X0243362Y0362191D01*
X0243362Y0360592D02*
X0240238Y0360592D01*
X0238887Y0358994D02*
X0242185Y0358994D01*
X0225957Y0381373D02*
X0225391Y0381373D01*
X0225391Y0382971D02*
X0225957Y0382971D01*
X0225957Y0384570D02*
X0225391Y0384570D01*
X0225391Y0386168D02*
X0225957Y0386168D01*
X0225957Y0387767D02*
X0225391Y0387767D01*
X0222280Y0421335D02*
X0221320Y0421335D01*
X0221320Y0422934D02*
X0222280Y0422934D01*
X0222280Y0424532D02*
X0221320Y0424532D01*
X0227625Y0427730D02*
X0132884Y0427730D01*
X0133454Y0429328D02*
X0227625Y0429328D01*
X0227625Y0430927D02*
X0134023Y0430927D01*
X0134592Y0432525D02*
X0227625Y0432525D01*
X0227625Y0434124D02*
X0135162Y0434124D01*
X0135731Y0435722D02*
X0227625Y0435722D01*
X0228185Y0437321D02*
X0136300Y0437321D01*
X0136870Y0438919D02*
X0229784Y0438919D01*
X0231382Y0440518D02*
X0137439Y0440518D01*
X0138008Y0442116D02*
X0232981Y0442116D01*
X0234136Y0443715D02*
X0138578Y0443715D01*
X0139147Y0445313D02*
X0232537Y0445313D01*
X0226558Y0446912D02*
X0139716Y0446912D01*
X0140286Y0448510D02*
X0218728Y0448510D01*
X0218701Y0448610D02*
X0218823Y0448152D01*
X0219060Y0447742D01*
X0219396Y0447407D01*
X0219806Y0447170D01*
X0220264Y0447047D01*
X0222580Y0447047D01*
X0222580Y0451320D01*
X0218701Y0451320D01*
X0218701Y0448610D01*
X0218701Y0450109D02*
X0140855Y0450109D01*
X0141424Y0451707D02*
X0222580Y0451707D01*
X0222580Y0450109D02*
X0223539Y0450109D01*
X0223539Y0448510D02*
X0222580Y0448510D01*
X0222580Y0453306D02*
X0223539Y0453306D01*
X0223539Y0454904D02*
X0222580Y0454904D01*
X0222580Y0456503D02*
X0223539Y0456503D01*
X0226043Y0456503D02*
X0226373Y0456503D01*
X0227365Y0458101D02*
X0143702Y0458101D01*
X0143132Y0456503D02*
X0220077Y0456503D01*
X0218701Y0454904D02*
X0142563Y0454904D01*
X0141994Y0453306D02*
X0218701Y0453306D01*
X0227365Y0459700D02*
X0144271Y0459700D01*
X0144840Y0461298D02*
X0227365Y0461298D01*
X0227365Y0462897D02*
X0145410Y0462897D01*
X0145979Y0464495D02*
X0227365Y0464495D01*
X0227365Y0466094D02*
X0146548Y0466094D01*
X0147603Y0467692D02*
X0227365Y0467692D01*
X0227365Y0469291D02*
X0149042Y0469291D01*
X0150480Y0470889D02*
X0227365Y0470889D01*
X0227365Y0472488D02*
X0151919Y0472488D01*
X0153358Y0474086D02*
X0227365Y0474086D01*
X0227365Y0475685D02*
X0154796Y0475685D01*
X0156235Y0477283D02*
X0227365Y0477283D01*
X0227365Y0478882D02*
X0157674Y0478882D01*
X0159112Y0480480D02*
X0227700Y0480480D01*
X0229089Y0482079D02*
X0160551Y0482079D01*
X0161990Y0483677D02*
X0230688Y0483677D01*
X0232286Y0485276D02*
X0163428Y0485276D01*
X0164867Y0486874D02*
X0234153Y0486874D01*
X0238445Y0488473D02*
X0166306Y0488473D01*
X0167744Y0490071D02*
X0240251Y0490071D01*
X0240251Y0491670D02*
X0169183Y0491670D01*
X0170622Y0493268D02*
X0240251Y0493268D01*
X0240251Y0494867D02*
X0172060Y0494867D01*
X0173499Y0496466D02*
X0240420Y0496466D01*
X0241574Y0498064D02*
X0174938Y0498064D01*
X0176376Y0499663D02*
X0243173Y0499663D01*
X0237478Y0480480D02*
X0236470Y0480480D01*
X0248374Y0466094D02*
X0248625Y0466094D01*
X0258891Y0472488D02*
X0259457Y0472488D01*
X0259457Y0474086D02*
X0258891Y0474086D01*
X0251800Y0440481D02*
X0243926Y0432607D01*
X0243926Y0430107D01*
X0183539Y0365388D02*
X0182580Y0365388D01*
X0182580Y0363789D02*
X0183539Y0363789D01*
X0183539Y0362191D02*
X0182580Y0362191D01*
X0320044Y0349402D02*
X0321708Y0349402D01*
X0335128Y0151187D02*
X0336067Y0151187D01*
X0336484Y0149589D02*
X0334553Y0149589D01*
X0334553Y0147990D02*
X0338620Y0147990D01*
X0340219Y0146392D02*
X0334553Y0146392D01*
X0334553Y0146580D02*
X0330280Y0146580D01*
X0330280Y0142701D01*
X0332990Y0142701D01*
X0333448Y0142823D01*
X0333858Y0143060D01*
X0334193Y0143396D01*
X0334430Y0143806D01*
X0334553Y0144264D01*
X0334553Y0146580D01*
X0334553Y0144793D02*
X0341817Y0144793D01*
X0343416Y0143195D02*
X0333992Y0143195D01*
X0330280Y0143195D02*
X0329320Y0143195D01*
X0329320Y0144793D02*
X0330280Y0144793D01*
X0330280Y0146392D02*
X0329320Y0146392D01*
D17*
X0259300Y0373800D02*
X0259300Y0385800D01*
D18*
X0247300Y0286300D02*
X0247300Y0267300D01*
X0246800Y0266800D01*
X0236800Y0266800D02*
X0236800Y0285800D01*
X0237300Y0286300D01*
X0247300Y0286300D02*
X0247300Y0281800D01*
X0298607Y0156926D02*
X0298607Y0150993D01*
X0302800Y0146800D01*
X0317300Y0146800D01*
X0325300Y0154800D01*
D19*
X0154800Y0204300D03*
M02*
