G75*
%MOIN*%
%OFA0B0*%
%FSLAX25Y25*%
%IPPOS*%
%LPD*%
%AMOC8*
5,1,8,0,0,1.08239X$1,22.5*
%
%ADD10C,0.01600*%
%ADD11C,0.00004*%
D10*
X0123436Y0056746D02*
X0123228Y0057702D01*
X0123025Y0058627D01*
X0122958Y0059520D01*
X0123023Y0060361D01*
X0123086Y0061203D01*
X0123281Y0061993D01*
X0123925Y0063436D01*
X0124373Y0064089D01*
X0124943Y0064654D01*
X0125513Y0065219D01*
X0126206Y0065696D01*
X0127016Y0066069D01*
X0129020Y0066990D01*
X0131029Y0067904D01*
X0133046Y0068805D01*
X0135063Y0069705D01*
X0137086Y0070591D01*
X0141152Y0072316D01*
X0143194Y0073156D01*
X0145247Y0073964D01*
X0147300Y0074772D01*
X0149364Y0075549D01*
X0151440Y0076287D01*
X0155736Y0077812D01*
X0160074Y0079167D01*
X0168820Y0081563D01*
X0173229Y0082603D01*
X0177669Y0083498D01*
X0182110Y0084394D01*
X0186581Y0085144D01*
X0195577Y0086381D01*
X0200100Y0086868D01*
X0204646Y0087235D01*
X0205561Y0087309D01*
X0206477Y0087360D01*
X0207394Y0087394D01*
X0208310Y0087428D01*
X0209228Y0087443D01*
X0210145Y0087445D01*
X0211063Y0087447D01*
X0211981Y0087436D01*
X0212899Y0087415D01*
X0213817Y0087394D01*
X0214735Y0087365D01*
X0215652Y0087330D01*
X0216410Y0087301D01*
X0217061Y0087334D01*
X0217612Y0087448D01*
X0218162Y0087562D01*
X0218612Y0087757D01*
X0219320Y0088348D01*
X0219579Y0088744D01*
X0219749Y0089259D01*
X0219918Y0089775D01*
X0219997Y0090410D01*
X0219992Y0091185D01*
X0219968Y0094988D01*
X0219955Y0098791D01*
X0219949Y0102594D01*
X0219943Y0106397D01*
X0219943Y0121609D01*
X0219937Y0125412D01*
X0219930Y0129215D01*
X0219918Y0133019D01*
X0219892Y0136821D01*
X0219884Y0138059D01*
X0219813Y0139040D01*
X0219639Y0139794D01*
X0219464Y0140548D01*
X0219186Y0141077D01*
X0218764Y0141410D01*
X0218342Y0141743D01*
X0217776Y0141881D01*
X0216273Y0141831D01*
X0215336Y0141642D01*
X0214173Y0141321D01*
X0209932Y0140150D01*
X0205669Y0139135D01*
X0197106Y0137441D01*
X0192806Y0136761D01*
X0184170Y0135757D01*
X0179834Y0135433D01*
X0171131Y0135163D01*
X0166764Y0135217D01*
X0162382Y0135470D01*
X0159820Y0135619D01*
X0157254Y0135817D01*
X0154690Y0136063D01*
X0152127Y0136309D01*
X0149564Y0136604D01*
X0144453Y0137287D01*
X0141903Y0137675D01*
X0139364Y0138108D01*
X0136825Y0138542D01*
X0134296Y0139021D01*
X0131782Y0139544D01*
X0127289Y0140480D01*
X0122869Y0141620D01*
X0114184Y0144305D01*
X0109919Y0145849D01*
X0101549Y0149331D01*
X0097444Y0151271D01*
X0089402Y0155536D01*
X0085464Y0157863D01*
X0081614Y0160379D01*
X0081178Y0160664D01*
X0080759Y0161028D01*
X0080370Y0161445D01*
X0079981Y0161862D01*
X0079622Y0162333D01*
X0079306Y0162831D01*
X0078992Y0163330D01*
X0078720Y0163856D01*
X0078292Y0164912D01*
X0078136Y0165443D01*
X0078051Y0165950D01*
X0078014Y0166172D01*
X0078164Y0166457D01*
X0078440Y0166770D01*
X0078715Y0167083D01*
X0079114Y0167424D01*
X0080034Y0168089D01*
X0080554Y0168413D01*
X0081071Y0168692D01*
X0081587Y0168970D01*
X0082100Y0169205D01*
X0082545Y0169357D01*
X0086521Y0170723D01*
X0090425Y0172216D01*
X0094239Y0173866D01*
X0098054Y0175516D01*
X0101778Y0177324D01*
X0105394Y0179320D01*
X0109009Y0181316D01*
X0112516Y0183499D01*
X0119275Y0188303D01*
X0122527Y0190923D01*
X0125634Y0193791D01*
X0128661Y0196587D01*
X0131580Y0199465D01*
X0137121Y0205444D01*
X0139744Y0208544D01*
X0142178Y0211784D01*
X0144612Y0215024D01*
X0146858Y0218404D01*
X0150894Y0225498D01*
X0152682Y0229213D01*
X0154203Y0233125D01*
X0155008Y0235195D01*
X0155623Y0236752D01*
X0155955Y0237914D01*
X0156287Y0239076D01*
X0156336Y0239845D01*
X0156011Y0240340D01*
X0155686Y0240835D01*
X0154986Y0241057D01*
X0153819Y0241126D01*
X0152652Y0241196D01*
X0151018Y0241112D01*
X0148824Y0240996D01*
X0145874Y0240840D01*
X0142941Y0240809D01*
X0137123Y0241041D01*
X0134238Y0241304D01*
X0128532Y0242169D01*
X0125710Y0242771D01*
X0122926Y0243565D01*
X0120143Y0244359D01*
X0117398Y0245346D01*
X0114698Y0246547D01*
X0113480Y0247089D01*
X0112290Y0247704D01*
X0109955Y0249043D01*
X0108812Y0249766D01*
X0107686Y0250524D01*
X0106562Y0251283D01*
X0105455Y0252076D01*
X0104364Y0252884D01*
X0103271Y0253693D01*
X0102194Y0254517D01*
X0101127Y0255337D01*
X0100372Y0255917D01*
X0099850Y0256519D01*
X0099553Y0257128D01*
X0099256Y0257737D01*
X0099185Y0258351D01*
X0099329Y0258955D01*
X0099474Y0259559D01*
X0099835Y0260152D01*
X0100404Y0260718D01*
X0100973Y0261284D01*
X0101749Y0261822D01*
X0102726Y0262317D01*
X0104079Y0263003D01*
X0105442Y0263667D01*
X0108181Y0264974D01*
X0109555Y0265617D01*
X0112303Y0266905D01*
X0113677Y0267550D01*
X0116411Y0268865D01*
X0117772Y0269534D01*
X0119120Y0270228D01*
X0122309Y0271868D01*
X0125335Y0273695D01*
X0128228Y0275682D01*
X0131121Y0277669D01*
X0133879Y0279815D01*
X0139188Y0284371D01*
X0141737Y0286781D01*
X0144210Y0289294D01*
X0146684Y0291807D01*
X0149081Y0294425D01*
X0151432Y0297119D01*
X0153674Y0299687D01*
X0155721Y0302351D01*
X0159501Y0307837D01*
X0161233Y0310659D01*
X0162845Y0313545D01*
X0164457Y0316432D01*
X0165949Y0319383D01*
X0167357Y0322385D01*
X0168766Y0325386D01*
X0170091Y0328437D01*
X0171371Y0331522D01*
X0171998Y0333035D01*
X0172435Y0334226D01*
X0172638Y0335162D01*
X0172841Y0336098D01*
X0172810Y0336781D01*
X0172194Y0337774D01*
X0171608Y0338085D01*
X0170702Y0338278D01*
X0169796Y0338472D01*
X0168570Y0338548D01*
X0166980Y0338576D01*
X0164646Y0338616D01*
X0162379Y0338815D01*
X0160181Y0339193D01*
X0157984Y0339570D01*
X0155856Y0340126D01*
X0151749Y0341628D01*
X0149770Y0342576D01*
X0147869Y0343737D01*
X0145968Y0344899D01*
X0144144Y0346275D01*
X0142403Y0347883D01*
X0141653Y0348576D01*
X0141116Y0349328D01*
X0140460Y0350859D01*
X0140341Y0351639D01*
X0140427Y0352388D01*
X0140514Y0353137D01*
X0140805Y0353856D01*
X0141792Y0355141D01*
X0142486Y0355708D01*
X0143378Y0356155D01*
X0144805Y0356870D01*
X0146215Y0357629D01*
X0147618Y0358401D01*
X0149021Y0359173D01*
X0150419Y0359959D01*
X0153226Y0361496D01*
X0154636Y0362248D01*
X0156064Y0362953D01*
X0157493Y0363657D01*
X0158940Y0364314D01*
X0160418Y0364894D01*
X0163564Y0366126D01*
X0166507Y0367615D01*
X0169290Y0369304D01*
X0172072Y0370993D01*
X0174694Y0372883D01*
X0177197Y0374920D01*
X0179700Y0376957D01*
X0182084Y0379141D01*
X0186696Y0383694D01*
X0188925Y0386063D01*
X0191119Y0388470D01*
X0193869Y0391488D01*
X0196436Y0394625D01*
X0198823Y0397874D01*
X0201210Y0401124D01*
X0203417Y0404485D01*
X0205446Y0407954D01*
X0207475Y0411422D01*
X0209327Y0414996D01*
X0211003Y0418670D01*
X0212680Y0422344D01*
X0214182Y0426119D01*
X0215510Y0429986D01*
X0215893Y0431100D01*
X0216136Y0431975D01*
X0216212Y0432657D01*
X0216288Y0433340D01*
X0216197Y0433830D01*
X0215914Y0434172D01*
X0215631Y0434513D01*
X0215156Y0434707D01*
X0214462Y0434799D01*
X0213767Y0434891D01*
X0212854Y0434880D01*
X0211696Y0434812D01*
X0209823Y0434702D01*
X0207984Y0434724D01*
X0204378Y0435045D01*
X0202612Y0435344D01*
X0199154Y0436232D01*
X0197463Y0436820D01*
X0194161Y0438301D01*
X0192549Y0439193D01*
X0190979Y0440241D01*
X0189857Y0440991D01*
X0189009Y0441770D01*
X0187859Y0443367D01*
X0187558Y0444185D01*
X0187532Y0445012D01*
X0187505Y0445839D01*
X0187752Y0446676D01*
X0188796Y0448348D01*
X0189593Y0449184D01*
X0190665Y0450009D01*
X0192214Y0451201D01*
X0193797Y0452359D01*
X0195385Y0453511D01*
X0196974Y0454664D01*
X0198569Y0455809D01*
X0201718Y0458143D01*
X0203272Y0459330D01*
X0204779Y0460565D01*
X0206286Y0461801D01*
X0207745Y0463084D01*
X0209131Y0464443D01*
X0210816Y0466096D01*
X0212489Y0467779D01*
X0214132Y0469496D01*
X0215775Y0471213D01*
X0217388Y0472964D01*
X0220516Y0476544D01*
X0222032Y0478372D01*
X0223482Y0480242D01*
X0224931Y0482113D01*
X0226314Y0484026D01*
X0227612Y0485985D01*
X0229722Y0489169D01*
X0231663Y0492437D01*
X0235184Y0499137D01*
X0236765Y0502570D01*
X0238153Y0506083D01*
X0239542Y0509596D01*
X0240738Y0513190D01*
X0241729Y0516863D01*
X0242721Y0520537D01*
X0243509Y0524289D01*
X0244081Y0528120D01*
X0244180Y0528787D01*
X0244232Y0529385D01*
X0244215Y0529922D01*
X0244197Y0530459D01*
X0244108Y0530935D01*
X0243745Y0531789D01*
X0243470Y0532166D01*
X0242686Y0532841D01*
X0242177Y0533139D01*
X0241529Y0533408D01*
X0240922Y0533659D01*
X0240323Y0533932D01*
X0239138Y0534507D01*
X0238552Y0534811D01*
X0237971Y0535125D01*
X0237390Y0535439D01*
X0236814Y0535764D01*
X0236241Y0536094D01*
X0235668Y0536424D01*
X0235099Y0536760D01*
X0234532Y0537096D01*
X0234106Y0537348D01*
X0233782Y0537612D01*
X0233566Y0537881D01*
X0233350Y0538150D01*
X0233241Y0538424D01*
X0233245Y0538697D01*
X0233249Y0538970D01*
X0233365Y0539243D01*
X0233598Y0539510D01*
X0233832Y0539777D01*
X0234182Y0540037D01*
X0234655Y0540286D01*
X0235036Y0540487D01*
X0235411Y0540699D01*
X0235786Y0540915D01*
X0236161Y0541130D01*
X0236535Y0541348D01*
X0236911Y0541559D01*
X0237288Y0541769D01*
X0237666Y0541973D01*
X0238051Y0542160D01*
X0238436Y0542347D01*
X0238827Y0542517D01*
X0239228Y0542660D01*
X0240431Y0543090D01*
X0241450Y0543648D01*
X0243187Y0544984D01*
X0243904Y0545761D01*
X0244504Y0546629D01*
X0245104Y0547497D01*
X0258015Y0548006D02*
X0258712Y0546903D01*
X0259559Y0545933D01*
X0260406Y0544962D01*
X0261403Y0544123D01*
X0263687Y0542679D01*
X0264975Y0542073D01*
X0266405Y0541568D01*
X0266651Y0541481D01*
X0266892Y0541382D01*
X0267131Y0541273D01*
X0267369Y0541165D01*
X0267605Y0541047D01*
X0267838Y0540923D01*
X0268071Y0540799D01*
X0268301Y0540668D01*
X0268760Y0540399D01*
X0268988Y0540261D01*
X0269216Y0540122D01*
X0269408Y0540005D01*
X0269556Y0539848D01*
X0269764Y0539494D01*
X0269823Y0539296D01*
X0269836Y0539095D01*
X0269849Y0538894D01*
X0269817Y0538690D01*
X0269656Y0538312D01*
X0269529Y0538137D01*
X0269354Y0537996D01*
X0269258Y0537885D01*
X0268903Y0537520D01*
X0268645Y0537267D01*
X0268323Y0536984D01*
X0267999Y0536701D01*
X0267611Y0536389D01*
X0266734Y0535786D01*
X0266247Y0535496D01*
X0265725Y0535258D01*
X0263946Y0534449D01*
X0262608Y0533865D01*
X0261625Y0533322D01*
X0260643Y0532778D01*
X0260017Y0532276D01*
X0259311Y0530982D01*
X0259232Y0530191D01*
X0259454Y0527950D01*
X0259755Y0526500D01*
X0260163Y0524535D01*
X0261119Y0519933D01*
X0262327Y0515454D01*
X0265248Y0506738D01*
X0266962Y0502501D01*
X0268931Y0498382D01*
X0270901Y0494263D01*
X0273127Y0490262D01*
X0278096Y0482490D01*
X0280840Y0478720D01*
X0283845Y0475061D01*
X0285868Y0472598D01*
X0287987Y0470267D01*
X0292399Y0465826D01*
X0294692Y0463717D01*
X0297059Y0461700D01*
X0299427Y0459683D01*
X0301869Y0457758D01*
X0304376Y0455907D01*
X0306883Y0454055D01*
X0309455Y0452276D01*
X0312079Y0450551D01*
X0313366Y0449706D01*
X0314342Y0448851D01*
X0315668Y0447128D01*
X0316017Y0446261D01*
X0316048Y0445391D01*
X0316080Y0444521D01*
X0315795Y0443648D01*
X0315188Y0442776D01*
X0314582Y0441904D01*
X0313655Y0441032D01*
X0312403Y0440164D01*
X0310873Y0439104D01*
X0309301Y0438208D01*
X0306075Y0436729D01*
X0304421Y0436146D01*
X0301034Y0435274D01*
X0299303Y0434986D01*
X0295764Y0434687D01*
X0293958Y0434676D01*
X0292116Y0434795D01*
X0290850Y0434877D01*
X0289869Y0434878D01*
X0289132Y0434761D01*
X0288397Y0434644D01*
X0287906Y0434409D01*
X0287332Y0433626D01*
X0287250Y0433080D01*
X0287412Y0431600D01*
X0287657Y0430668D01*
X0288025Y0429505D01*
X0289075Y0426180D01*
X0290306Y0422954D01*
X0291695Y0419815D01*
X0293084Y0416676D01*
X0294630Y0413625D01*
X0297992Y0407680D01*
X0299808Y0404785D01*
X0303664Y0399132D01*
X0305703Y0396373D01*
X0307832Y0393673D01*
X0309817Y0391156D01*
X0311874Y0388705D01*
X0314025Y0386348D01*
X0316175Y0383991D01*
X0318418Y0381730D01*
X0320774Y0379591D01*
X0323130Y0377453D01*
X0325598Y0375438D01*
X0328198Y0373577D01*
X0330799Y0371715D01*
X0333531Y0370006D01*
X0336415Y0368479D01*
X0338329Y0367466D01*
X0340243Y0366450D01*
X0342157Y0365437D01*
X0344071Y0364422D01*
X0345986Y0363410D01*
X0349822Y0361395D01*
X0351742Y0360393D01*
X0355591Y0358405D01*
X0357519Y0357419D01*
X0359454Y0356445D01*
X0360351Y0355994D01*
X0361169Y0355395D01*
X0361812Y0354696D01*
X0362455Y0353997D01*
X0362923Y0353197D01*
X0363318Y0351490D01*
X0363245Y0350583D01*
X0362368Y0348754D01*
X0361562Y0347833D01*
X0360296Y0346951D01*
X0358479Y0345685D01*
X0356644Y0344494D01*
X0354770Y0343429D01*
X0352896Y0342363D01*
X0350982Y0341423D01*
X0347028Y0339893D01*
X0344988Y0339304D01*
X0342863Y0338939D01*
X0340738Y0338575D01*
X0338526Y0338435D01*
X0336206Y0338572D01*
X0334823Y0338653D01*
X0333719Y0338637D01*
X0332877Y0338488D01*
X0332035Y0338339D01*
X0331454Y0338059D01*
X0330775Y0337165D01*
X0330677Y0336551D01*
X0330802Y0335736D01*
X0330927Y0334921D01*
X0331274Y0333906D01*
X0331824Y0332654D01*
X0332731Y0330593D01*
X0333659Y0328537D01*
X0335567Y0324446D01*
X0336547Y0322411D01*
X0338566Y0318374D01*
X0339606Y0316370D01*
X0340681Y0314388D01*
X0341755Y0312406D01*
X0342863Y0310444D01*
X0344010Y0308509D01*
X0344886Y0307031D01*
X0345803Y0305564D01*
X0347719Y0302673D01*
X0348718Y0301250D01*
X0349758Y0299860D01*
X0350798Y0298469D01*
X0351880Y0297112D01*
X0353003Y0295798D01*
X0354126Y0294484D01*
X0355291Y0293214D01*
X0356497Y0291999D01*
X0357893Y0290593D01*
X0359340Y0289234D01*
X0360828Y0287914D01*
X0362316Y0286593D01*
X0363843Y0285311D01*
X0366953Y0282809D01*
X0368534Y0281589D01*
X0371728Y0279192D01*
X0373340Y0278017D01*
X0374954Y0276856D01*
X0376377Y0275832D01*
X0377832Y0274850D01*
X0380784Y0272947D01*
X0382282Y0272026D01*
X0383792Y0271122D01*
X0385302Y0270218D01*
X0386825Y0269331D01*
X0388349Y0268450D01*
X0389874Y0267569D01*
X0391401Y0266694D01*
X0392921Y0265811D01*
X0393457Y0265500D01*
X0394018Y0265234D01*
X0394592Y0264993D01*
X0395167Y0264751D01*
X0395756Y0264534D01*
X0396347Y0264319D01*
X0396938Y0264105D01*
X0397531Y0263893D01*
X0398114Y0263664D01*
X0398697Y0263435D01*
X0399271Y0263187D01*
X0399824Y0262900D01*
X0400984Y0262298D01*
X0401892Y0261595D01*
X0402532Y0260834D01*
X0403173Y0260073D01*
X0403547Y0259256D01*
X0403733Y0257598D01*
X0403545Y0256758D01*
X0403063Y0255952D01*
X0402581Y0255146D01*
X0401805Y0254373D01*
X0400719Y0253680D01*
X0399368Y0252818D01*
X0397998Y0251972D01*
X0396610Y0251152D01*
X0395221Y0250332D01*
X0393815Y0249538D01*
X0390967Y0248020D01*
X0389526Y0247296D01*
X0388068Y0246615D01*
X0386611Y0245935D01*
X0385137Y0245300D01*
X0383648Y0244717D01*
X0380981Y0243673D01*
X0378280Y0242868D01*
X0375551Y0242270D01*
X0372822Y0241672D01*
X0370066Y0241282D01*
X0364514Y0240850D01*
X0361718Y0240808D01*
X0358910Y0240909D01*
X0356102Y0241011D01*
X0353282Y0241254D01*
X0350457Y0241608D01*
X0349512Y0241727D01*
X0348740Y0241740D01*
X0347525Y0241541D01*
X0347084Y0241328D01*
X0346520Y0240661D01*
X0346398Y0240206D01*
X0346428Y0239623D01*
X0346459Y0239040D01*
X0346643Y0238328D01*
X0346974Y0237479D01*
X0348088Y0234620D01*
X0349332Y0231845D01*
X0352053Y0226440D01*
X0353531Y0223809D01*
X0355116Y0221241D01*
X0356701Y0218673D01*
X0358392Y0216167D01*
X0360179Y0213711D01*
X0361966Y0211256D01*
X0363849Y0208852D01*
X0365816Y0206488D01*
X0368260Y0203550D01*
X0370811Y0200751D01*
X0376131Y0195436D01*
X0378899Y0192920D01*
X0384663Y0188178D01*
X0387658Y0185951D01*
X0393881Y0181794D01*
X0397108Y0179864D01*
X0400456Y0178084D01*
X0402079Y0177222D01*
X0403742Y0176435D01*
X0405429Y0175692D01*
X0407115Y0174950D01*
X0408825Y0174252D01*
X0410543Y0173568D01*
X0412261Y0172884D01*
X0413986Y0172214D01*
X0415704Y0171527D01*
X0417421Y0170839D01*
X0419131Y0170135D01*
X0420816Y0169383D01*
X0421226Y0169200D01*
X0421684Y0168962D01*
X0422598Y0168417D01*
X0423054Y0168110D01*
X0423862Y0167467D01*
X0424215Y0167131D01*
X0424717Y0166472D01*
X0424866Y0166148D01*
X0424864Y0165851D01*
X0424860Y0165388D01*
X0424775Y0164880D01*
X0424473Y0163846D01*
X0424258Y0163321D01*
X0423994Y0162822D01*
X0423729Y0162322D01*
X0423416Y0161850D01*
X0423071Y0161439D01*
X0422726Y0161028D01*
X0422348Y0160680D01*
X0421955Y0160428D01*
X0419079Y0158589D01*
X0416149Y0156861D01*
X0410192Y0153611D01*
X0407164Y0152089D01*
X0404089Y0150661D01*
X0401015Y0149233D01*
X0397894Y0147899D01*
X0391566Y0145400D01*
X0388359Y0144236D01*
X0385112Y0143147D01*
X0379960Y0141420D01*
X0374769Y0140012D01*
X0364325Y0137769D01*
X0359071Y0136933D01*
X0348514Y0135769D01*
X0343210Y0135441D01*
X0337888Y0135333D01*
X0332566Y0135226D01*
X0327226Y0135339D01*
X0321875Y0135641D01*
X0319165Y0135794D01*
X0316463Y0136091D01*
X0313766Y0136483D01*
X0311069Y0136875D01*
X0308377Y0137362D01*
X0302999Y0138426D01*
X0300314Y0139004D01*
X0294944Y0140149D01*
X0292261Y0140718D01*
X0289576Y0141232D01*
X0288394Y0141459D01*
X0287441Y0141593D01*
X0286677Y0141593D01*
X0285912Y0141592D01*
X0285336Y0141457D01*
X0284907Y0141143D01*
X0284479Y0140829D01*
X0284197Y0140337D01*
X0284022Y0139624D01*
X0283847Y0138911D01*
X0283778Y0137976D01*
X0283775Y0136777D01*
X0283764Y0133007D01*
X0283761Y0129237D01*
X0283760Y0125467D01*
X0283760Y0121697D01*
X0283764Y0117927D01*
X0283766Y0110387D01*
X0283766Y0106617D01*
X0283752Y0099077D01*
X0283739Y0095307D01*
X0283716Y0091537D01*
X0283710Y0090780D01*
X0283768Y0090136D01*
X0284044Y0089055D01*
X0284263Y0088619D01*
X0284899Y0087937D01*
X0285316Y0087693D01*
X0286385Y0087380D01*
X0287038Y0087311D01*
X0287827Y0087322D01*
X0292999Y0087393D01*
X0298134Y0087211D01*
X0303233Y0086798D01*
X0308331Y0086386D01*
X0313394Y0085743D01*
X0323448Y0084039D01*
X0328441Y0082978D01*
X0338358Y0080484D01*
X0343282Y0079050D01*
X0348175Y0077451D01*
X0350510Y0076688D01*
X0352828Y0075870D01*
X0357440Y0074159D01*
X0359733Y0073265D01*
X0364305Y0071433D01*
X0366583Y0070496D01*
X0368858Y0069554D01*
X0371134Y0068611D01*
X0373407Y0067663D01*
X0375682Y0066727D01*
X0376577Y0066359D01*
X0377348Y0065833D01*
X0377983Y0065193D01*
X0378618Y0064552D01*
X0379116Y0063798D01*
X0379812Y0062144D01*
X0380010Y0061246D01*
X0380043Y0060318D01*
X0380077Y0059391D01*
X0379946Y0058435D01*
X0379637Y0057493D01*
X0379560Y0057261D01*
X0379411Y0057015D01*
X0379215Y0056776D01*
X0379019Y0056538D01*
X0378775Y0056307D01*
X0378512Y0056104D01*
X0378249Y0055902D01*
X0377965Y0055728D01*
X0377687Y0055604D01*
X0377410Y0055479D01*
X0377139Y0055405D01*
X0376900Y0055401D01*
X0374355Y0055363D01*
X0371808Y0055338D01*
X0366716Y0055306D01*
X0364170Y0055299D01*
X0359078Y0055295D01*
X0356531Y0055298D01*
X0353985Y0055304D01*
X0351439Y0055309D01*
X0348892Y0055315D01*
X0346346Y0055320D01*
X0346217Y0055320D01*
X0346078Y0055321D01*
X0345936Y0055328D01*
X0345794Y0055335D01*
X0345651Y0055348D01*
X0345512Y0055369D01*
X0345375Y0055391D01*
X0345243Y0055423D01*
X0345125Y0055468D01*
X0345008Y0055513D01*
X0344905Y0055572D01*
X0344825Y0055650D01*
X0343747Y0056683D01*
X0342602Y0057370D01*
X0341413Y0057820D01*
X0340224Y0058270D01*
X0339307Y0058390D01*
X0338052Y0058474D01*
X0336796Y0058558D01*
X0335804Y0058552D01*
X0334527Y0058488D01*
X0333250Y0058423D01*
X0331371Y0058392D01*
X0330118Y0058397D01*
X0324066Y0058420D01*
X0318014Y0058437D01*
X0305911Y0058459D01*
X0299859Y0058464D01*
X0293807Y0058461D01*
X0287755Y0058459D01*
X0281703Y0058448D01*
X0275651Y0058430D01*
X0269599Y0058412D01*
X0263548Y0058386D01*
X0257496Y0058350D01*
X0256688Y0058346D01*
X0256019Y0058410D01*
X0255472Y0058557D01*
X0254925Y0058704D01*
X0254500Y0058933D01*
X0254180Y0059258D01*
X0253860Y0059582D01*
X0253644Y0060001D01*
X0253518Y0060527D01*
X0253391Y0061054D01*
X0253352Y0061688D01*
X0253384Y0062442D01*
X0253417Y0063200D01*
X0253439Y0063960D01*
X0253450Y0064720D01*
X0253462Y0065480D01*
X0253463Y0066240D01*
X0253453Y0067000D01*
X0253443Y0067761D01*
X0253422Y0068521D01*
X0253391Y0069280D01*
X0253360Y0070039D01*
X0253318Y0070798D01*
X0253264Y0071554D01*
X0253249Y0071765D01*
X0253180Y0071972D01*
X0252970Y0072381D01*
X0252831Y0072583D01*
X0252677Y0072783D01*
X0252522Y0072984D01*
X0252353Y0073184D01*
X0252024Y0073585D01*
X0251866Y0073785D01*
X0251732Y0073988D01*
X0251588Y0073803D01*
X0251418Y0073620D01*
X0251242Y0073437D01*
X0251065Y0073255D01*
X0250884Y0073073D01*
X0250718Y0072890D01*
X0250552Y0072707D01*
X0250402Y0072522D01*
X0250177Y0072146D01*
X0250101Y0071956D01*
X0250085Y0071760D01*
X0250019Y0070972D01*
X0249960Y0070181D01*
X0249910Y0069390D01*
X0249862Y0068598D01*
X0249823Y0067806D01*
X0249770Y0066221D01*
X0249756Y0065428D01*
X0249758Y0064636D01*
X0249760Y0063844D01*
X0249777Y0063053D01*
X0249811Y0062263D01*
X0249842Y0061548D01*
X0249814Y0060944D01*
X0249704Y0060442D01*
X0249595Y0059939D01*
X0249406Y0059537D01*
X0248827Y0058915D01*
X0248438Y0058694D01*
X0247419Y0058412D01*
X0246790Y0058352D01*
X0246021Y0058361D01*
X0242648Y0058400D01*
X0239275Y0058425D01*
X0235903Y0058439D01*
X0232529Y0058453D01*
X0229156Y0058456D01*
X0222410Y0058454D01*
X0219036Y0058448D01*
X0212290Y0058438D01*
X0208917Y0058433D01*
X0205544Y0058435D01*
X0202269Y0058436D01*
X0192447Y0058456D01*
X0189173Y0058463D01*
X0182625Y0058463D01*
X0179351Y0058458D01*
X0172804Y0058424D01*
X0169531Y0058395D01*
X0166257Y0058349D01*
X0165709Y0058341D01*
X0165163Y0058256D01*
X0164073Y0057989D01*
X0163528Y0057807D01*
X0162983Y0057607D01*
X0162438Y0057407D01*
X0161894Y0057189D01*
X0160801Y0056775D01*
X0160254Y0056579D01*
X0159704Y0056424D01*
X0159301Y0056310D01*
X0158897Y0056185D01*
X0158490Y0056061D01*
X0158084Y0055937D01*
X0157677Y0055815D01*
X0156860Y0055597D01*
X0156451Y0055501D01*
X0156042Y0055431D01*
X0155632Y0055362D01*
X0155223Y0055319D01*
X0154814Y0055313D01*
X0152697Y0055285D01*
X0150581Y0055261D01*
X0146348Y0055227D01*
X0144232Y0055217D01*
X0142115Y0055215D01*
X0139998Y0055213D01*
X0137882Y0055220D01*
X0135766Y0055238D01*
X0133649Y0055256D01*
X0131533Y0055285D01*
X0129418Y0055327D01*
X0128868Y0055337D01*
X0128258Y0055252D01*
X0127640Y0055178D01*
X0127021Y0055105D01*
X0126395Y0055042D01*
X0125811Y0055097D01*
X0125227Y0055152D01*
X0124685Y0055326D01*
X0124238Y0055724D01*
X0123790Y0056122D01*
X0123436Y0056746D01*
D11*
X0245104Y0547497D02*
X0245586Y0548455D01*
X0245985Y0549485D01*
X0246384Y0550516D01*
X0246699Y0551617D01*
X0246963Y0552772D01*
X0247198Y0553801D01*
X0247455Y0554826D01*
X0247727Y0555846D01*
X0247999Y0556867D01*
X0248286Y0557884D01*
X0248582Y0558900D01*
X0248878Y0559915D01*
X0249183Y0560928D01*
X0249490Y0561940D01*
X0249797Y0562952D01*
X0250107Y0563963D01*
X0250558Y0565361D01*
X0251167Y0566304D01*
X0251463Y0566703D01*
X0251987Y0566853D01*
X0252258Y0566426D01*
X0252623Y0565859D01*
X0252940Y0565291D01*
X0253249Y0564364D01*
X0253378Y0563946D01*
X0253688Y0563001D01*
X0254311Y0561110D01*
X0254624Y0560164D01*
X0254918Y0559215D01*
X0255212Y0558266D01*
X0255487Y0557314D01*
X0255964Y0555399D01*
X0256164Y0554436D01*
X0256308Y0553465D01*
X0256539Y0551904D01*
X0256929Y0550506D01*
X0257471Y0549256D01*
X0258015Y0548006D01*
M02*
