<?xml version="1.0" encoding="utf-8"?>
<!-- Generator: Adobe Illustrator 23.1.0, SVG Export Plug-In . SVG Version: 6.00 Build 0)  -->
<svg version="1.1" id="Ebene_1" xmlns="http://www.w3.org/2000/svg" xmlns:xlink="http://www.w3.org/1999/xlink" x="0px" y="0px"
	 viewBox="0 0 595.3 841.9" style="enable-background:new 0 0 595.3 841.9;" xml:space="preserve">
<style type="text/css">
	.st0{fill:none;stroke:#000000;stroke-width:0.25;stroke-miterlimit:10;}
</style>
<g>
	<path class="st0" d="M289.4,585.9c0.8,0,1.5,0,2.3,0c0.3,2.2,0.8,4.4,0.9,6.6c0.3,7.3,0.9,7.9,8.2,8c0.7,0,1.3,0,2,0
		c30.6,2,61.4-3.9,91.9,3.6c8.5,2.1,17.9,0.5,26.9,0.3c4.9-0.1,7.4-3.2,5.7-7.5c-0.9-2.3-3.3-4.5-5.6-5.6
		c-28.7-13.4-58.9-21.1-90.7-21.9c-4.2-0.1-6.1-2-6.1-6.1c0-15-0.1-30,0.1-45c0.1-5.3,1.7-6.5,6.8-5.8c2.3,0.3,4.6,0.8,6.9,1.3
		c34.9,8.4,69.2,6.4,102.6-6.4c10.7-4.1,20.8-9.6,30.8-15.3c5.7-3.2,5-7.4-0.8-10.4c-1.6-0.8-3.4-1.3-5-2.2c-9.6-4.9-19.8-9-28.7-15
		c-20-13.4-34.5-31.6-43.9-53.8c-2-4.7-0.7-6.5,4.1-5.9c18.1,2.5,34.8-1.4,49.9-11.5c2.3-1.5,5.5-4.7,5.1-6.4
		c-0.5-2.5-3.6-4.8-6.2-6.3c-4.5-2.8-9.4-4.9-14.1-7.5c-26.4-14.8-44.5-36.6-55.3-64.7c-2.2-5.8-1-7.7,5.2-7.6
		c8.3,0,15.6-2.8,22.4-7.4c6.8-4.6,6.6-8.8-0.8-12.8c-6.2-3.3-12.3-6.6-18.6-9.8c-27.4-14.1-44.2-37.2-55.2-65.2
		c-2.6-6.6-1.3-7.5,5.7-8.2c5.8-0.6,12-1.6,17.2-4.1c8-3.9,7.9-8.4,0.5-13.5c-1.5-1-3-2-4.5-3.1c-25.8-18.3-42.5-42.8-49.3-73.8
		c-1.8-8.2-1.5-8.4,5.6-12.7c1.4-0.8,2.8-2.5,3.2-4c0.2-0.8-1.9-2.4-3.3-3.1c-5.5-2.5-8.6-6.5-9.8-12.4c-0.6-3.3-1.8-6.4-2.9-9.5
		c-0.3-0.9-1.5-2.1-2.3-2.1c-0.8,0-1.7,1.3-2.2,2.2c-0.6,1.2-0.8,2.5-1.1,3.8c-1.9,8.1-4.1,15.9-13.4,18.9c-2.7,0.9-2.9,3.1-0.4,4.9
		c1.5,1,3.1,2,4.7,2.8c3.5,1.7,4.7,4.2,4,8.1c-4.1,22.5-13.7,42.1-29.8,58.3c-8.1,8.1-17.2,15.2-26,22.5c-5.7,4.8-5.9,9.1,0.8,12.2
		c5.6,2.5,11.9,3.9,18.1,4.6c7.2,0.8,8,1.3,5.5,8.2c-6.2,17.2-15.8,32.3-28.3,45.5c-7.6,8-15.9,15.2-26,20c-6.2,2.9-12.1,6.5-18.4,9
		c-9.4,3.9-6.9,10-0.5,14.2c6.4,4.2,13.6,6.1,21.3,6.3c6.3,0.2,7.7,2.5,5.4,8.4c-12.1,30.3-32,53.5-61.6,67.9
		c-3.9,1.9-8,3.4-11.7,5.6c-4.2,2.4-4.5,5.6-0.7,8.2c5.8,3.8,11.7,7.6,18.1,10.4c10.8,4.7,22.4,4.6,33.9,4.5c5.5-0.1,6.2,1,4.5,6.3
		c-4.5,13.8-13,25.1-22.6,35.6c-14,15.4-31.2,25.9-50.5,33.1c-3,1.1-5.6,3.7-8.3,5.6c2.3,2.7,4.1,6,6.9,7.8
		c25.9,16.5,54.7,23.1,85,24.5c17.6,0.8,34.9-1.3,51.9-6c5.8-1.6,7.5-0.3,7.6,5.5c0.1,15,0,30,0.1,45c0,4.5-2,6.2-6.4,6.3
		c-24.1,0.8-47.7,4.9-70.3,13.5c-7.9,3-15.7,6.5-23.2,10.4c-1.9,1-3.2,4.4-3.5,6.9c-0.2,1.2,2.6,4,4,4c12.1,0.1,24.3,2.1,36.2-1.5
		c3.9-1.2,8.1-1.9,12.2-1.9c25.2-0.2,50.3-0.1,75.5-0.1c6.6,0,7.4-0.9,7.7-7.5C288.9,590.6,289.2,588.2,289.4,585.9z"/>
	<path class="st0" d="M289.4,585.9c-0.2,2.3-0.6,4.7-0.6,7c-0.2,6.6-1,7.5-7.7,7.5c-25.2,0-50.3-0.1-75.5,0.1
		c-4.1,0-8.3,0.8-12.2,1.9c-12,3.6-24.2,1.6-36.2,1.5c-1.4,0-4.2-2.8-4-4c0.3-2.5,1.6-5.9,3.5-6.9c7.5-3.9,15.3-7.3,23.2-10.4
		c22.6-8.6,46.2-12.7,70.3-13.5c4.4-0.1,6.4-1.8,6.4-6.3c-0.1-15,0-30-0.1-45c-0.1-5.8-1.8-7.1-7.6-5.5c-17,4.7-34.3,6.8-51.9,6
		c-30.2-1.4-59.1-8-85-24.5c-2.8-1.8-4.7-5.2-6.9-7.8c2.8-1.9,5.3-4.4,8.3-5.6c19.4-7.2,36.6-17.7,50.5-33.1
		c9.6-10.5,18.1-21.8,22.6-35.6c1.7-5.3,1.1-6.4-4.5-6.3c-11.5,0.1-23.2,0.2-33.9-4.5c-6.3-2.8-12.3-6.6-18.1-10.4
		c-3.8-2.6-3.5-5.8,0.7-8.2c3.7-2.2,7.8-3.7,11.7-5.6c29.6-14.4,49.5-37.6,61.6-67.9c2.3-5.9,0.9-8.2-5.4-8.4
		c-7.7-0.2-14.8-2.1-21.3-6.3c-6.4-4.2-8.9-10.4,0.5-14.2c6.3-2.6,12.2-6.1,18.4-9c10.1-4.8,18.4-11.9,26-20
		c12.5-13.2,22.1-28.3,28.3-45.5c2.5-6.9,1.6-7.4-5.5-8.2c-6.1-0.7-12.5-2-18.1-4.6c-6.8-3.1-6.6-7.4-0.8-12.2
		c8.8-7.4,17.9-14.5,26-22.5c16.1-16.1,25.8-35.8,29.8-58.3c0.7-3.9-0.5-6.4-4-8.1c-1.6-0.8-3.2-1.8-4.7-2.8c-2.6-1.8-2.3-4,0.4-4.9
		c9.3-3,11.5-10.8,13.4-18.9c0.3-1.3,0.6-2.7,1.1-3.8c0.5-0.9,1.4-2.2,2.2-2.2c0.8,0,1.9,1.2,2.3,2.1c1.1,3.1,2.3,6.3,2.9,9.5
		c1.1,5.9,4.3,9.9,9.8,12.4c1.4,0.6,3.4,2.3,3.3,3.1c-0.3,1.5-1.7,3.2-3.2,4c-7.1,4.3-7.4,4.4-5.6,12.7c6.8,31,23.5,55.5,49.3,73.8
		c1.5,1.1,3,2,4.5,3.1c7.4,5.1,7.6,9.7-0.5,13.5c-5.2,2.5-11.3,3.4-17.2,4.1c-7.1,0.8-8.3,1.6-5.7,8.2c10.9,28,27.7,51.1,55.2,65.2
		c6.2,3.2,12.4,6.5,18.6,9.8c7.4,4,7.6,8.2,0.8,12.8c-6.8,4.6-14.1,7.4-22.4,7.4c-6.3,0-7.5,1.8-5.2,7.6
		c10.7,28.1,28.9,50,55.3,64.7c4.6,2.6,9.6,4.7,14.1,7.5c2.5,1.6,5.7,3.9,6.2,6.3c0.4,1.7-2.8,4.9-5.1,6.4
		c-15.1,10.2-31.8,14.1-49.9,11.5c-4.8-0.7-6.2,1.1-4.1,5.9c9.4,22.2,23.9,40.4,43.9,53.8c8.9,6,19.1,10.1,28.7,15
		c1.6,0.8,3.4,1.3,5,2.2c5.8,2.9,6.5,7.2,0.8,10.4c-10,5.6-20.2,11.2-30.8,15.3c-33.4,12.8-67.7,14.8-102.6,6.4
		c-2.3-0.5-4.6-1-6.9-1.3c-5.1-0.7-6.8,0.5-6.8,5.8c-0.2,15-0.1,30-0.1,45c0,4.1,1.9,6,6.1,6.1c31.8,0.8,61.9,8.5,90.7,21.9
		c2.3,1.1,4.7,3.3,5.6,5.6c1.7,4.4-0.8,7.4-5.7,7.5c-9,0.2-18.4,1.8-26.9-0.3c-30.5-7.5-61.3-1.6-91.9-3.6c-0.7,0-1.3,0-2,0
		c-7.3-0.1-7.9-0.7-8.2-8c-0.1-2.2-0.6-4.4-0.9-6.6C291,585.9,290.2,585.9,289.4,585.9z"/>
</g>
</svg>
